<svg width="1492px" height="1125px" viewBox="0 0 1492 1125" version="1.1" xmlns="http://www.w3.org/2000/svg" xmlns:xlink="http://www.w3.org/1999/xlink">
	<g id="Page-1" stroke="none" stroke-width="1" fill="none" fill-rule="evenodd">
		<g id="00-Landing" stroke="#0080FF" stroke-width="2">
			<path d="M708.587002,1123.28257 L708.414911,1123.79659 L-268.22118,1123.79659 L-268.22118,-135.229081 L1327.79951,-135.463247 C1331.94765,-135.808032 1336.14376,-135.983874 1340.38094,-135.983874 C1344.603,-135.983874 1348.78429,-135.809285 1352.91796,-135.466932 L1372.84298,-135.469855 L1371.71487,-132.703214 C1439.44251,-118.296445 1490.24818,-58.139692 1490.24818,13.8833593 C1490.24818,96.6527469 1423.15033,163.750593 1340.38094,163.750593 C1326.037,163.750593 1312.16372,161.735449 1299.02877,157.972819 C1316.93578,186.215576 1327.30427,219.709978 1327.30427,255.626069 C1327.30427,356.482037 1245.54435,438.241952 1144.68839,438.241952 C1110.02085,438.241952 1077.60957,428.581819 1049.99948,411.806513 C1050.78549,418.841838 1051.18913,425.992696 1051.18913,433.237829 C1051.18913,502.381061 1014.42746,562.938146 959.383138,596.430081 C1035.53945,664.03784 1083.52832,762.675417 1083.52832,872.521394 C1083.52832,969.340142 1046.24701,1057.45137 985.25693,1123.28257 C843.158461,1123.28257 795.51767,1123.28257 708.586927,1123.28257 Z" id="cloud_top"></path>
		</g>
	</g>
</svg>