<svg width="34px" height="34px" viewBox="0 0 34 34" version="1.1" xmlns="http://www.w3.org/2000/svg" xmlns:xlink="http://www.w3.org/1999/xlink">
    <g id="Page-1" stroke="none" stroke-width="1" fill="none" fill-rule="evenodd">
        <g id="00-Landing" transform="translate(-994.000000, -5509.000000)">
            <g id="Group-5" transform="translate(994.000000, 5509.186261)">
                <g id="vk" transform="translate(0.000000, 0.267013)">
                    <circle id="XMLID_11_" fill="#4D76A1" fill-rule="nonzero" cx="16.512604" cy="16.512604" r="16.512604"></circle>
                    <path d="M15.8888704,23.7548605 L17.1849058,23.7548605 C17.1849058,23.7548605 17.576395,23.711885 17.7762606,23.4964188 C17.9602311,23.2986137 17.9543441,22.9271404 17.9543441,22.9271404 C17.9543441,22.9271404 17.9290297,21.188104 18.7361451,20.9320171 C19.5317808,20.6797567 20.5534794,22.6127716 21.6364034,23.3560125 C22.4552929,23.9185207 23.0775547,23.7951869 23.0775547,23.7951869 L25.9731033,23.7548605 C25.9731033,23.7548605 27.4878429,23.6615507 26.769622,22.4705992 C26.7107515,22.3731684 26.3513467,21.5896013 24.6167256,19.9794914 C22.8011574,18.2943215 23.0442929,18.5668922 25.2313342,15.6519164 C26.5632807,13.8766746 27.0957649,12.7928675 26.9294556,12.3286731 C26.7707994,11.8865552 25.7911933,12.0034133 25.7911933,12.0034133 L22.5309416,12.0237236 C22.5309416,12.0237236 22.2892779,11.9907561 22.110017,12.0979005 C21.9348771,12.2029845 21.82214,12.447886 21.82214,12.447886 C21.82214,12.447886 21.3061395,13.8216306 20.6179426,14.9899169 C19.1661946,17.4551217 18.5857308,17.5852256 18.3484825,17.4321622 C17.7965709,17.0754066 17.9343281,15.9989583 17.9343281,15.2342297 C17.9343281,12.8452623 18.2966764,11.8491724 17.2287644,11.5913193 C16.8743636,11.5056627 16.613567,11.4491469 15.7072547,11.440022 C14.5439724,11.4279535 13.5593622,11.4435542 13.001858,11.7167136 C12.6309735,11.8983293 12.3448625,12.3030644 12.5191194,12.3263183 C12.7345857,12.3551649 13.2226226,12.457894 13.4813587,12.8102343 C13.8154492,13.2647151 13.8036751,14.2855306 13.8036751,14.2855306 C13.8036751,14.2855306 13.9955931,17.0977774 13.3553757,17.4471742 C12.915907,17.6867773 12.3130724,17.197563 11.0188031,14.9610703 C10.3556262,13.8154492 9.85493211,12.5491434 9.85493211,12.5491434 C9.85493211,12.5491434 9.75838439,12.3124837 9.58618799,12.185912 C9.3771975,12.0325542 9.08519951,11.9836916 9.08519951,11.9836916 L5.98713617,12.004002 C5.98713617,12.004002 5.52205873,12.0169535 5.3513341,12.2191739 C5.19944805,12.3990235 5.33926564,12.7710854 5.33926564,12.7710854 C5.33926564,12.7710854 7.7647328,18.4456189 10.5110445,21.3052564 C13.0292328,23.9270569 15.8888704,23.7548605 15.8888704,23.7548605 Z" id="Shape" fill="#FFFFFF"></path>
                </g>
            </g>
        </g>
    </g>
</svg>