<?xml version="1.0" encoding="UTF-8"?>
<svg width="1111px" height="1239px" viewBox="0 0 1111 1239" version="1.1" xmlns="http://www.w3.org/2000/svg" xmlns:xlink="http://www.w3.org/1999/xlink">
    <!-- Generator: sketchtool 50.2 (55047) - http://www.bohemiancoding.com/sketch -->
    <title>00174904-6EBD-4BB8-BEF6-FA0513ADB328</title>
    <desc>Created with sketchtool.</desc>
    <defs></defs>
    <g id="Symbols" stroke="none" stroke-width="1" fill="none" fill-rule="evenodd">
        <g id="girl-/-03_flip">
            <g id="girl03_flip" transform="translate(198.000000, 315.000000)">
                <g id="Layer_2_1_" fill="#FFFFFF" fill-rule="nonzero">
                    <g id="Group">
                        <path d="M2.2,586.2 C2.6,585.1 3.1,584 3.6,582.9 C5.7,578 8.4,573.1 12.3,569.7 C17.7,564.9 24.5,561.8 31.1,559 C39.5,555.5 47.5,552 55.4,547.5 C59.3,545.3 63.4,543 67.8,542.3 C73.7,541.3 79.4,543.1 84.8,545.5 C84.8,545.5 84.4,546.3 83.9,547.4 C108.6,548.5 132.3,535.4 154.5,526.2 C159,524.3 163.6,522.6 168.1,521 C155.1,514.8 141.3,510.6 128.8,503.3 C121.9,499.3 115.9,494.8 110.7,489.2 C108.7,487 106.7,484.7 104.9,482.2 C96.2,470 123.9,469.8 129.9,469.4 C134,469.1 138.4,469 142.5,469.9 C146.9,470.9 150.8,473.2 154.7,475.2 C162.2,479.1 168.2,479.9 176.4,477.9 C180.3,476.9 184.8,475.8 188.5,477.8 C191.1,479.2 192.9,482 194.7,484.2 C195.5,485.2 196.3,486.1 197,487.1 C198,488.4 198.7,489.7 199,491.5 C199.5,494.7 198.9,498 199.6,501.1 C200.1,501.6 200.7,502.1 201.1,502.3 C202.8,503.5 204.6,504.5 206.4,505.4 C208.2,506.3 209.2,508.6 210.4,510.6 C221.2,509 232.1,508.2 243.2,508.1 C243.8,508.1 245.4,510 246.3,511 C247.3,506.6 248.3,502.2 249.3,497.9 C244.2,494.9 239.5,491.3 235.3,486.9 C235,486.6 235,482.2 235.3,481.9 C246.7,470.2 252.7,455.1 259.3,440.4 C266.4,424.6 275.3,411.1 289.3,400.4 C290.3,399.6 291.4,398.8 292.5,398 C293.6,396.7 294.7,395.3 295.5,393.7 C295.5,393 295.6,392.4 295.7,392.3 C296.8,390.7 298,388.7 299.2,386.6 C299.2,386.6 299.2,386.5 299.3,386.5 C302.7,380 306.6,373.5 309.7,366.8 L307.4,317.9 C307.2,317.5 307,317.1 306.8,316.7 C300.8,305.2 293.1,294.8 285.7,284.3 C285.3,285.1 284.9,286 284.7,286.6 C284.6,286.9 285.1,286.3 285.3,286.1 C284.5,287.6 284.6,287.8 285.1,287.2 C284.9,287.6 284.8,287.9 284.8,287.9 C284.9,287.9 285.1,287.7 285.1,287.6 C283.3,291.6 281.5,296.1 279.6,299.9 C279.2,300.7 278.5,302.1 278,303 C277.8,303.5 277.4,304.5 277.2,304.9 C276.8,305.5 276.7,305.3 276.4,305.6 C275.3,308.5 272.9,314.9 272.4,314.5 C271.4,316.9 271,317.2 270,319.7 C268.6,322.9 266.9,327 265.1,331.1 C264.1,333.3 263.2,335.4 262.3,337.6 C262,338.4 261.6,339.2 261.3,339.9 C257.8,347.9 254.7,354.8 251.3,361.6 C247.9,368.3 244.2,374.9 239.3,381.9 C234.4,388.9 228.7,395.8 222.6,401.7 C216.5,407.6 209.8,412.6 203.3,416.2 C196.8,419.9 190.5,422.2 185.5,423.8 C182.9,424.5 180.7,425.2 178.8,425.6 C177.6,425.9 176.6,426.1 175.7,426.3 C176.5,426.6 177.2,426.8 177.3,426.6 C175.9,428.6 174,430 171.8,431 C167.4,438 162,447 153.2,446.3 C146.3,445.8 141,441 135.5,436.7 C135.4,436.7 135.3,436.7 135.2,436.8 C134.4,437 133.6,436.1 134,435.6 C130.6,433 127.1,430.7 123.1,429.8 C120.7,430 118.4,430.2 116,430.1 C112.2,430.1 102.5,430.1 102,424.5 C101.5,419.3 112.5,418.7 115.8,418.3 C116.5,418.2 117.1,418.1 117.8,418.1 C117.3,417.9 116.8,417.5 117.1,417.1 C119.3,413.6 121.2,409 125.3,407.4 C125.8,407.2 126.6,407.6 126.8,408 C136.3,408.6 145.9,408.7 155.4,407.9 C164.1,407.2 174.5,406.8 182.3,402.6 C182.4,402.5 182.6,402.5 182.8,402.6 C185.2,400.2 188,397.7 190.6,394.7 C192,393.2 193.5,391.7 194.8,390.1 C196.1,388.5 197.5,387 198.7,385.5 C201,382.4 203.2,379.7 204.6,377.5 C202.9,380.1 200.6,382.9 198,386.3 C199.5,384.1 201,381.9 202.3,380 C203.6,378 204.7,376.1 205.6,374.5 C207.1,372.3 208.5,370 210,367.7 C216.3,357.3 221.3,346.7 225.7,335.6 C226.5,333.6 227.7,330.4 228.9,327.1 C230.1,323.9 231.1,320.6 231.8,318.6 C226.1,335.2 219.3,351.5 210.3,366.5 C210.5,366.1 210.8,365.7 211,365.2 C215.7,357.2 219.7,348.9 223.2,340.4 C223.8,339.1 224.3,337.7 224.8,336.4 L223.2,340.4 C222.3,342.3 221.5,344.1 220.7,346 C219.8,347.9 218.8,349.7 217.9,351.7 C217.6,352.3 217.3,353 217,353.6 C216.7,354.2 216.3,354.9 216,355.6 C215.3,356.9 214.7,358.2 214,359.5 C213,361.5 212,363.3 211,365.2 L210,367 L208.9,368.7 C208.7,369 208.4,369.4 208.2,369.7 C208.9,368.1 213.5,359.8 217.5,350.8 C221.5,341.9 225.1,332.4 226.2,329.8 C228,325.6 230,321.8 231.7,317 C232.3,315.4 232.6,314 233.1,312.8 C233.2,312.7 233.5,312.1 233.8,311.5 C234.9,308.3 235.6,304.9 236.6,302.5 C237.3,300.8 237,295.5 237.4,295.2 C238.7,294.1 237.8,294.9 238.6,290.7 C238.7,290.2 239.5,288.6 239.6,287.6 C240,284.1 240.6,283.1 241.4,279.1 C242.8,273.2 242.3,271.8 243.9,266.6 C244.1,265.9 246,257.7 246,257.7 C247.1,251.2 248.5,247.3 249,242.1 C250,239.3 250.9,235.9 251.8,232.5 C252.3,230.8 252.7,229.1 253.3,227.4 C253.6,226.6 253.8,225.7 254.1,225 C254.4,224.2 254.7,223.4 255,222.7 C256.2,219.8 257.1,217.6 257.9,215.6 C258.1,215.1 258.3,214.6 258.5,214.1 C258.7,213.6 258.9,213.1 259.2,212.6 C259.7,211.5 260.1,210.4 260.8,209.1 C261.6,207.7 262.3,206.7 262.7,205.8 C262.8,205.6 262.9,205.4 263.1,205.1 C256.6,202.2 250.9,193.7 252.9,186.8 C256.3,175.2 272.1,178.9 280.6,184.9 C282.6,181.1 281.4,176.3 281.6,172 C281.9,167.5 283.2,161.3 286.7,158.2 C291.6,153.8 297.4,163.2 300.5,165.9 C300.5,165.9 300.6,165.9 300.6,166 C304,156.3 305.3,146 307.5,136 L306.9,133.7 C301.1,135.3 294.6,135.9 288.4,135.3 C288,140.7 288,146.2 288.3,151.5 C288.3,150.7 285.3,148.5 284.8,148 C284.1,147.3 281.4,145.4 281.4,144.4 C281.2,141 281.1,137.6 281.2,134.1 C274.5,132.4 268.4,129.2 263.8,124.1 C259.7,119.5 257.2,113.6 254.8,108 C252,101.4 249.8,94.5 248.7,87.5 C247,77.2 248.2,67.7 251.5,58.5 C248.4,58 245.5,57 242.9,55.5 C233.9,50.4 226.5,38.1 232,28.1 C232.4,27.3 233.8,27.3 234.9,27.8 C235.6,23.4 237.6,19.2 240.5,15.8 C246.2,9.2 255,6.9 263.5,7.7 C268.7,8.2 272.9,10 276,12.6 C285.7,7.8 295.9,4.2 306.6,2.4 C317,0.7 328.5,-0.6 338.8,1.8 C346.1,3.5 353.2,6.2 359.8,9.8 C362.3,9.5 364.8,9.5 367.4,9.6 C369.7,9.7 371.9,9.9 374,10.1 C384,11.1 393.7,15.8 401.7,21.5 C409.5,27 416.5,34.1 417.9,44 C419.5,55.7 415.3,67.9 421.3,78.8 C421.1,78.5 416.5,78.8 416.3,78.8 C413.3,78.8 410.4,78.8 407.4,78.8 C416.6,87.4 415.9,105.7 403.8,112 C407,114.6 410.9,116.9 411,120.8 C411.1,124.4 406.8,127.1 403.1,128.1 C403.3,128.2 403.4,128.4 403.4,128.6 C403.4,132.2 403.4,135.7 403.4,139.3 C403.4,139.4 403.4,139.4 403.4,139.5 C403.5,141.1 401.2,141.6 398,141.5 C398,151.9 397.2,162.4 385.7,165.5 C375.8,168.2 363.7,166.9 354.1,162.4 L354.1,162.5 C352.7,163.8 351.5,165.2 350.3,166.6 C350.4,166.7 350.6,166.8 350.7,166.9 C351,167.1 351.4,167.5 351.8,167.9 C352.3,168.4 352.9,169.1 353.3,169.7 C361.3,171.3 369,174.8 375.1,180 L378.7,178.3 C379.4,180.2 380.6,182.3 382.2,184.6 C385,186.8 388.1,190 390.2,194.4 C399.2,204.3 410,213.8 410,213.8 C421.6,225.2 424,245.2 424,245.2 C424.6,247.2 425.1,249.3 425.5,251.5 C424.9,243 422.8,233.9 419,226 C416.7,221.2 413.8,216.9 410.3,213.4 C410.9,214 412.6,213.5 413.2,214.2 C416.5,217.5 419.3,221.5 421.5,226 C438.8,249.5 463.1,268.1 489.8,279.8 C513.5,290.2 540.4,295.3 565.8,289.4 C563,289.4 560.2,289.4 557.4,289.4 C557.4,289.8 557.4,289.7 557.4,289.4 C557,289.4 556.6,289.4 556.2,289.4 C555.4,289.4 554.5,285 553.8,285 C554.2,285 554.6,285 555,285 L555,207.3 L557.2,207.3 C557.2,204.4 557.2,201.5 557.2,198.6 C557.2,197.7 557.2,199.4 557.2,199.5 C557.2,200.6 557.2,201.8 557.2,202.9 C557.2,204.4 557.2,205.8 557.2,207.3 L704,207.3 L704,285 C706,285 707.9,285 709.9,285 C710.7,285 711.5,289.4 712.3,289.4 C699.8,289.4 687.2,289.4 674.7,289.4 C674.7,289.7 674.4,290 673.8,290.1 C666,291.6 659.8,294.8 653,298.8 C648.5,301.5 644.2,302.5 639,302.2 C623.4,301.2 607.6,295.3 592.6,302.6 C592.1,302.8 591.4,302.7 590.9,302.3 C580,306.3 569,308.7 557.5,310.5 C539,313.5 520.3,314.9 501.7,312.9 C475.4,310.1 443.6,305.6 423.9,286.2 C423.7,287 423.5,287.8 423.3,288.7 C423.3,288.8 423.3,288.8 423.3,288.9 C422.6,292.2 421.8,295.4 421.1,298.3 C420.4,301.6 419.8,304.9 419.2,308.2 C419.4,308.3 419.5,308.3 419.6,308.4 C419.8,308.4 420,308.5 420.2,308.5 C420.1,308.5 420,308.5 419.9,308.6 C422.4,310.8 420.8,318.6 420.7,320.8 C420.7,320.8 420.5,320.7 420.2,320.6 C421.1,337 425.6,353.2 428.3,369.3 C428.4,369.8 428.5,370.3 428.6,370.8 C429.2,370.6 429.9,370.3 430.6,370 C430.3,370.1 430.5,371.1 430.6,372.3 C430.6,371.5 430.6,370.7 430.6,370.1 C430.8,374.3 431.5,378.3 431.7,382.4 C431.7,382.3 431.7,382.3 431.7,382.2 C431.7,382.4 431.7,382.6 431.7,382.8 C431.7,383.4 431.7,383.9 431.8,384.5 C432.1,384.4 432.3,384.3 432.6,384.2 C432.4,384.3 432.4,385.1 432.5,386 C445.8,409.3 453.3,435.2 462.4,460.3 C464.7,466.8 467.2,473.3 469.9,479.7 C471.9,484.4 474.7,489 476.4,493.8 C477,495.6 477.4,497.5 477.3,499.4 C477.2,502.6 476,505.8 473.5,508.1 C469.1,512.3 462.3,514.1 456.7,516.3 C450.5,518.7 444.5,521.3 438,522.9 C433.5,524 429,524.8 424.5,525.3 C425.3,525.9 425.9,526.5 425.8,526.9 C423.8,540.4 417.5,553.3 410.4,564.8 C402.5,577.6 392.8,589.9 380.8,599 C370.2,607.1 358.9,610.6 345.6,608.8 C329.9,606.7 314.7,600.3 300.6,593.3 C285.5,585.9 271,577.2 256.9,568.1 C256.7,568 256.5,567.9 256.4,567.7 C254.3,568.5 252.2,569.2 250.1,569.8 C216.9,580.1 181.6,579.4 147.2,580.1 C127.7,580.5 108.2,581.2 88.9,584.2 C88.7,584.4 88.6,584.5 88.4,584.5 C77.4,585.2 66.2,590.5 55.9,593.8 C43.1,597.9 29.5,602.8 15.9,603.2 C11.9,603.3 7,603.2 3.9,600.3 C0.2,596.8 0.5,590.5 2.2,586.2 Z M418.2,315.1 C418.3,313.7 418.4,312.3 418.3,311.1 C418,311 417.6,310.9 417.2,310.8 L418.1,317.2 C418.1,316.8 418.2,316.3 418.2,315.8 C418.2,315.6 418.2,315.4 418.2,315.1 C418.2,315.2 418.2,315.2 418.2,315.1 Z M337.6,547.5 C337.8,547.6 337.9,547.7 338,547.8 C342.6,539.7 344.6,530.3 346.3,521.1 C339.5,520.2 332.7,519.1 325.9,517.9 C317.9,522.8 311.2,529.9 304.5,536.8 C314.7,542.6 327.7,541.1 337.6,547.5 Z M282.4,186.5 C282.7,186.7 283,187 283.2,187.3 C283.4,187.2 283.6,187.1 283.8,187 L282.4,186.5 Z M213.7,408.4 C218.5,404.7 222.9,400.5 226.9,396 C225.8,397.1 224.8,398.3 223.6,399.4 C222.4,400.5 221.3,401.6 220,402.8 C219.2,403.5 218.3,404.3 217.5,405 C216.6,405.8 215.8,406.5 215,407.2 C213.6,408.2 212.4,409.3 211.1,410.3 C212,409.7 212.8,409 213.7,408.4 Z M208.7,412.7 C208.8,412.6 208.9,412.6 208.9,412.5 C208.7,412.6 208.4,412.9 207.8,413.3 C206.8,414 205,415 202.9,416.3 C205.4,414.8 207.3,413.7 208.7,412.7 Z M201.7,416.9 C200.9,417.3 200,417.8 199,418.2 C198.6,418.4 198.1,418.7 197.6,418.9 C199.1,418.2 200.5,417.5 201.7,416.9 Z M143.3,430.1 C143.4,430.1 143.5,430.1 143.6,430.1 C142.7,429.9 141.6,429.9 143.3,430.1 Z M209,370.9 C208.5,371.7 207.9,372.6 207.2,373.8 C206.6,374.8 205.8,375.9 205,377.1 C206,375.7 206.9,374.4 207.6,373.3 C208.4,372 209.1,370.8 209.7,369.8 C210.2,368.9 209.9,369.4 209,370.9 Z M426.2,367 C425,359.9 423.4,352.8 422,345.7 L425.6,371.7 C426.1,371.6 426.5,371.4 426.9,371.2 C426.7,369.8 426.4,368.4 426.2,367 Z M5.6,581.7 C5.6,581.5 5.6,581.2 5.7,580.9 C6,580.6 6.4,580.2 6.7,579.8 C7.1,578.2 6,577.6 5.8,580 C5.8,580.3 5.7,580.6 5.7,580.8 C5.5,581 5.3,581.2 5.1,581.4 C4.8,581.7 4.3,582.7 3.9,583 C4.6,582.6 5.2,582.2 5.6,581.7 Z" id="Shape"></path>
                        <path d="M709.1,282.1 C709.1,255.4 709.1,228.6 709.1,201.9 C659.9,201.9 610.7,201.9 561.5,201.9 C561,201.9 560.6,197.1 560.2,197.1 C611.1,197.1 662,197.1 712.9,197.1 C713.4,197.1 713.8,201.9 714.2,201.9 C713.9,201.9 713.5,201.9 713.2,201.9 C713.2,202 713.3,202 713.3,202.1 C713.3,229.7 713.3,257.3 713.3,285 C713.2,284 709.1,283.1 709.1,282.1 Z" id="Shape_1_" stroke="#6DCFF6" stroke-width="0.025"></path>
                    </g>
                </g>
                <g id="Layer_1_1_" transform="translate(1.000000, 0.000000)">
                    <g id="Group_1_" opacity="0.35" transform="translate(397.000000, 74.000000)" fill="#188E44" fill-rule="nonzero">
                        <path d="M4.5,29.9 C6.5,29.2 8.4,27.3 8.1,25.1 C7.5,20.6 7,16.2 5.9,11.8 C5.6,10.5 4.9,9.6 4,9 C4.1,8.3 4.1,7.5 3.9,6.8 C3.7,6 3.2,5.2 2.6,4.6 L2.5,4.5 C1.8,4 1.3,3.3 0.7,2.7 L0.6,0.8 C8.2,1.6 13.1,10.5 14,17.4 C15.1,25.8 11.4,34.8 3.1,37.9 L2.7,32.2 C3,31.9 3.3,31.5 3.6,31.2 C4,30.8 4.3,30.4 4.5,29.9 Z" id="Shape_2_"></path>
                    </g>
                    <g id="Group_2_">
                        <g id="Shape_3_" opacity="0.27" transform="translate(337.000000, 165.000000)" fill-rule="nonzero">
                            <g id="Group" opacity="0.85">
                                <g id="Shape" opacity="0.9">
                                    <g>
                                        <path d="M7.5,9.6 C7.6,9.8 7.8,10 8,10.3 L7.8,10.5 L7.7,10.6 C7.7,10.3 7.6,10 7.5,9.6 Z" fill="#EFE5D8"></path>
                                        <path d="M7,5.9 C7.4,6.7 7.1,7.2 7,7.8 C6.9,7.1 6.8,6.4 7,5.9 Z" fill="#EFE5D8"></path>
                                        <path d="M12.1,9 C12.2,9.1 12.2,9.2 12.3,9.4 L11.6,9.6 L11.5,9.3 C11.7,9.2 11.9,9.1 12.1,9 Z" fill="#EFE5D8"></path>
                                        <path d="M8.7,10.7 C9.6,10.2 8.6,7.2 10.8,8.1 C11,8.5 11.2,8.9 11.3,9.3 C10.9,9.5 10.5,9.8 10.1,10.1 C9.9,10.3 9.6,10.5 9.5,10.7 C9.3,10.9 9.2,11.1 9.1,11.3 C8.7,10.9 8.3,10.5 8,10.2 C8.1,10 8.3,9.9 8.4,9.7 C8.5,10.2 8.6,10.5 8.7,10.7 Z" fill="#EFE5D8"></path>
                                        <path d="M11.4,9.7 C10.9,9.8 10.5,10 10.1,10.3 C10.5,10 10.9,9.7 11.3,9.5 C11.4,9.5 11.4,9.6 11.4,9.7 Z" fill="#EFE5D8"></path>
                                        <path d="M7.5,7.4 C7.4,7.9 8,9 8.4,9.8 C8.3,10 8.2,10.1 8,10.3 C7.8,10.1 7.6,9.8 7.5,9.6 C7.2,8.7 6.9,7.6 7.5,7.4 Z" fill="#EFE5D8"></path>
                                        <path d="M7,7.9 C7.1,8.3 7.2,8.8 7.3,9.3 C7,8.7 6.9,8.2 7,7.9 Z" fill="#EFE5D8"></path>
                                        <path d="M9.5,10.8 C9.7,10.6 9.9,10.4 10.1,10.2 C9.9,10.4 9.7,10.6 9.5,10.8 Z" fill="#EFE5D8"></path>
                                        <path d="M12.8,8.7 C12.8,8.8 12.8,8.9 12.8,9 C12.7,9.1 12.6,9.2 12.5,9.3 L12.4,9.3 L12.3,9.3 C12.2,9.2 12.2,9 12.1,8.9 L12.8,8.7 Z" fill="#EFE5D8"></path>
                                        <path d="M11.3,5.6 C11.4,5.7 11.4,5.8 11.4,5.9 C11.3,6 11.2,6.1 11.1,6.2 C11.2,6 11.2,5.8 11.3,5.6 Z" fill="#EFE5D8"></path>
                                        <path d="M9.2,11.6 C9.1,11.5 9.1,11.5 9,11.4 C9.1,11.2 9.3,11 9.4,10.8 C9.3,11 9.2,11.3 9.2,11.6 Z" fill="#EFE5D8"></path>
                                        <path d="M11.5,5.9 C12,5.5 12.5,5.2 13.1,5 C13.1,5.8 13.1,6.6 12.9,7.2 C12.8,7.5 12.8,8 12.8,8.6 L12.1,8.9 C11.5,7.7 12.2,7.5 11.5,5.9 Z" fill="#EFE5D8"></path>
                                        <path d="M11.5,9.3 L11.3,9.4 C11.2,9 11,8.6 10.8,8.2 C8.5,7.2 9.6,10.2 8.7,10.8 C8.7,10.6 8.5,10.2 8.4,9.9 C9.3,8.7 10.1,7.3 11.1,6.3 C11,7 11.2,8.1 11.5,9.3 Z" fill="#EFE5D8"></path>
                                        <path d="M12.1,9 C11.9,9.1 11.7,9.2 11.5,9.3 C11.2,8.1 11,7 11.1,6.2 C11.2,6.1 11.3,6 11.4,5.9 C12.2,7.5 11.5,7.7 12.1,9 Z" fill="#EFE5D8"></path>
                                        <path d="M11.5,9.3 L11.6,9.6 L11.4,9.6 C11.4,9.5 11.3,9.4 11.3,9.3 L11.5,9.3 Z" fill="#EFE5D8"></path>
                                        <path d="M7.7,10.7 L7.8,10.5 L8,10.3 C8.3,10.6 8.6,11 9.1,11.4 C8.8,11.9 8.6,12.4 8.5,13 C8.4,13 8.2,12.9 8.1,12.9 C8,12.3 7.9,11.6 7.7,10.7 Z" fill="#EFE5D8"></path>
                                        <polygon fill="#EFE5D8" points="11.6 9.6 11.7 9.8 11.6 9.9 11.5 9.6 11.6 9.6"></polygon>
                                        <polygon fill="#EFE5D8" points="12.4 9.3 12.3 9.4 12.3 9.4"></polygon>
                                        <path d="M12.3,9.4 C12.1,9.5 11.8,9.7 11.6,9.9 L11.5,9.7 L12.3,9.4 Z" fill="#EFE5D8"></path>
                                        <path d="M9.2,11.6 C9.3,11.3 9.4,11.1 9.5,10.8 C9.7,10.6 9.9,10.4 10.1,10.2 C10.5,9.9 10.9,9.8 11.4,9.6 L11.5,9.9 C11.3,10.1 11.1,10.4 11,10.8 C10.4,11.3 9.7,11.5 9.5,12.4 C9.3,12.6 9.1,13 8.4,12.9 C8.5,12.3 8.7,11.8 9,11.3 C9.1,11.5 9.1,11.5 9.2,11.6 Z" fill="#EFE5D8"></path>
                                        <path d="M4.3,12.4 C5.1,11.8 6.1,11.6 7,11.1 C7.2,11.9 7.6,12.8 7.9,13.6 C7.9,13.7 7.8,13.8 7.7,13.8 C7.3,13.6 7,13.4 7,13.5 C7,13.7 7.1,13.8 7.1,14 C6.5,14.1 5.6,13.9 4.2,13.4 L4.3,12.4 Z" fill="#EFE5D8"></path>
                                        <path d="M7.9,13.4 C8,13.6 8.1,13.9 8.2,14.1 C8.2,14.1 8.1,14 8,14 L7.8,13.6 C7.9,13.5 7.9,13.5 7.9,13.4 Z" fill="#EFE5D8"></path>
                                        <path d="M4.2,13.9 L4.2,13.4 C5.6,13.9 6.5,14.1 7.1,14 C7.2,14.5 7.3,15 7.2,15.3 C6.8,15.3 5,14 5.1,14.3 C5.3,14.8 5.6,15.5 5.8,16 C5.9,16.5 5.7,16.7 4.7,16.5 C3.5,16.9 2.6,17.5 0.4,18 C1.2,17 2,16.3 2.7,15.7 C3.3,15.2 3.9,14.6 4.2,13.9 Z" fill="#EFE5D8"></path>
                                        <path d="M8,14 C7.9,13.9 7.8,13.9 7.6,13.8 C7.7,13.7 7.7,13.7 7.8,13.6 L8,14 Z" fill="#EFE5D8"></path>
                                        <path d="M12.8,8.7 L13.2,8.5 C13.1,8.7 13,8.9 12.8,9 C12.8,8.9 12.8,8.8 12.8,8.7 Z" fill="#EFE5D8"></path>
                                        <path d="M7.6,10.7 C7.7,10.8 7.7,10.8 7.7,10.8 C7.6,10.8 7.6,10.8 7.6,10.7 Z" fill="#EFE5D8"></path>
                                        <path d="M6.5,8.1 C6.6,8.8 6.9,9.6 7.6,10.7 C7.4,10.9 7.2,11 7,11.1 C6.6,10 6.4,8.9 6.5,8.1 Z" fill="#EFE5D8"></path>
                                        <path d="M7.6,10.8 C7.6,10.8 7.7,10.8 7.6,10.8 C7.8,11.5 8,12.3 8,12.9 L7.9,12.9 C7.7,12.9 7.8,13.2 7.9,13.5 C7.9,13.6 7.9,13.6 7.8,13.7 C7.4,12.9 7.1,12 6.9,11.2 C7.1,11.1 7.3,11 7.6,10.8 C7.6,10.8 7.6,10.8 7.6,10.8 Z" fill="#EFE5D8"></path>
                                        <path d="M7.3,9.3 C7.4,9.4 7.4,9.5 7.5,9.6 C7.6,10 7.7,10.3 7.7,10.6 C7.5,10.2 7.4,9.7 7.3,9.3 Z" fill="#EFE5D8"></path>
                                        <path d="M7.7,10.6 C7.6,10.7 7.6,10.7 7.7,10.6 Z" fill="#EFE5D8"></path>
                                        <path d="M11.5,5.9 C11.5,5.8 11.4,5.7 11.4,5.6 C11.3,5.8 11.3,6 11.2,6.2 C10.1,7.2 9.4,8.6 8.5,9.8 C8.1,8.9 7.6,7.9 7.6,7.4 C7,7.6 7.3,8.7 7.6,9.6 C7.5,9.5 7.5,9.4 7.4,9.3 C7.3,8.8 7.2,8.3 7.1,7.9 C7.2,7.3 7.5,6.8 7.1,6 C6.9,6.5 7,7.2 7.1,7.9 C7.1,8.3 7.1,8.7 7.4,9.3 C7.5,9.8 7.6,10.2 7.7,10.7 L7.6,10.8 C6.9,9.7 6.6,8.9 6.5,8.2 C6.4,9.1 6.6,10.1 7,11.2 C6.1,11.6 5.1,11.9 4.3,12.5 C4.4,10.8 4.6,9 5.6,7.9 C5.5,7.4 5.9,7.3 6.2,7.2 C6.9,7.3 6,5.7 6.8,5.8 C9.4,5.8 10.3,4.1 10.2,1.1 C10.2,0.6 11.3,1.3 12.4,2.1 C12.7,2.3 13.1,2.6 13.5,3 C13.1,3.5 13.1,4.4 13,5.3 C12.4,5.3 11.9,5.6 11.5,5.9 Z" fill="#EFE5D8"></path>
                                        <path d="M12.9,7.3 C13.1,6.7 13,5.9 13.1,5.1 C13.7,4.9 14.5,4.8 15.4,4.9 C15.8,5.4 16.1,5.8 16.2,6.1 C17.7,8.3 15.2,6 14.8,6.2 C14.1,6.7 13.7,7.7 13.3,8.6 L12.9,8.8 C12.7,8.1 12.7,7.7 12.9,7.3 Z" fill="#EFE5D8"></path>
                                        <path d="M13.5,2.8 C14.1,3.4 14.8,4.2 15.3,4.9 C14.4,4.8 13.7,4.9 13,5.1 C13,4.2 13.1,3.3 13.5,2.8 Z" fill="#EFE5D8"></path>
                                        <path d="M9.5,10.8 C9.7,10.6 9.9,10.4 10.1,10.2 C9.9,10.4 9.7,10.6 9.5,10.8 Z" fill="#E2CDB4"></path>
                                        <path d="M12.8,9 C12.7,9.1 12.6,9.2 12.5,9.3 L12.4,9.2 C12.4,9.1 12.4,9.1 12.4,9 C12.3,9 12.3,9 12.2,9 L12.9,8.7 L12.8,9 Z" fill="#E2CDB4"></path>
                                        <polygon fill="#E2CDB4" points="8.5 13 8.4 12.9 8.4 12.9"></polygon>
                                        <path d="M8.7,12.9 C8.6,12.8 8.5,12.8 8.4,12.7 L8.4,12.6 C8.6,12.7 8.6,12.8 8.7,12.9 Z" fill="#E2CDB4"></path>
                                        <path d="M11.3,5.6 C11.4,5.7 11.4,5.8 11.4,5.9 C11.3,6 11.2,6.1 11.1,6.2 C11.2,6 11.2,5.8 11.3,5.6 Z" fill="#E2CDB4"></path>
                                        <path d="M9.2,11.6 C9.3,11.3 9.4,11.1 9.5,10.8 C9.7,10.6 9.9,10.4 10.1,10.2 C10.5,9.9 10.9,9.8 11.4,9.6 L11.4,9.7 C11.3,9.7 11.2,9.7 11.1,9.7 L11.3,9.8 L11.3,9.9 C11.2,10 11.1,10.2 11,10.4 C10.9,10.4 10.8,10.5 10.9,10.7 C10.6,11 10.3,11.1 10,11.3 C9.9,11.2 9.8,11.1 9.7,11 C9.7,11.1 9.8,11.3 9.8,11.4 C9.7,11.5 9.6,11.7 9.5,11.9 C9.3,11.8 9.1,11.4 8.9,11.3 L9,11.2 C9.1,11.5 9.1,11.5 9.2,11.6 Z" fill="#E2CDB4"></path>
                                        <polygon fill="#E2CDB4" points="11.6 9.6 11.6 9.8 11.5 9.8 11.5 9.7"></polygon>
                                        <path d="M8,12.3 C7.9,11.8 7.8,11.3 7.7,10.8 L7.7,10.7 L7.8,10.6 L8,10.4 C8.3,10.7 8.6,11.1 9.1,11.5 L9,11.6 C8.9,11.6 8.9,11.6 8.9,11.7 C8.7,12 8.6,12.3 8.5,12.6 C8.4,12.6 8.4,12.6 8.5,12.7 L8.5,12.8 C8.3,12.5 8.1,12.3 8,12.3 Z" fill="#E2CDB4"></path>
                                        <path d="M4.2,12.4 C5,11.8 6.1,11.6 6.9,11.1 C7.1,11.7 7.3,12.3 7.6,13 C7.6,13 7.6,13 7.6,13.1 L7.7,13.1 L7.8,13.3 C7.6,13.2 7.5,13 7.2,12.8 C7.5,13.1 7.1,13.1 7.8,13.6 L7.9,13.7 L7.8,13.8 C7.4,13.6 7,13.4 7.1,13.5 L7.1,13.6 C7.1,13.6 7.1,13.7 7.2,13.8 C6.5,13.3 6.2,12.8 6,12.7 C5.4,12.6 6.2,13.3 7.2,14.1 C6.6,14.2 5.7,13.9 4.3,13.4 L4.2,12.4 Z" fill="#E6D4BE"></path>
                                        <path d="M3.5,14.5 C3.9,14.4 4.1,14.2 4.2,13.9 L4.2,13.4 C5.6,13.9 6.5,14.1 7.1,14.1 C7.1,14.1 7.2,14.1 7.2,14.2 C7.3,14.7 7.4,15.1 7.2,15.4 C6.8,15.4 6.2,15.2 6.3,15.5 C6.7,16.5 5.9,16.4 3.9,15.9 C3.7,16.3 3.4,16.7 2.9,17 C2.5,17.3 1.8,17.5 0.8,17.8 C1.3,17.2 1.6,16.6 2,16 C2.3,15.3 2.7,14.7 3.5,14.5 Z" fill="#E5D3BD"></path>
                                        <path d="M7.9,13.7 L8,13.9 C7.9,13.9 7.8,13.8 7.7,13.7 C7.8,13.8 7.8,13.7 7.9,13.7 Z" fill="#E2CDB4"></path>
                                        <path d="M9.5,12.4 C9.3,12.4 9.3,12.5 9.3,12.6 C9.2,12.7 9.2,12.7 9.1,12.8 L9,12.7 C9,12.7 9,12.7 9.1,12.8 L9,12.9 C8.9,12.8 8.8,12.7 8.7,12.7 C8.6,12.6 8.6,12.6 8.5,12.6 C8.6,12.3 8.7,12 8.9,11.7 C9,11.8 9.3,12.1 9.5,12.4 Z" fill="#E2CDB4"></path>
                                        <path d="M8,12.4 C8.1,12.5 8.3,12.7 8.5,12.9 C8.4,12.9 8.2,12.9 8.1,12.8 C8,12.7 8,12.6 8,12.4 Z" fill="#E2CDB4"></path>
                                        <path d="M8.1,13.8 C8.1,13.9 8.2,14 8.2,14.1 C8.1,14.1 8.1,14 8,14 L7.9,13.8 C8,13.7 8,13.8 8.1,13.8 Z" fill="#E2CDB4"></path>
                                        <path d="M9.2,11.6 C9.1,11.5 9.1,11.5 9,11.4 C9.1,11.2 9.3,11 9.4,10.8 C9.3,11 9.2,11.3 9.2,11.6 Z" fill="#E2CDB4"></path>
                                        <path d="M11.1,6.2 C11.2,6.1 11.3,6 11.4,5.9 C12.1,7.5 11.5,7.7 12,8.9 C11.9,8.9 11.8,8.8 11.7,8.7 C11.9,8.8 11.9,8.9 12,8.9 C11.8,9 11.6,9.1 11.4,9.2 C11.2,8.1 11,7 11.1,6.2 Z" fill="#E2CDB4"></path>
                                        <path d="M11.5,5.9 C11.5,5.8 11.4,5.7 11.4,5.6 C11.3,5.8 11.3,6 11.2,6.2 C10.1,7.2 9.4,8.6 8.5,9.8 C8.1,8.9 7.6,7.9 7.6,7.4 C7,7.6 7.3,8.7 7.6,9.6 C7.5,9.5 7.5,9.4 7.4,9.3 C7.3,8.8 7.2,8.3 7.1,7.9 C7.2,7.4 7.4,6.9 7.2,6.4 C7.3,6 7.5,5.7 7.9,5.7 C8,5.7 8.2,5.8 8.2,5.7 C8.3,5.7 8.4,5.7 8.5,5.6 C8.8,5.8 8.8,5.6 9,5.6 C9.3,5.7 9.3,5.4 9.2,5 L9.3,5 C9.4,5.1 9.5,4.9 9.3,4.6 C9.4,4.5 9.4,4.4 9.5,4.4 C9.5,4.4 9.5,4.4 9.5,4.3 C9.5,4.2 9.6,4.1 9.6,4.1 C9.7,4.2 9.7,4.1 9.7,4 C10.1,3.2 10.2,2.2 10.2,0.9 C10.2,0.4 11.3,1.1 12.4,1.9 C12.7,2.1 13.1,2.5 13.5,2.9 C13.1,3.4 13,4.3 13,5.2 C12.4,5.3 11.9,5.6 11.5,5.9 Z" fill="#EEE2D4"></path>
                                        <path d="M6.9,7.4 L6.7,7.2 C6.8,7.2 6.8,7.1 6.8,7 C6.9,7.2 6.9,7.3 6.9,7.4 Z" fill="#E2CDB4"></path>
                                        <path d="M11.5,9.3 C11.7,9.2 11.9,9.1 12.1,9 C12,9.1 12.1,9.2 12.1,9.4 L11.6,9.6 L11.5,9.3 Z" fill="#E2CDB4"></path>
                                        <path d="M7.3,9.3 C7.4,9.8 7.5,10.2 7.6,10.7 L7.5,10.8 C6.8,9.7 6.5,8.9 6.4,8.2 C6.3,9.1 6.5,10.1 6.9,11.2 C6,11.6 4.9,11.9 4.2,12.5 C4.2,11.5 4.3,10.5 4.6,9.6 C4.7,9.7 5,9.8 5.3,10.1 C4.2,8.1 6.2,8.9 6,7.7 C5.8,7.5 5.8,7.6 5.7,7.5 L5.9,7.3 C6.2,7.4 6.7,7.7 6.8,7.5 C6.8,7.6 6.8,7.8 6.9,7.9 C6.9,8.2 7,8.7 7.3,9.3 Z" fill="#E8D8C4"></path>
                                        <path d="M6.5,8.1 C6.6,8.8 6.9,9.6 7.6,10.7 C7.4,10.9 7.2,11 7,11.1 C6.6,10 6.4,8.9 6.5,8.1 Z" fill="#E2CDB4"></path>
                                        <path d="M7,7.9 C7,7.8 7,7.6 6.9,7.5 C6.9,7.4 6.9,7.3 6.9,7.2 C7,7 7.1,6.7 7.1,6.5 C7.3,6.9 7.1,7.3 7,7.9 Z" fill="#E2CDB4"></path>
                                        <path d="M12.8,9 L12.8,8.7 L13.1,8.6 C13,8.7 12.9,8.8 12.8,9 Z" fill="#E2CDB4"></path>
                                        <path d="M13,5.1 C13.7,4.9 14.4,4.8 15.3,4.9 C15.7,5.4 15.9,5.8 16.1,6 C16.7,6.9 16.6,7 16.3,6.9 C16.1,6.7 16.5,6.8 16.1,6.5 C15.7,6.2 15.4,6 15.4,6.2 L15.4,6.3 L15.3,6.3 C15.1,6.1 15,6 15.2,6.2 C15,6.1 15,7 14.9,7 L14.7,6 L14.5,5.9 L14.6,6 L14.5,6.1 C14.3,5.9 14,5.6 13.9,5.5 C13.9,5.4 13.9,5.4 13.9,5.3 C13.5,5 13.5,5.2 13.6,5.4 C14,5.8 14,5.6 14,5.6 L14,5.7 C14,5.6 14.2,5.7 14.4,6 C14.5,6.2 14.4,6.1 14.3,6.1 C14.3,6.1 14.4,6.2 14.5,6.3 L14.4,6.4 L14.3,6.3 L14.3,6.2 L14.3,6.3 C14.3,6.5 13.9,6 13.7,6 C13.9,6.1 14.1,6.4 14.2,6.6 C14.1,6.5 14,6.5 14,6.6 C13.8,6.5 13.6,6.3 13.4,6.2 C13.7,6.6 13.9,6.7 14,6.8 C14,6.9 14,7 14,7.1 C13.7,6.8 13.6,6.6 13.4,6.7 C13.6,6.9 13.8,7.1 13.9,7.3 L13.8,7.6 C13.8,7.6 13.7,7.6 13.7,7.5 C13.7,7.5 13.5,7.3 13.5,7.4 C13.6,7.5 13.6,7.5 13.7,7.5 C13.7,7.6 13.7,7.7 13.7,7.7 L13.5,8.2 L13.4,8.1 C13.4,8.1 13.4,8.1 13.4,8 C13.4,8 13.4,8 13.4,8.1 C13.5,8.3 13,7.8 13.2,8.2 L13.2,8.1 C13.4,8.5 13.1,8.3 12.8,8.2 C12.8,7.9 12.8,7.6 12.9,7.4 C13,6.7 13,5.9 13,5.1 Z" fill="#EBDECD"></path>
                                        <path d="M12.7,8.2 C12.8,8.2 12.8,8.3 12.9,8.3 C12.9,8.4 13,8.4 13,8.5 L12.7,8.6 C12.7,8.5 12.7,8.4 12.7,8.2 Z" fill="#E2CDB4"></path>
                                        <path d="M12.1,9 C11.6,7.7 12.2,7.5 11.5,5.9 C12,5.5 12.5,5.2 13.1,5 C13.1,5.8 13.1,6.6 12.9,7.2 C12.8,7.4 12.8,7.7 12.8,8 C12.7,8 12.6,8 12.6,8 C12.7,8 12.7,8.1 12.8,8.1 C12.8,8.3 12.8,8.4 12.8,8.6 L12.1,9 Z" fill="#E7D6C1"></path>
                                        <path d="M13.5,2.8 C14.1,3.4 14.8,4.3 15.3,4.9 C14.4,4.8 13.6,4.9 13,5.1 C13,4.2 13.1,3.3 13.5,2.8 Z" fill="#E5D3BD"></path>
                                        <path d="M7.6,10.8 C7.6,10.8 7.7,10.8 7.6,10.8 C7.7,11.3 7.9,11.8 7.9,12.2 C7.9,12.2 7.9,12.3 8,12.4 C8,12.6 8,12.7 8,12.8 L7.9,12.8 C7.8,12.8 7.8,12.8 7.8,12.9 C7.7,12.9 7.7,13 7.7,13 C7.4,12.4 7.2,11.7 7,11.1 C7.2,11 7.4,10.9 7.6,10.7 C7.6,10.8 7.6,10.8 7.6,10.8 Z" fill="#F3EBE2"></path>
                                        <path d="M7.7,10.6 C7.6,10.7 7.6,10.7 7.7,10.6 Z" fill="#E2CDB4"></path>
                                        <path d="M7.5,7.4 C7.4,7.9 8,9 8.4,9.8 C8.3,10 8.2,10.1 8,10.3 C7.8,10.1 7.6,9.8 7.5,9.6 C7.2,8.7 6.9,7.6 7.5,7.4 Z" fill="#E2CDB4"></path>
                                        <path d="M8.7,10.7 C9.6,10.2 8.6,7.2 10.8,8.1 C11,8.5 11.2,8.9 11.3,9.3 C10.9,9.5 10.5,9.8 10.1,10.1 C9.9,10.3 9.6,10.5 9.5,10.7 C9.3,10.9 9.2,11.1 9.1,11.3 C8.7,10.9 8.3,10.5 8,10.2 C8.1,10 8.3,9.9 8.4,9.7 C8.5,10.2 8.6,10.5 8.7,10.7 Z" fill="#E5D3BD"></path>
                                        <path d="M11.4,9.7 C10.9,9.8 10.5,10 10.1,10.3 C10.5,10 10.9,9.7 11.3,9.5 C11.4,9.5 11.4,9.6 11.4,9.7 Z" fill="#EDE1D2"></path>
                                        <path d="M12.1,9.4 C11.9,9.5 11.8,9.6 11.6,9.7 L11.6,9.5 L12.1,9.4 Z" fill="#E2CDB4"></path>
                                        <path d="M7,7.9 C7.1,8.3 7.2,8.8 7.3,9.3 C7,8.7 6.9,8.2 7,7.9 Z" fill="#EEE2D4"></path>
                                        <path d="M11.5,9.3 L11.6,9.6 L11.4,9.6 C11.4,9.5 11.3,9.4 11.3,9.3 L11.5,9.3 Z" fill="#E2CDB4"></path>
                                        <path d="M7.8,13.1 C7.8,13.2 7.9,13.3 7.9,13.3 C7.8,13.3 7.8,13.2 7.7,13.2 L7.6,13 C7.7,13.1 7.7,13.1 7.8,13.1 Z" fill="#E2CDB4"></path>
                                        <path d="M7.6,10.7 C7.7,10.8 7.7,10.8 7.7,10.8 C7.6,10.8 7.6,10.8 7.6,10.7 Z" fill="#E2CDB4"></path>
                                        <path d="M7.3,9.3 C7.4,9.4 7.4,9.5 7.5,9.6 C7.6,10 7.7,10.3 7.7,10.6 C7.5,10.2 7.4,9.7 7.3,9.3 Z" fill="#E2CDB4"></path>
                                        <path d="M7.5,9.6 C7.6,9.8 7.8,10 8,10.3 L7.8,10.5 L7.7,10.6 C7.7,10.3 7.6,10 7.5,9.6 Z" fill="#EDE1D2"></path>
                                        <path d="M10.8,8.2 C8.5,7.2 9.6,10.2 8.7,10.8 C8.7,10.6 8.5,10.2 8.4,9.9 C9.3,8.7 10.1,7.3 11.1,6.3 C11,7.1 11.1,8.2 11.5,9.4 L11.3,9.5 C11.2,9 11,8.6 10.8,8.2 Z" fill="#E2CDB4"></path>
                                    </g>
                                </g>
                            </g>
                        </g>
                        <path d="M286.6,187.6 C286.6,187.6 291.5,197.8 282.7,200.4 C282.7,200.4 302.5,274 299.8,297.3 C299.8,297.3 312.4,310.7 315.4,328.5 C315.4,328.5 323.9,358.9 299.8,390 C299.8,390 323.5,430.6 421.3,390 C421.3,390 426.8,388 426,380.5 C426,380.5 416.1,320.9 415.3,313 C415.3,313 431.1,271.7 422.8,245 C422.8,245 420.3,225 408.7,213.6 C408.7,213.6 381.7,190 377.3,178.1 L373.2,180 C373.2,180 393.1,186.7 391.5,209.6 C391.5,209.6 397,237.3 359.1,234.1 C359.1,234.1 335,237.7 288.5,189.7" id="Shape_4_" stroke="#00AEEF" fill="#4377BB" fill-rule="nonzero" opacity="0.27"></path>
                        <rect id="Rectangle-path" fill="#188E44" fill-rule="nonzero" x="553.9" y="207.2" width="149.1" height="78.5"></rect>
                        <path d="M398.5,107 C400.5,112.4 409.5,114.6 409.8,120.7 C410,125.3 402.9,128.5 399.1,128.5 C398.2,128.5 397.1,127.2 398.4,127.2 C403.9,127.2 410.9,122 405.8,116.7 C402.7,113.5 398.3,111.6 396.7,107.2 C396.3,106.2 398.3,106.3 398.5,107 Z" id="Shape_5_" fill="#000000" fill-rule="nonzero"></path>
                        <path d="M396.7,145.4 C396.3,150.1 396.2,155.8 393.4,159.9 C390.4,164.3 384.6,165.7 379.7,166.4 C370,167.8 358.5,165.8 350,160.9 C350.8,161.4 352.1,161.2 352.9,161.7 C362.1,166.9 376.4,168.1 386.1,163 C392.9,159.4 393.2,151.5 393.8,144.7 C393.8,144.8 396.7,145.2 396.7,145.4 Z" id="Shape_6_" fill="#000000" fill-rule="nonzero"></path>
                        <path d="M352.8,162.4 C346,168.7 342.1,177.6 341,186.8 C340.9,187.3 339,186.9 339.1,186.3 C340.2,177.1 344.2,168.1 351,161.7 C351.4,161.2 353.2,161.9 352.8,162.4 Z" id="Shape_7_" fill="#000000" fill-rule="nonzero"></path>
                        <path d="M351.2,11.4 C357.6,8.8 365.9,9.3 372.7,9.9 C382.7,10.9 392.4,15.6 400.4,21.3 C408.2,26.8 415.2,33.9 416.6,43.8 C418.2,55.5 414,67.7 420,78.6 C419.3,77.3 410.8,80.1 410,78.6 C405.2,69.8 407,60.1 407,50.5 C407.1,41.4 404.4,34 398,27.6 C392.2,21.9 385.1,17.4 377.7,14.1 C374,12.5 370.1,11.2 366.2,10.4 C365.3,10.2 364.1,10.3 363.3,10 C361.6,9.4 369.4,9.1 366.1,10 C364.4,10.5 362.8,10.7 361.2,11.4 C358.3,12.6 354,10.3 351.2,11.4 Z" id="Shape_8_" fill="#000000" fill-rule="nonzero"></path>
                        <path d="M368,34.1 C366.5,20.3 348.3,12.2 337,8.2 C330.1,5.8 323.5,4.6 316.2,4.7 C303.7,5 289.9,6 278.7,11.9 C276.7,12.9 274.4,14.3 272.2,14.7 C270.9,14.9 270.1,15 271.9,14 C282.4,8.5 293.6,4.4 305.3,2.4 C315.7,0.7 327.2,-0.6 337.5,1.8 C346.1,3.8 354.5,7.2 362,11.9 C368.7,16 376.2,21.9 377.1,30.3 C377.4,31.8 367.9,33.9 368,34.1 Z" id="Shape_9_" fill="#000000" fill-rule="nonzero"></path>
                        <path d="M311,132 C295.8,138.1 274.2,136.9 262.7,124.1 C258.6,119.5 256.1,113.6 253.7,108 C250.9,101.4 248.7,94.5 247.6,87.5 C245.2,72.6 248.7,59.4 255.9,46.4 C256.3,45.7 260.5,47.1 260.9,46.4 C255.1,56.9 251.3,67.5 251.8,79.6 C252.3,91.5 256.2,103.1 261.3,113.8 C265.2,122 270.5,128.5 279.1,132.2 C288.1,136 297.1,135.6 306.1,132.1 C307.4,131.4 309.5,132.6 311,132 Z" id="Shape_10_" fill="#000000" fill-rule="nonzero"></path>
                        <path d="M386.5,98.9 C377.8,99.5 369.6,102.3 360.9,102.5 C360,102.5 358.9,101.2 360.2,101.2 C368.9,101 377.2,98.2 385.8,97.6 C386.7,97.6 387.8,98.8 386.5,98.9 Z" id="Shape_11_" fill="#000000" fill-rule="nonzero"></path>
                        <path d="M379.7,110.2 C374,109.2 368.8,106.1 364.6,102.1 C363.7,101.2 365.2,100.5 365.9,101.2 C369.8,105 374.7,107.9 380,108.9 C381.3,109 380.9,110.4 379.7,110.2 Z" id="Shape_12_" fill="#000000" fill-rule="nonzero"></path>
                        <path d="M392.8,90 C382.9,86.4 372,84.3 362,88.8 C361.5,89 360.2,87.5 359.8,87.7 C369.7,83.1 380.7,85.3 390.6,88.9 C391.4,89.1 392,89.7 392.8,90 Z" id="Shape_13_" fill="#000000" fill-rule="nonzero"></path>
                        <path d="M176.4,426.7 C171.2,434.1 159.2,433.4 151.4,432.3 C145.3,431.4 138.6,429.9 133.1,427.2 C134.8,428.1 137.1,427.9 138.9,428.8 C140.2,429.4 141.5,429.8 142.8,430.4 C141.9,430 140.5,429.9 142.3,430.2 C143.4,430.4 144.5,430.6 145.6,430.8 C148.9,431.3 152.4,431.5 155.7,431.4 C161.1,431.2 167.3,430 170.6,425.3 C171,424.6 176.1,427.3 176.4,426.7 Z" id="Shape_14_" fill="#000000" fill-rule="nonzero"></path>
                        <path d="M139.9,417.9 C133.9,418.3 127.9,418.5 121.9,419.1 C118.1,419.5 114.3,419.9 110.6,420.6 C108.7,421 104.1,421.6 103.3,423.6 C99.7,432 133.2,427.3 137.3,427.2 C138.1,427.2 139.3,428.4 138,428.5 C130.4,428.7 122.9,430.3 115.2,430.3 C111.4,430.3 101.7,430.3 101.2,424.7 C100.7,419.5 111.7,418.9 115,418.5 C123.1,417.4 131.2,417.2 139.3,416.6 C140.1,416.6 141.2,417.8 139.9,417.9 Z" id="Shape_15_" fill="#000000" fill-rule="nonzero"></path>
                        <path d="M123.8,408.1 C141.3,409.3 158.9,408.8 176.1,405 C176.7,404.9 178.4,405.8 177.3,406 C160,409.9 142.2,410.3 124.6,409.2 C123.9,409.1 122.5,408 123.8,408.1 Z" id="Shape_16_" fill="#000000" fill-rule="nonzero"></path>
                        <path d="M125.6,408.8 C121.9,410.2 120,414.9 118,418.1 C117.6,418.7 115.7,418.1 116.2,417.3 C118.4,413.8 120.3,409.2 124.4,407.6 C125.1,407.3 126.7,408.4 125.6,408.8 Z" id="Shape_17_" fill="#000000" fill-rule="nonzero"></path>
                        <path d="M412.1,214.1 C423.7,225.6 428.4,246.5 427.3,262.4 C426.5,274.1 423,285.3 420.4,296.7 C419.5,300.4 418.9,304.2 418.2,308 C418,309 417.6,310.2 417.7,311.2 C416.7,310.9 415.8,310.7 414.8,310.4 C415,310.4 415.4,308.7 415.6,308.5 C416.5,307.5 415.9,307.9 417.2,307.9 C422,307.9 419.9,318.1 419.8,320.7 C419.8,320.5 416.9,320.2 416.9,319.9 C417,318.2 418.4,309 416.3,307.7 C417.3,308 418.2,308.2 419.2,308.5 C418.2,308.4 418.2,311.3 417.7,311.3 C417.4,311.3 414.8,310.7 414.8,310.5 C414.4,306.4 416.5,300.8 417.3,296.9 C419.9,285.2 423.6,273.7 424.4,261.7 C425.5,245.9 420.8,224.9 409.2,213.4 C409.8,213.9 411.5,213.5 412.1,214.1 Z" id="Shape_18_" fill="#000000" fill-rule="nonzero"></path>
                        <path d="M284.6,279.2 C299.6,300.5 315.6,321.9 314.8,349.1 C314.3,364.4 305.2,377.2 298.5,390.4 C295.4,396.5 293.4,402.3 288.1,406.8 C283.5,410.8 280.4,413.9 278.8,420.1 C279.2,418.5 278.4,416.7 278.8,415.1 C281.4,405.1 291,401.3 295.2,392.2 C301.1,379.8 309.5,367.8 313.3,354.5 C316.9,341.8 311.7,328.1 305.7,316.6 C299.7,305.1 292,294.7 284.5,284.2 C283.8,283.1 285.4,280.3 284.6,279.2 Z" id="Shape_19_" fill="#000000" fill-rule="nonzero"></path>
                        <path d="M374.1,180 C378,183.9 382.5,187.5 385.7,191.9 C389,196.5 390.4,201.8 391,207.4 C392,215.7 391.3,224.7 383.8,229.8 C374.8,235.8 361.5,235.7 351.3,233.6 C339.1,231 328,224.6 318.2,217.1 C311.9,212.3 306.1,207.1 300.4,201.7 C295,196.6 288.9,191.7 284.3,185.9 C283.8,185.2 285.7,185.4 286.1,185.9 C290.9,191.9 297.4,197.2 303.1,202.4 C308.3,207.3 313.6,212 319.2,216.3 C332.4,226.4 348,234.6 365,233.6 C377.2,232.9 388.7,228.3 389.5,214.6 C389.8,208.1 388.9,200.5 385.7,194.7 C382.6,189 377.1,184.8 372.6,180.3 C371.8,179.5 373.7,179.5 374.1,180 Z" id="Shape_20_" fill="#000000" fill-rule="nonzero"></path>
                        <path d="M419.1,315.7 C419.3,333.7 424.4,351.4 427.4,369.1 C428.8,377.5 430.6,386.9 422.9,392.7 C418,396.4 411.6,398.1 405.9,400 C398.6,402.3 391.3,404.3 383.8,405.9 C369.8,408.8 355.4,410.3 341.2,409.2 C326.1,408 311.5,403.5 299.1,394.6 C298.3,394 300.2,394.2 300.6,394.5 C325.3,412.5 358.2,410.8 386.6,404.2 C393,402.7 399.4,400.9 405.6,398.9 C411.1,397.1 417.2,395.4 421.8,391.6 C429.2,385.4 426.6,375.4 425.2,367.2 C422.3,350.1 417.4,332.9 417.2,315.4 C417.2,314.9 419.1,315.1 419.1,315.7 Z" id="Shape_21_" fill="#000000" fill-rule="nonzero"></path>
                        <path d="M297.2,292.7 C297,258.9 283,227.7 278.3,194.6 C278.2,194 280.1,194.4 280.2,194.9 C284.9,228.1 298.9,259.4 299.1,293.3 C299.2,293.7 297.2,293.4 297.2,292.7 Z" id="Shape_22_" fill="#000000" fill-rule="nonzero"></path>
                        <path d="M286.5,186.2 C287.4,188.6 288.3,192 286.7,194.4 C285.1,196.7 281.8,196.5 279.4,196 C279.1,195.9 278.4,195.8 278.3,195.4 C276.8,190.4 280.3,187.3 285,186.4 C285.5,186.3 287.2,187.1 286.2,187.3 C281.9,188.1 278.9,191.2 280.2,195.7 C279.8,195.5 279.5,195.3 279.1,195.1 C281.5,195.6 284.3,195.5 285.3,192.9 C286.2,190.7 285.4,188 284.6,185.9 C284.4,185.4 286.3,185.7 286.5,186.2 Z" id="Shape_23_" fill="#000000" fill-rule="nonzero"></path>
                        <g id="Shape_24_" transform="translate(280.000000, 157.000000)" fill-rule="nonzero">
                            <path d="M4.8,30.6 C10.3,29 22.2,30.6 26.1,27.4 C37.9,17.9 24.5,14 19.8,10 C11.1,2.9 8.8,-5.8 3.2,7.6 C0.8,12.3 1.6,21 1.6,26.5" id="Shape" fill="#D81B54"></path>
                            <path d="M4.2,30.1 C10.6,28.5 18.8,30.8 24.6,27.5 C28,25.6 31.4,21.2 28.7,17.6 C26.9,15.1 23.9,13.8 21.4,12.2 C19.1,10.7 17.1,9 15.2,7 C13.3,5.1 10.3,0.5 7.5,2.2 C4.7,3.9 3.2,9.9 2.7,13 C2,17.6 2.4,22.3 2.5,26.9 C2.5,27.8 0.6,27.4 0.6,26.7 C0.6,21.2 -0.2,15.2 1.3,9.9 C2.1,7.2 3.9,1.7 7,0.5 C8.7,-0.2 10.4,0.7 11.8,1.7 C15.4,4.3 17.9,8.2 21.5,10.8 C25.7,13.8 34.6,17.4 30.7,24 C25.4,33 13.7,29.3 5.3,31.3 C4.7,31.4 3.1,30.3 4.2,30.1 Z" id="Shape" fill="#000000"></path>
                        </g>
                        <g id="Shape_25_" transform="translate(251.000000, 179.000000)" fill-rule="nonzero">
                            <path d="M31.4,9.4 C24.3,-0.1 1.4,-4 1.4,11.8 C1.4,17.3 8.5,26 14,26.8 C21.9,27.6 25,22.1 29,15.8" id="Shape" fill="#D81B54"></path>
                            <path d="M30.5,9.4 C25.1,2.6 8.1,-3.5 3.3,7.2 C0.7,13.1 4.4,19.4 8.8,23.4 C17.3,31 23.9,22.3 28.1,15.5 C28.5,14.9 30.3,15.6 30,16 C26.1,22.2 21.1,29.4 12.7,26.9 C5.6,24.7 -1.2,15.5 0.9,8 C4.8,-5.6 26.2,1.8 32.3,9.4 C32.8,10 30.9,9.8 30.5,9.4 Z" id="Shape" fill="#000000"></path>
                        </g>
                        <path d="M333.3,432 C321.1,432 308.8,431.4 299.8,422.1 C299,421.3 300.9,421.3 301.3,421.8 C309.8,430.5 321.1,430.9 332.5,430.9 C333.3,430.9 334.6,432 333.3,432 Z" id="Shape_26_" fill="#000000" fill-rule="nonzero"></path>
                        <path d="M430.1,409.7 C425.3,415.9 419.2,420.6 411.8,423.2 C411.3,423.4 409.6,422.6 410.2,422.4 C417.5,419.8 423.5,415.1 428.2,409 C428.6,408.7 430.4,409.3 430.1,409.7 Z" id="Shape_27_" fill="#000000" fill-rule="nonzero"></path>
                        <path d="M380.5,414.2 C382.1,423.1 383.6,432 383.7,441 C383.7,442 381.7,441.8 381.7,440.9 C381.6,431.9 380.1,423 378.5,414.1 C378.3,413.1 380.3,413.3 380.5,414.2 Z" id="Shape_28_" fill="#000000" fill-rule="nonzero"></path>
                        <g id="Shape_29_" opacity="0.39" transform="translate(281.000000, 198.000000)">
                            <path d="M3.8,2.7 C17.2,28 20.8,60.7 27.5,88.3 C29.9,97.4 29.1,104.9 29.5,113.9" id="Shape" fill="#4377BB" fill-rule="nonzero"></path>
                            <g id="Group" opacity="0.7">
                                <g id="Shape">
                                    <g>
                                        <path d="M10.3,1.4 C10.3,1.4 12.1,-0.3 8.6,1.6 L5.6,2.8 L3.2,3.3 L1.2,4.5 C1.2,4.5 1.2,4.9 2.1,7.4 C2.5,8.6 3.1,10.4 3.9,12.8 C4.3,14 4.7,15.5 5.2,17.1 C5.7,18.7 6.2,20.6 6.7,22.7 C6.7,22.7 7,24.4 7.5,27.3 C7.8,28.7 8.1,30.4 8.5,32.4 C8.7,33.4 8.9,34.4 9.2,35.4 C9.4,36.5 9.7,37.6 10,38.7 C10,38.7 11.1,42.8 12.6,49.2 C14.1,55.6 16,64.2 18,73.1 C19,77.6 20,82 21.2,86.4 C21.5,87.5 21.8,88.5 22,89.6 C22.3,90.5 22.5,91.5 22.7,92.3 C23.1,94.1 23.4,95.8 23.6,97.5 C24,100.8 24.2,103.9 24.3,106.3 C24.5,108.7 24.7,110.4 24.9,111.1 C24.9,111.1 24.7,108.3 24.5,104.2 C24.3,100.1 23.8,95 22.4,90.1 C19.3,79 16.8,67.6 16.8,66.2 C16.8,66.2 17.4,68.8 18.4,72.6 C19.4,76.5 20.7,81.7 22.3,87 L22.9,89 C23.1,89.6 23.3,90.2 23.5,90.8 C23.8,92 24.1,93.2 24.4,94.4 C24.9,96.8 25.2,99.1 25.5,101.2 C26,105.4 26.3,108.7 26.6,109.5 C26.6,109.5 26.5,107 26.3,103.1 C26.1,99.3 25.7,94.4 24.3,89.6 C21.5,79.2 19.4,68.3 19.8,66.4 C19.8,66.4 20.4,68.7 21.3,72.2 C22.2,75.7 23.5,80.4 24.9,85.2 C25.3,86.4 25.6,87.6 26,88.8 C26.4,90 26.7,91.1 27,92.2 C27.6,94.5 28,96.7 28.3,98.7 C28.9,102.8 29.3,106 29.7,107.1 C29.7,107.1 29.5,105.3 29.4,103.3 C29.2,101.3 29,99 29,98 C29.2,99.1 29.5,100.2 29.7,101.3 C29.6,99.5 29.5,97.7 29.3,95.9 C29.1,94.9 28.8,93.9 28.5,92.9 C28.5,92.9 29.1,94.9 29.6,97.1 C30.1,99.3 30.6,101.5 30.9,101.8 C30.9,101.8 30.8,102.8 30.6,101.8 C30.5,101.3 30.4,100.4 30.3,98.6 C30.1,96.8 30,94.1 29.3,90.3 C29.3,90.3 29.1,89.7 28.8,88.7 C28.4,87.6 28,86.1 27.4,84.1 C26.2,80.1 24.7,74 23.3,66.3 C21.8,58.6 20.3,49.1 18.6,38.2 C16.5,27.5 14.7,15.1 10.3,1.4 Z" fill="#00AEEF" fill-rule="nonzero"></path>
                                        <path d="M0.1,4.6 C0.1,4.6 0.6,5.8 1.4,7.9 C1.8,8.9 2.3,10.3 2.8,11.8 C3.1,12.5 3.3,13.3 3.6,14.2 C3.9,15.1 4.1,15.9 4.4,16.9 C5.6,20.6 6.7,25 7.8,29.8 C8.8,34.6 9.9,39.6 10.8,44.8 C10.8,44.8 11,45.5 11.3,46.7 C11.6,47.9 12,49.7 12.5,51.8 C13.4,56 14.7,61.7 15.9,67.7 C17.2,73.6 18.5,79.7 19.7,84.7 C20,85.9 20.3,87.1 20.6,88.2 C20.9,89.2 21.1,90.2 21.3,91 C21.7,92.5 21.9,93.5 22.1,94.1 C22.1,94.1 22.2,94.8 22.4,96 C22.6,97.2 22.8,98.9 22.9,100.9 C23.2,104.9 23.4,110.3 24.1,114.4" stroke="#6DCFF6" stroke-width="0.025"></path>
                                        <path d="M16,67.6 C15.4,65.8 13.9,58.1 12.3,50.9 C10.8,43.7 9.1,37.2 9.1,37.2 C7.7,32 6,23.7 4,16.8 C3.8,15.9 3.5,15.1 3.3,14.3 C3,13.5 2.8,12.7 2.6,12 C2.1,10.5 1.7,9.2 1.3,8.1 C0.5,5.9 0,4.5 0,4.5" stroke="#00AEEF" stroke-width="0.025"></path>
                                        <path d="M19.4,67.9 C19.4,67.9 19.9,69.9 20.6,73 C21.3,76.1 22.4,80.3 23.5,84.8 C24.1,87 24.7,89.2 25.3,91.4 C25.8,93.5 26.2,95.6 26.4,97.5 C26.9,101.4 27,104.8 27.2,106.6" stroke="#00AEEF" stroke-width="0.025"></path>
                                        <path d="M22,57.9 C22,57.9 22.6,60.2 23.4,63.7 C24.3,67.2 25.4,71.9 26.6,76.6 C27.2,79 27.8,81.4 28.5,83.6 C29.2,85.9 29.8,88.1 30.3,90 C31.4,94.1 31.7,97.1 31.9,98" stroke="#6DCFF6" stroke-width="0.025"></path>
                                    </g>
                                </g>
                            </g>
                        </g>
                        <g id="Shape_30_" opacity="0.39" transform="translate(397.000000, 375.000000)">
                            <g id="Group" opacity="0.7">
                                <g id="Shape">
                                    <g>
                                        <path d="M0.6,16.3 C0.6,16.3 -0.1,14 0.9,17.9 L1.7,21 L2.1,23.3 L2.7,25.5 C2.7,25.5 2.9,25.6 3.9,25.7 C4.2,25.7 4.5,25.7 4.8,25.7 C5.2,25.7 5.6,25.6 6.1,25.5 C7.1,25.4 8.3,25.1 9.8,24.6 C9.8,24.6 10.5,24.6 11.6,24.3 C12.1,24.2 12.8,23.9 13.4,23.6 C14,23.3 14.7,22.9 15.4,22.3 C15.4,22.3 15.7,22.1 16.2,21.6 C16.7,21.2 17.4,20.5 18.1,19.7 C19.6,18.1 21.6,15.9 23.3,13.4 C25,10.9 26.5,8.2 27.4,5.9 C28.3,3.6 28.7,1.7 28.5,1.1 C28.5,1.1 28.3,2.1 27.9,3.4 C27.5,4.8 26.8,6.5 26,8.3 C24.4,11.7 22.2,14.9 21.7,15 C21.7,15 22.2,14.3 22.8,13.1 C23.5,12 24.3,10.4 25,8.8 C25.4,8 25.7,7.1 26,6.3 C26.3,5.5 26.5,4.7 26.7,4 C27,2.5 27.1,1.4 26.9,1 C26.9,1 26.9,1.2 26.8,1.6 C26.7,2 26.5,2.5 26.4,3.1 C26,4.3 25.4,5.9 24.6,7.4 C23.1,10.5 20.8,13.2 19.9,13.1 C19.9,13.1 20.3,12.5 20.8,11.5 C21.3,10.5 22,9.1 22.6,7.7 C23.2,6.2 23.7,4.7 23.9,3.4 C24.2,2.1 24.1,1 23.9,0.6 C23.9,0.6 23.8,1.1 23.7,1.7 C23.6,2.3 23.4,3 23.1,3.2 L23.1,2.1 L22.4,3.5 C22.4,3.8 22.3,4.2 22.3,4.5 C22.3,4.5 22.4,3.8 22.4,3.1 C22.4,2.4 22.3,1.6 22.1,1.4 C22.1,1.4 22.4,1.2 22.4,1.5 C22.4,1.7 22.3,1.9 22.1,2.4 C21.9,2.9 21.5,3.5 20.9,4.4 C20.9,4.4 20.9,4.6 20.8,4.9 C20.7,5.2 20.6,5.7 20.3,6.2 C20.1,6.8 19.7,7.5 19.2,8.2 C18.7,9 18.1,9.8 17.4,10.7 C15.9,12.4 13.6,14.3 10.7,15.6 C10.3,15.8 10,15.9 9.6,16.1 C9.2,16.2 8.8,16.4 8.4,16.5 C7.6,16.8 6.7,16.9 5.8,17 C3.9,17.2 2,17.1 0.6,16.3 Z" fill="#00AEEF" fill-rule="nonzero"></path>
                                        <path d="M2.8,26.5 C2.8,26.5 3.3,26.5 4.2,26.4 C5.1,26.3 6.3,26.1 7.8,25.7 C10.7,24.9 14.2,23.4 17.3,21.3 C17.3,21.3 18,20.6 19.1,19.6 C19.6,19.1 20.2,18.4 20.8,17.7 C21.4,17 22.1,16.2 22.7,15.4 C25.2,12.2 27.3,8.5 27.6,7.6 C27.6,7.6 27.7,7.4 27.9,6.9 C28.1,6.5 28.4,5.9 28.6,5.2 C28.9,4.5 29.1,3.6 29.3,2.8 C29.5,2 29.6,1.1 29.6,0.3" stroke="#6DCFF6" stroke-width="0.025"></path>
                                        <path d="M22.7,15.5 C22.5,16.1 20.7,18.1 18.9,19.9 C18,20.8 17.1,21.6 16.3,22.2 C15.6,22.8 15.1,23.2 15.1,23.2 C13.6,24.5 10.6,25.7 7.9,26.3 C6.5,26.5 5.2,26.7 4.3,26.7 C3.3,26.7 2.8,26.7 2.8,26.7" stroke="#00AEEF" stroke-width="0.025"></path>
                                        <path d="M20.4,13.2 C20.4,13.2 21.9,11.1 23.2,8.5 C24.6,5.9 25.6,2.9 25.7,1.7" stroke="#00AEEF" stroke-width="0.025"></path>
                                        <path d="M15.2,12.3 C15.2,12.3 15.6,11.7 16.2,10.9 C16.8,10 17.5,8.8 18.1,7.6 C19.4,5.1 20.4,2.4 20.3,1.9" stroke="#6DCFF6" stroke-width="0.025"></path>
                                    </g>
                                </g>
                            </g>
                        </g>
                        <g id="Shape_31_" opacity="0.39" transform="translate(303.000000, 384.000000)">
                            <g id="Group" opacity="0.7">
                                <g id="Shape">
                                    <g>
                                        <path d="M4,1.6 C4,1.6 4.1,-0.8 3.3,3.1 L2.5,6.2 L1.6,8.4 L1.2,10.7 C1.2,10.7 1.4,10.9 3.2,11.6 C5,12.3 8.3,13.5 14.5,15.3 C14.5,15.3 19.3,17.5 26.3,18.5 C26.3,18.5 27.1,18.6 28.5,18.7 C29.9,18.9 31.9,19.1 34.3,19.3 C39.1,19.7 45.6,20.1 52.3,20 C59,19.9 65.7,19.4 71,18.5 C73.7,18.1 75.9,17.6 77.7,17.3 C79.4,16.9 80.6,16.5 81.1,16.2 C81.1,16.2 80.6,16.3 79.7,16.5 C78.8,16.7 77.6,17 76.1,17.3 C73.1,17.9 69.1,18.6 64.9,19 C56.6,20 48.1,20 47.1,19.6 C47.1,19.6 49,19.5 51.9,19.5 C53.4,19.4 55.1,19.3 56.9,19.2 C58.7,19 60.7,18.9 62.7,18.6 C70.6,17.7 78.7,15.7 79.7,14.9 C79.7,14.9 77.9,15.4 75.1,15.8 C73.7,16.1 72.1,16.4 70.3,16.6 C68.5,16.9 66.6,17.1 64.7,17.3 C57,18.1 49,17.9 47.7,17 C47.7,17 49.4,17 52,16.8 C53.3,16.7 54.8,16.6 56.4,16.5 C58,16.3 59.8,16.1 61.6,15.9 C63.4,15.7 65.2,15.4 66.9,15.1 C68.6,14.8 70.2,14.4 71.7,14.1 C74.6,13.4 76.8,12.6 77.5,12.1 C77.5,12.1 77.2,12.2 76.7,12.3 C76.2,12.4 75.5,12.6 74.8,12.7 C73.4,13 71.8,13.4 71.1,13.3 C71.9,13.1 72.6,12.8 73.4,12.5 C72.1,12.7 70.9,12.8 69.6,13 L67.4,13.6 C67.4,13.6 68.9,13.2 70.4,12.7 C71.9,12.2 73.4,11.6 73.6,11.3 C73.6,11.3 74.3,11.4 73.7,11.6 C73.1,11.8 71.1,12.2 65.7,12.5 C65.7,12.5 64.1,12.9 61.2,13.2 C58.2,13.5 53.8,13.9 48.3,13.6 C42.7,13.3 36,12.5 28.5,10.6 C21.1,8.7 12.8,5.8 4,1.6 Z" fill="#00AEEF" fill-rule="nonzero"></path>
                                        <path d="M0.7,11.7 C0.7,11.7 1.6,12 3.3,12.5 C4.9,13 7.3,13.7 10,14.6 C15.6,16.2 23.1,18.2 30.7,19.7 C30.7,19.7 32.8,19.9 36,20.2 C37.6,20.3 39.5,20.4 41.5,20.6 C43.5,20.7 45.7,20.8 47.9,20.8 C50.1,20.8 52.4,20.9 54.5,20.8 C56.7,20.8 58.7,20.7 60.6,20.6 C62.4,20.5 64.1,20.3 65.3,20.2 C66.6,20.1 67.5,20 67.9,19.9 C67.9,19.9 68.5,19.8 69.5,19.7 C70.5,19.6 71.9,19.4 73.5,19.1 C75.1,18.8 76.8,18.5 78.5,18.1 C80.2,17.7 81.8,17.2 83.2,16.7" stroke="#6DCFF6" stroke-width="0.025"></path>
                                        <path d="M48,20.8 C46.6,21 40.8,20.7 35.4,20.2 C30,19.7 25,18.9 25,18.9 C21,18.4 14.8,16.7 9.7,15 C7.2,14.1 4.9,13.3 3.2,12.7 C1.6,12.1 0.5,11.7 0.5,11.7" stroke="#00AEEF" stroke-width="0.025"></path>
                                        <path d="M48.8,17.5 C48.8,17.5 49.2,17.5 49.8,17.5 C50.5,17.5 51.4,17.5 52.6,17.4 C53.8,17.4 55.1,17.3 56.6,17.2 C58.1,17.1 59.7,17 61.3,16.9 C64.6,16.6 68,16.2 70.9,15.7 C73.8,15.2 76.2,14.7 77.5,14.4" stroke="#00AEEF" stroke-width="0.025"></path>
                                        <path d="M42.4,12.7 C42.4,12.7 44.1,12.7 46.6,12.7 C47.9,12.7 49.4,12.6 51,12.6 C52.6,12.6 54.3,12.4 56,12.3 C57.7,12.2 59.5,12 61.1,11.9 C62.8,11.7 64.3,11.5 65.7,11.3 C68.5,10.9 70.5,10.5 71,10.3" stroke="#6DCFF6" stroke-width="0.025"></path>
                                    </g>
                                </g>
                            </g>
                        </g>
                        <g id="Shape_32_" opacity="0.8" transform="translate(175.000000, 188.000000)" fill="#000000" fill-rule="nonzero">
                            <path d="M0.6,220.7 C1.9,219.4 4,217.4 6.5,215.2 C8.9,212.7 11.9,210.1 14.7,207 C16.1,205.5 17.6,204 18.9,202.4 C20.2,200.8 21.6,199.3 22.8,197.8 C25.1,194.7 27.3,192 28.7,189.7 C29.8,188 30.9,186.6 31.7,185.2 C32.5,183.9 33.2,182.7 33.8,181.7 C34.3,180.9 33.9,181.4 33,182.9 C32.5,183.6 32,184.6 31.2,185.8 C30.5,186.9 29.6,188.2 28.6,189.7 C26.9,192.3 24.6,195.1 22,198.5 C23.5,196.3 25,194.1 26.3,192.1 C27.6,190.1 28.7,188.2 29.6,186.6 C31.1,184.4 32.5,182.1 34,179.8 C40.3,169.4 45.3,158.9 49.7,147.7 C50.5,145.7 51.7,142.4 52.9,139.2 C54.1,136 55.1,132.7 55.8,130.7 C50.1,147.3 43.4,163.6 34.2,178.6 C34.4,178.2 34.6,177.8 34.9,177.3 C39.5,169.3 43.6,161 47.1,152.5 C47.7,151.1 48.3,149.6 48.9,148.1 L47.1,152.5 C46.2,154.4 45.4,156.2 44.5,158.1 C43.6,160 42.6,161.8 41.7,163.8 C41.4,164.4 41.1,165.1 40.8,165.7 C40.5,166.3 40.1,167 39.8,167.7 C39.1,169 38.5,170.3 37.8,171.6 C36.8,173.6 35.8,175.4 34.8,177.3 L33.8,179.1 L32.7,180.8 C32.5,181.1 32.2,181.5 32,181.8 C32,181.8 32,181.8 32,181.7 C32.7,180.1 37.3,171.8 41.3,162.8 C45.4,153.9 48.9,144.4 50,141.8 C51.8,137.6 53.8,133.8 55.5,129 C56.1,127.4 56.4,126 56.9,124.8 C57,124.7 57.3,124.1 57.6,123.5 C58.7,120.3 59.4,116.9 60.4,114.5 C61.1,112.8 60.8,107.5 61.2,107.2 C62.5,106.1 61.6,106.9 62.4,102.7 C62.5,102.2 63.3,100.6 63.4,99.6 C63.8,96.1 64.4,95.1 65.2,91.1 C66.6,85.2 66.1,83.8 67.7,78.6 C67.9,77.9 69.8,69.7 69.8,69.7 C70.9,63.2 72.3,59.3 72.8,54.1 C73.8,51.3 74.7,47.9 75.6,44.5 C76.1,42.8 76.5,41.1 77.1,39.4 C77.4,38.6 77.6,37.8 77.9,37 C78.2,36.2 78.5,35.4 78.8,34.7 C80,31.8 80.9,29.6 81.7,27.6 C81.9,27.1 82.1,26.6 82.3,26.1 C82.5,25.6 82.7,25.1 83,24.6 C83.5,23.5 83.9,22.4 84.6,21.1 C85.4,19.7 86.1,18.7 86.5,17.8 C86.7,17.4 87.2,16.7 87.8,16 C88.4,15.3 89.1,14.6 89.6,13.9 L89.1,14 C89.4,13.6 90.1,12.7 90.4,12.2 C90.8,11.8 90.6,11.8 90.4,11.9 C90.1,12 89.7,12.1 90.3,11.2 C91,10.3 91.8,9.4 92.5,8.4 C93.3,7.5 94.2,6.7 95,5.8 C96,5.1 97,4.4 97.9,3.7 C98.9,3 99.9,2.4 100.9,1.8 C101.1,1.8 101.3,1.9 101.6,1.8 C102.2,1.4 102.9,1.2 103.5,0.9 C104,0.9 104,1.3 104.4,1.3 C104.8,2 107.6,1.3 107.4,2.3 C107.3,2.5 106.5,3 105.5,3.7 C105,4 104.5,4.4 104,4.8 C103.6,5.2 103.1,5.6 102.9,5.9 C102.7,6.2 103.5,5.9 104,5.9 C102.2,7.1 102.3,7.5 103.2,7.2 C102.8,7.5 102.4,7.8 102.4,7.8 C102.6,7.8 103,7.8 103,7.8 C102.7,8 102.5,8.2 102.2,8.4 L101.5,9.1 C101,9.6 100.5,10.1 100,10.5 C99,11.5 98.1,12.6 97.2,13.6 C96.3,14.7 95.4,15.7 94.6,16.8 C93.8,17.9 92.9,18.9 92.1,19.9 C91.8,20.3 91.3,20.9 90.8,21.5 C90.3,22.1 89.8,22.7 89.4,23.2 C89,23.7 88.4,24.9 88.2,25.4 C87.5,26 87.3,25.8 86.9,26 C86.5,26.9 85.9,28 85.4,29.3 C85.1,29.9 84.9,30.6 84.6,31.2 C84.3,31.8 84.1,32.5 83.8,33.1 C82.8,35.5 82,37.4 81.5,37.1 C80.9,38.6 80.5,39.5 80.1,40.4 C79.7,41.3 79.2,42.2 78.7,43.8 C77.3,48 75.7,53.5 74.5,59 C73.8,62 73.2,64.9 72.6,67.9 C72.4,69 72.2,70.1 72,71.1 C69.9,82.1 68.7,91.9 66.8,101.5 C65.9,106.3 64.8,111.1 63.3,115.9 C61.8,120.7 60.1,125.6 58.1,130.7 C54.1,141.1 49.8,151.6 45,161.6 C40.2,171.5 35,180.8 29.5,188.8 C28.8,189.8 28.1,190.8 27.5,191.7 C26.9,192.7 26.1,193.6 25.4,194.5 C24.7,195.4 24,196.3 23.4,197.2 C23.1,197.6 22.7,198.1 22.4,198.5 C22.1,198.9 21.7,199.3 21.4,199.7 C20,201.3 18.8,202.9 17.5,204.4 C16.2,205.8 15,207.2 13.8,208.4 C13.2,209 12.7,209.7 12.1,210.2 C11.5,210.8 11,211.3 10.4,211.8 C9.3,212.8 8.3,213.8 7.4,214.7 C5.6,216.4 4,217.7 3,218.6 L0.6,220.7 Z" id="Shape"></path>
                        </g>
                        <g id="Shape_33_" opacity="0.8" transform="translate(178.000000, 282.000000)" fill="#000000" fill-rule="nonzero">
                            <path d="M0.9,143.4 C2.2,143 4.2,142.4 6.7,141.7 C7.9,141.3 9.2,140.8 10.6,140.4 C11.3,140.2 12,139.9 12.7,139.7 C13.4,139.4 14.1,139.1 14.8,138.8 C16.2,138.2 17.7,137.7 19,137 C20.4,136.3 21.7,135.6 23,135 C24.3,134.3 25.4,133.6 26.5,133 C27.6,132.4 28.6,131.8 29.3,131.2 C30.5,130.4 31.6,129.6 32.6,128.9 C33.5,128.2 34.3,127.6 35,127 C36.1,126.1 33.6,128.3 29.3,131.1 C28.4,131.8 27.3,132.4 26.1,133.1 C25.5,133.4 24.9,133.8 24.3,134.2 C23.7,134.6 23,134.9 22.3,135.3 C25.7,133.3 28.9,131.2 31,129.5 C32.7,128.4 34.2,127.2 35.9,125.9 C43,120.4 48.9,113.9 54.3,106.9 C56.3,104.4 60.2,98.6 61.8,95.9 C54.9,106.9 46.5,117.2 36.4,125.3 C36.7,125.1 37,124.9 37.2,124.6 C42.5,120.2 47.2,115.3 51.5,109.9 C52.3,109 53,108.1 53.7,107.1 C53,108 52.3,109 51.5,109.9 C50.5,111.1 49.6,112.2 48.5,113.3 C47.4,114.4 46.4,115.6 45.2,116.8 C43.8,118.2 42.1,119.9 40.6,121.3 C39.3,122.4 38.2,123.5 37.1,124.5 C36.3,125.1 35.5,125.8 34.7,126.4 C34.5,126.6 34.2,126.8 33.9,127 C34.8,126.1 40.3,121.6 45.2,116.3 C46.4,114.9 47.6,113.6 48.8,112.2 C49.9,110.8 51,109.5 51.9,108.3 C53.7,105.8 55.2,104 55.8,103.1 C56.8,101.7 57.8,100.5 58.8,99.1 C59.8,97.7 60.8,96.3 61.8,94.8 C62.5,93.7 62.9,92.8 63.5,92 C63.6,91.9 63.9,91.5 64.2,91.1 C65.5,89 66.6,86.6 67.7,85 C68.4,83.8 69.5,80.1 69.8,79.9 C70.8,79.2 70.1,79.7 71.5,76.8 C71.7,76.4 72.4,75.4 72.8,74.7 C73.8,72.3 74.3,71.6 75.7,68.9 C77.7,64.9 77.8,63.9 79.8,60.3 C80,59.9 82.7,54.2 82.7,54.2 C84.6,49.7 86,47 87.1,43.3 C89.1,39.4 91,33.8 92.9,29.5 C94.8,25.2 95.3,23.3 96.8,19.4 C97.2,18.3 97.6,17.5 97.8,16.9 C98,16.2 98.9,14.8 99.3,13.7 L99,13.9 C99.2,13.5 99.5,12.8 99.6,12.5 C99.8,12.1 99.7,12.2 99.6,12.3 C99.4,12.4 99.3,12.6 99.5,11.9 C100.1,10.4 100.8,8.8 101.5,7.3 C102.3,5.8 103.1,4.3 104,2.9 C104.1,2.8 104.2,2.8 104.4,2.6 L105.2,1.3 C105.5,1.1 105.6,1.3 105.7,1.1 C106.1,1.3 107.4,-0.3 107.5,0.3 C107.5,0.5 106.2,3.1 105.8,4.3 C105.7,4.6 106.2,4 106.4,3.9 C105.6,5.4 105.7,5.5 106.2,5 C106,5.4 105.9,5.7 105.9,5.7 C106,5.6 106.3,5.4 106.3,5.4 C104.6,9.2 102.9,13.6 101.1,17.2 C100.7,18 100,19.3 99.6,20.1 C99.4,20.5 99,21.5 98.9,21.9 C98.5,22.5 98.4,22.3 98.2,22.5 C97.1,25.3 94.8,31.4 94.4,31.1 C93.5,33.4 93.1,33.7 92.1,36.1 C90.8,39.2 89.1,43.1 87.4,47 C86.5,49.1 85.6,51.2 84.7,53.2 C84.4,54 84,54.7 83.7,55.4 C80.4,63.1 77.4,69.7 74.3,76.3 C71.1,82.8 67.7,89.2 63.2,96 C58.6,102.9 53.5,109.6 47.9,115.6 C42.3,121.6 36.3,126.8 30.3,130.7 C24.4,134.7 18.6,137.5 13.9,139.4 C13.6,139.5 13.3,139.6 13,139.8 C12.7,139.9 12.4,140 12.1,140.1 C11.5,140.3 11,140.5 10.5,140.7 C9.5,141.1 8.5,141.4 7.6,141.7 C5.8,142.2 4.4,142.6 3.4,142.9 L0.9,143.4 Z" id="Shape"></path>
                        </g>
                        <path d="M125.8,430.3 C132.1,432.6 137,437.1 142.3,440.9 C145.5,443.1 149.2,445.7 153.3,445.4 C158.4,445.1 162,440.6 164.8,436.7 C165.2,436.1 167.1,436.8 166.6,437.5 C162.1,444 156.1,448.6 148.1,445.5 C139.6,442.2 133.7,434.4 125.1,431.2 C123.7,430.7 124.9,429.9 125.8,430.3 Z" id="Shape_34_" fill="#000000" fill-rule="nonzero"></path>
                        <path d="M160.2,438.2 C158,439.7 155.5,440.7 153.9,442.9 C153.6,443.4 151.7,442.8 152.1,442.2 C153.7,439.9 156.2,438.9 158.4,437.5 C159,437.1 160.7,437.9 160.2,438.2 Z" id="Shape_35_" fill="#000000" fill-rule="nonzero"></path>
                        <path d="M153.1,435 C151.4,436.7 149.6,438.3 147.3,439.1 C146.6,439.4 145,438.3 146.2,437.9 C148.3,437.2 149.9,435.7 151.4,434.1 C151.9,433.7 153.7,434.4 153.1,435 Z" id="Shape_36_" fill="#000000" fill-rule="nonzero"></path>
                        <path d="M145.1,432 C141.9,434.4 138.4,436 134.4,436.9 C133.4,437.1 132.5,435.7 133.7,435.5 C137.4,434.7 140.5,433.1 143.5,430.9 C144.3,430.4 146,431.4 145.1,432 Z" id="Shape_37_" fill="#000000" fill-rule="nonzero"></path>
                        <path d="M243.5,519.1 C247.4,501.1 251.5,483.1 256.8,465.4 C261.8,448.7 267.5,431.5 277.4,417.1 C278,416.2 280.8,417.2 280.1,418.3 C270,433 264.2,450.7 259.2,467.7 C254.1,484.9 250.1,502.4 246.4,520 C246.2,521 243.3,520.2 243.5,519.1 Z" id="Shape_38_" fill="#000000" fill-rule="nonzero"></path>
                        <path d="M249.3,515.1 C218.7,515.2 188.9,521.3 160.6,533.1 C136.7,543 111.1,557.4 84.4,553.8 C81.7,553.4 79.9,547.1 77.3,546.8 C104.1,550.4 129.7,536 153.5,526.1 C181.7,514.4 211.6,508.2 242.2,508.1 C243,508.1 245.2,511 245.8,511.6 C246.4,512.2 248.5,515.1 249.3,515.1 Z" id="Shape_39_" fill="#000000" fill-rule="nonzero"></path>
                        <path d="M79.4,554.4 C70.9,550.7 63.1,549.8 54.6,554 C47.3,557.6 40.6,562 33.1,565 C27.1,567.5 21,569.8 15.3,572.9 C12.5,574.5 9.8,576.2 7.3,578.3 C6.1,579.3 5.2,580.4 4.1,581.5 C3.8,581.8 3.3,582.8 2.9,583 C7.7,580 5.1,576.2 4.7,580 C4.3,584.4 4.3,589.4 8.5,592 C12.1,594.2 16.9,594.1 20.9,593.9 C33.4,593.1 45.8,588.9 57.7,585 C68.5,581.5 80.3,576 91.8,575.2 C90.2,575.3 89.1,584.1 87.4,584.2 C76.4,584.9 65.2,590.2 54.9,593.5 C42.1,597.6 28.5,602.5 14.9,602.9 C10.9,603 6,602.9 2.9,600 C-0.8,596.6 -0.4,590.3 1.3,586 C3.6,580.1 6.6,573.7 11.4,569.5 C16.8,564.7 23.6,561.6 30.2,558.8 C38.6,555.3 46.6,551.8 54.5,547.3 C58.4,545.1 62.5,542.8 66.9,542.1 C72.8,541.1 78.5,542.9 83.9,545.2 C83.8,545.4 79.6,554.4 79.4,554.4 Z" id="Shape_40_" fill="#000000" fill-rule="nonzero"></path>
                        <path d="M91.5,574.9 C158,564.4 234.3,583.1 292.6,541 C307,530.6 317.3,513.8 333.7,506.2 C333,506.5 332.1,510.1 331.7,510.8 C331.3,511.7 330.5,515 329.6,515.4 C315.2,522.1 305.5,536.1 293.6,546.2 C280.7,557.1 264.8,564.7 248.8,569.7 C215.6,580 180.3,579.3 145.9,580 C126.3,580.4 106.7,581.1 87.3,584.1 C89.2,583.8 89.7,575.2 91.5,574.9 Z" id="Shape_41_" fill="#000000" fill-rule="nonzero"></path>
                        <path d="M333.4,553.2 C342.5,542 344.3,526.7 346.8,513 C346.2,516.2 347.3,519.8 346.7,523 C344.2,536.7 342.4,552 333.3,563.2 C333.8,562.6 333.3,559.1 333.3,558.2 C333.3,557.2 332.7,554 333.4,553.2 Z" id="Shape_42_" fill="#000000" fill-rule="nonzero"></path>
                        <path d="M334.8,548.3 C326.9,543.3 316.8,544.7 308.8,539.6 C307.2,538.6 309.7,538.3 310.6,538.8 C318.5,543.8 328.6,542.4 336.6,547.5 C338.3,548.6 335.7,548.9 334.8,548.3 Z" id="Shape_43_" fill="#000000" fill-rule="nonzero"></path>
                        <path d="M424.8,526.6 C422.8,540.1 416.5,553 409.4,564.5 C401.5,577.3 391.8,589.6 379.8,598.8 C369.2,606.9 357.9,610.4 344.6,608.6 C328.9,606.5 313.7,600.1 299.6,593.1 C284.5,585.7 270,577 255.9,567.9 C253.1,566.1 250.9,563.3 248.2,561.6 C273.4,577.9 301,595 330.7,601.2 C343.8,603.9 355.8,603.1 367.2,595.8 C379.9,587.7 390,575.7 398.3,563.3 C406.9,550.4 414.8,535.7 417.1,520.2 C416.8,521.9 425.1,524.9 424.8,526.6 Z" id="Shape_44_" fill="#000000" fill-rule="nonzero"></path>
                        <path d="M176.4,525.7 C161,516.5 143.4,512.2 127.9,503.2 C118.4,497.6 110.4,491.2 104,482.1 C95.3,469.9 123,469.7 129,469.3 C133.2,469 137.5,468.9 141.6,469.8 C146,470.8 149.9,473.1 153.8,475.1 C161.3,479 167.3,479.8 175.5,477.8 C179.4,476.9 183.9,475.7 187.6,477.7 C190.2,479.1 192,481.9 193.8,484.1 C195.7,486.4 197.6,488.3 198.1,491.3 C198.8,495.6 197.4,499.9 200,503.8 C199.7,503.4 199.4,503 199.1,502.6 C193.5,495.7 198.3,500.7 200.3,502.1 C202,503.3 203.8,504.3 205.6,505.2 C208.3,506.6 209.3,511.5 212,512.9 C205.1,509.3 200.6,504.5 195.8,498.6 C193.9,496.3 192.4,494.4 192.1,491.3 C191.7,487.4 192.6,483.6 190.6,480.1 C191.4,481.1 192.1,482 192.9,483 C192.6,482.7 192.4,482.4 192.1,482 C193.5,483.6 194.8,485.2 196.2,486.9 C190.2,481.7 182.9,485.9 176.1,486.8 C168.3,487.8 161.9,483.3 155.2,480.1 C146.9,476.1 138.4,476.5 129.4,477.5 C123.8,478.1 114.1,477.7 109.8,482.3 C108.6,483.6 108.3,484.9 108.7,486.5 C108.9,487.4 109.6,488.1 109.9,488.9 C105.8,484.3 104.8,483 106.9,485 C107.4,485.4 107.9,485.9 108.3,486.3 C112.6,490 117.6,493 122.5,495.9 C137.7,504.7 155,508.9 170.1,517.9 C172.7,519.6 173.7,524.2 176.4,525.7 Z" id="Shape_45_" fill="#000000" fill-rule="nonzero"></path>
                        <path d="M112,481.3 C128.1,481.5 144,485.1 160.1,485.2 C162,485.2 162,488.2 160.1,488.2 C144,488.1 128.1,484.4 112,484.3 C110,484.3 110,481.3 112,481.3 Z" id="Shape_46_" fill="#000000" fill-rule="nonzero"></path>
                        <g id="Shape_47_" transform="translate(234.000000, 383.000000)" fill-rule="nonzero">
                            <path d="M196,2.7 C214.2,32.7 222,69.8 236.2,102.1 C240.9,113.9 246.5,116.3 236.2,124.2 C229.1,128.1 218.8,131.3 211.7,134.5 C194.3,140.8 176.2,140.8 157.3,140 C130.5,139.2 102.1,135.3 75.2,129.7 C50.7,125 18.4,121 0.2,101.3 C16.8,84.7 21.5,61.1 33.3,42.1 C39.6,31.8 49.9,22.4 59.3,16.1 C71.1,9 74.3,14.5 86.9,18.5 C116.1,27.2 154,24 180.8,10.6 C186.3,8.2 191.8,5.9 197.4,3.5" id="Shape" fill="#D81B54"></path>
                            <path d="M196,0.2 C210.3,24.1 218,51.1 227.4,77.1 C229.7,83.6 232.2,90.1 234.9,96.5 C236.9,101.2 239.7,105.8 241.4,110.6 C243.2,115.6 242.4,121.2 238.5,124.9 C234,129.1 227.3,130.9 221.7,133.1 C215.5,135.5 209.5,138.1 203,139.7 C188.7,143.3 173.8,143.2 159.2,142.6 C129.5,141.5 100.5,137 71.3,131.5 C46.6,126.9 18.4,123 0.3,103.8 C-1.687539e-14,103.5 -1.687539e-14,99.1 0.3,98.8 C11.7,87.1 17.7,72 24.3,57.3 C31.4,41.5 40.3,28 54.2,17.3 C59.8,13 66.1,8.7 73.5,10.8 C80.6,12.8 87.1,16.2 94.4,17.9 C110.5,21.5 127.4,21.7 143.8,19.3 C163,16.5 179.9,8.6 197.6,1 C197,1.2 198.2,5.7 197.6,6 C182,12.7 167,20 150.2,23.2 C133.9,26.3 116.9,26.8 100.6,24 C92.7,22.7 85.4,20.4 78,17.4 C71.3,14.6 65.9,14.7 59.6,18.6 C45,27.6 34.3,41.5 27,56.8 C19.2,73.2 13.3,90.6 0.4,103.9 C0.4,102.2 0.4,100.6 0.4,98.9 C15.6,114.9 38.2,120.3 59.1,124.3 C85,129.3 110.8,134.3 137.1,136.4 C151.2,137.6 165.6,138.3 179.8,137.8 C193,137.3 205.1,134.6 217.4,129.8 C222.9,127.7 228.5,125.7 233.8,123.1 C236,122 237.9,120.8 239.6,119 C240.3,118.3 240.8,117.2 241.5,116.6 C241.8,116.1 242,115.6 242.1,115.1 C242.3,117.4 242.2,117.8 241.9,116.4 C241,115.4 240.5,113.1 239.9,112 C238.8,109.8 237.7,107.6 236.8,105.4 C234.2,99.4 231.7,93.3 229.4,87.1 C219.2,59.5 211.4,30.7 196.2,5.3 C195.2,4 196.7,1.4 196,0.2 Z" id="Shape" fill="#000000"></path>
                        </g>
                        <g id="Shape_48_" transform="translate(294.000000, 369.000000)" fill="#000000" fill-rule="nonzero">
                            <path d="M135.6,3.3 C135.6,9.2 138.6,16.3 135,20.5 C132,24.1 120.2,27 115.5,28.2 C103.7,32.3 90.6,34.7 78.2,36.5 C55.1,39.5 20.8,37.1 0.7,25.8 C4.3,21.1 9.6,9.8 14.3,8.6 C18.4,7.4 28.5,11.6 33.8,12.2 C45,14 56.3,15.2 67.5,14.6 C79.9,14 92.4,11.6 104.8,10.5 C114.9,9.8 126.1,7.4 135.6,3.3" id="Shape"></path>
                            <path d="M135.6,0.9 C135.8,6.2 136.9,11.4 136.8,16.8 C136.6,22.3 133.9,24.6 129,26.6 C123.5,28.8 117.7,30 112.1,31.8 C103.4,34.6 94.4,36.4 85.4,37.9 C71.1,40.2 56.6,40.7 42.2,39.4 C28,38.1 13.4,35.2 0.7,28.3 C0.5,28.2 0.5,23.6 0.7,23.3 C5,17.3 9.1,5 18.1,6.1 C22.8,6.7 27.2,8.5 31.8,9.4 C38.3,10.7 45,11.4 51.7,11.9 C66.3,13 80.6,11 95.1,9.1 C109,7.2 122.4,6.4 135.6,0.9 C135,1.1 136.2,5.5 135.6,5.8 C122.4,11.4 109,12.2 95,14 C80.5,15.9 66.2,17.9 51.6,16.8 C45.2,16.3 38.6,15.6 32.3,14.4 C27.5,13.5 22.9,11.6 18.1,11 C9.1,9.9 5,22.2 0.7,28.2 C0.7,26.5 0.7,24.9 0.7,23.2 C21.4,34.5 47.9,36.3 71,34.6 C84.8,33.6 98.9,30.9 112.1,26.7 C119.9,24.2 135.7,23 136.8,12.9 C136.8,13.7 136.8,14.6 136.8,15.4 C136.8,12.2 135.8,8.9 135.7,5.6 C135.5,4.2 135.6,2.1 135.6,0.9 Z" id="Shape"></path>
                        </g>
                        <path d="M381.6,99.4 C382.3,102.1 382.4,104.9 380,106.7 C379.6,107 378.5,106.6 378.2,106.3 C376.3,104.3 375.7,101.5 378.2,99.7 C378.6,99.4 380.3,100.2 380,100.4 C377.8,102 378.2,104.6 380,106.5 C379.4,106.4 378.8,106.2 378.2,106.1 C380.5,104.4 380.4,101.7 379.7,99.1 C379.6,98.7 381.5,99 381.6,99.4 Z" id="Shape_49_" fill="#000000" fill-rule="nonzero"></path>
                        <path d="M381.2,101.9 C381.2,102.6 380.8,103.1 380.4,103.5 C380.1,103.8 378.3,103.1 378.6,102.9 C379,102.5 379.3,102 379.3,101.4 C379.3,101.1 381.2,101.4 381.2,101.9 Z" id="Shape_50_" fill="#000000" fill-rule="nonzero"></path>
                        <path d="M390.2,96.1 C389.2,97.1 388.1,98.2 386.7,98.7 C386.3,98.9 385.6,98.7 385.3,98.3 C385,97.9 385.1,97.5 385.6,97.3 C386.7,96.9 387.6,96 388.4,95.2 C388.7,94.9 389.3,94.8 389.7,95 C390.1,95.3 390.6,95.8 390.2,96.1 Z" id="Shape_51_" fill="#000000" fill-rule="nonzero"></path>
                        <path d="M387.1,95.3 C385.8,96.6 384.5,97.9 383.2,99.2 C382.7,99.7 380.8,99 381.4,98.4 C382.7,97.1 384,95.8 385.3,94.5 C385.8,94 387.7,94.7 387.1,95.3 Z" id="Shape_52_" fill="#000000" fill-rule="nonzero"></path>
                        <path d="M382.3,96.1 C381.2,97.2 380.3,98.5 379,99.4 C378.3,99.9 376.6,98.9 377.5,98.3 C378.7,97.5 379.5,96.3 380.5,95.3 C380.8,95 381.4,94.9 381.8,95.1 C382.2,95.3 382.7,95.8 382.3,96.1 Z" id="Shape_53_" fill="#000000" fill-rule="nonzero"></path>
                        <path d="M330.3,416.5 C320.4,437.3 305.1,456.6 282.6,464.1 C279.2,465.2 273.7,463.4 270.4,462.8 C269.3,462.6 262.9,460.7 263.7,460.4 C285.9,453 300.9,433.7 310.7,413.3 C311.4,411.9 319.5,413.7 320.7,414 C321.3,414 330.6,415.9 330.3,416.5 Z" id="Shape_54_" fill="#000000" fill-rule="nonzero"></path>
                        <path d="M311.3,137.4 C309.1,147.7 307.8,158.2 304.2,168.2 C304.2,168.3 299.4,166.7 299.4,166.8 C303,156.8 304.3,146.3 306.5,136 C306.4,136.1 311.3,137.3 311.3,137.4 Z" id="Shape_55_" fill="#000000" fill-rule="nonzero"></path>
                        <path d="M322.4,94.5 C318.2,91.1 311.9,86.5 306.1,88.7 C302.2,90.1 300.3,94.2 299.8,98 C298.4,109.4 307.2,118.5 318.1,119.6 C319.1,119.7 319.7,121 318.3,120.8 C306.3,119.6 295.7,109.6 297.9,96.8 C298.7,92.3 301.4,88.2 306.1,87.1 C312.5,85.7 318.9,89.9 323.6,93.7 C324.7,94.6 323.1,95 322.4,94.5 Z" id="Shape_56_" fill="#000000" fill-rule="nonzero"></path>
                        <path d="M402.2,128.5 C402.2,132.1 402.2,135.6 402.2,139.2 C402.2,140.3 400.2,140 400.2,139.1 C400.2,135.5 400.2,132 400.2,128.4 C400.2,127.3 402.2,127.6 402.2,128.5 Z" id="Shape_57_" fill="#000000" fill-rule="nonzero"></path>
                        <path d="M402.1,139.4 C402.5,143.8 383.7,139.6 381.5,139.6 C380.9,139.6 379.4,138.7 380.7,138.7 C383.5,138.8 400.5,142.4 400.2,138.9 C400.2,138.5 402.1,138.7 402.1,139.4 Z" id="Shape_58_" fill="#000000" fill-rule="nonzero"></path>
                        <g id="Shape_59_" transform="translate(353.000000, 67.000000)" fill-rule="nonzero">
                            <path d="M1.9,27.9 C1.9,42.5 13,54.4 26.6,54.4 C40.2,54.4 51.3,42.5 51.3,27.9 C51.3,13.3 40.2,1.4 26.6,1.4 C13,1.4 1.9,13.3 1.9,27.9 Z" id="Shape" stroke="#000000" fill="#188E44" opacity="0.35"></path>
                            <path d="M3.4,28.1 C3.7,41.2 13.2,54.3 27.4,53.5 C40.5,52.8 49.9,40.4 49.9,27.8 C49.9,14.7 39.9,1.6 25.9,2.4 C12.5,3.1 3.7,15.5 3.4,28.1 C3.4,29.5 0.5,29 0.5,27.8 C0.8,16.4 7.1,5.6 18.2,1.8 C28.2,-1.6 39.4,1.9 46.1,9.8 C61.5,27.9 47.5,59.4 22.5,55 C9.4,52.7 0.8,40.7 0.5,27.8 C0.4,26.4 3.4,26.9 3.4,28.1 Z" id="Shape" fill="#000000"></path>
                        </g>
                        <path d="M356.9,99.8 C345.2,98.1 334.4,90.8 322.5,91.2 C319.6,91.3 313.1,87.2 318.9,87 C332,86.6 342.9,93.9 355.5,95.8 C356.7,96 360.4,96.8 360.5,98.5 C360.6,100.1 358.1,99.9 356.9,99.8 Z" id="Shape_60_" fill="#000000" fill-rule="nonzero"></path>
                        <path d="M376,34.4 C379.2,42.8 379.2,51.6 372.2,58 C365.6,64.1 356.2,66.9 347.8,69.4 C338.8,72 329.4,73.9 320.9,77.7 C309.8,82.7 301.1,92.2 295.7,103 C288.2,117.9 286.3,135.1 287.3,151.6 C287.3,150.8 284.3,148.6 283.8,148 C283.1,147.3 280.4,145.4 280.4,144.4 C278.8,117.5 285.8,85.7 311.4,71.8 C327.5,63.1 347.8,63.9 362.9,52.8 C371.7,46.4 372.9,37 369.1,27.2 C370.1,30.1 374.9,31.5 376,34.4 Z" id="Shape_61_" fill="#000000" fill-rule="nonzero"></path>
                        <path d="M418.6,223.3 C436,248 461.1,267.5 488.7,279.6 C515.8,291.5 547.1,296.4 575.4,286 C575,286.1 575.4,288.3 575,288.5 C546.6,298.9 515.4,294 488.3,282.1 C460.7,270 435.6,250.5 418.2,225.8 C417.8,225.3 418.9,223.8 418.6,223.3 Z" id="Shape_62_" fill="#000000" fill-rule="nonzero"></path>
                        <path d="M426.6,283.3 C443.7,301 469.9,305.9 493.2,309.4 C508,311.7 522.8,312.6 537.8,311.5 C545.7,310.9 553.5,309.9 561.3,308.7 C570.3,307.3 579.8,306 588.3,302.6 C589.7,302.1 591.8,301.4 592.9,301 C581.1,305.6 569.1,308.3 556.6,310.3 C538.1,313.3 519.4,314.7 500.8,312.7 C474,309.8 441.5,305.2 421.9,284.9 C422.4,285.4 426.1,282.8 426.6,283.3 Z" id="Shape_63_" fill="#000000" fill-rule="nonzero"></path>
                        <path d="M711.3,289.3 C659.2,289.3 607.1,289.3 555.1,289.3 C554.3,289.3 553.5,284.9 552.7,284.9 C604.8,284.9 656.9,284.9 708.9,284.9 C709.7,284.9 710.6,289.3 711.3,289.3 Z" id="Shape_64_" fill="#000000" fill-rule="nonzero"></path>
                        <path d="M556.2,284.9 C556.2,256.1 556.2,227.3 556.2,198.5 C556.2,197.6 556.2,199.3 556.2,199.4 C556.2,200.5 556.2,201.7 556.2,202.8 C556.2,231.6 556.2,260.4 556.2,289.2 C556.2,290.1 556.2,288.4 556.2,288.3 C556.2,287.2 556.2,286.1 556.2,284.9 Z" id="Shape_65_" fill="#000000" fill-rule="nonzero"></path>
                        <path d="M708.1,282.1 C708.1,254.5 708.1,226.9 708.1,199.2 C708.1,200.1 712.2,201.1 712.2,202 C712.2,229.6 712.2,257.2 712.2,284.9 C712.2,284 708.1,283.1 708.1,282.1 Z" id="Shape_66_" fill="#000000" fill-rule="nonzero"></path>
                        <path d="M713.1,201.9 C662.2,201.9 611.3,201.9 560.4,201.9 C559.9,201.9 559.5,197.1 559.1,197.1 C610,197.1 660.9,197.1 711.8,197.1 C712.3,197.1 712.7,201.9 713.1,201.9 Z" id="Shape_67_" fill="#000000" fill-rule="nonzero"></path>
                        <path d="M273.4,27.7 C270.8,36.1 264.3,45.4 255.8,48.7 C247.7,51.8 239.3,47.3 235.5,39.9 C231.4,31.9 233.5,22.3 239.2,15.7 C244.9,9.1 253.7,6.8 262.1,7.6 C290,10.2 286.8,49.3 264,57.5 C256.9,60 248.1,59.3 241.6,55.6 C232.6,50.5 225.2,38.2 230.7,28.2 C231.6,26.5 236.2,28.5 235.3,30.1 C230.7,38.4 235.9,49.4 243.8,53.7 C248.7,56.4 255.3,56.5 260.5,54.7 C269.1,51.6 274.9,43.4 276.9,34.8 C278.7,27.1 277.5,16.8 269.8,12.6 C257.6,6.1 241.8,14.9 238.6,27.5 C236.4,36.2 241.7,50.3 252.8,45.7 C260.6,42.5 266.3,33.7 268.7,26 C269.3,24.1 274,25.9 273.4,27.7 Z" id="Shape_68_" fill="#000000" fill-rule="nonzero"></path>
                        <path d="M338,23.4 C328.8,20.1 319.3,17.1 309.5,16.3 C299.7,15.5 290.2,17.2 281,20.4 C281.1,20.4 279.6,15.6 279.8,15.6 C289,12.4 298.5,10.7 308.3,11.5 C318.1,12.3 327.6,15.4 336.8,18.6 C337.6,18.9 337.1,23.1 338,23.4 Z" id="Shape_69_" fill="#000000" fill-rule="nonzero"></path>
                        <path d="M247.4,25.9 C253.6,22.9 267.6,17.2 270.2,27.7 C271.9,34.3 267.5,43.1 261.8,46.6 C253.4,51.6 245.7,41.6 244.7,33.9 C242.8,18.8 262.8,2.9 275.5,14.9 C286.9,25.7 273.2,44.8 261.5,48.3 C260.6,48.6 260.2,47.1 261.1,46.9 C271.1,43.9 281.5,30.6 277,19.8 C274.1,12.8 264.6,10.7 258.2,13.7 C251.4,16.9 245.7,25.1 246.1,32.8 C246.5,39.7 253.5,50 261.2,45.2 C265.9,42.3 269.2,35.7 269,30.2 C268.6,18.8 254.1,24.4 248.2,27.3 C247.2,27.6 246.5,26.3 247.4,25.9 Z" id="Shape_70_" fill="#000000" fill-rule="nonzero"></path>
                        <path d="M590,300.4 C603.8,293.7 619,297.5 633.5,299.4 C637,299.9 640.6,300.3 644.1,299.5 C648.1,298.6 651.2,296 654.7,294 C660.2,290.9 665.7,289 671.8,287.8 C673.2,287.5 674.7,289.6 672.8,289.9 C665,291.4 658.8,294.6 652,298.6 C647.5,301.3 643.2,302.3 638,302 C622.4,301 606.6,295.1 591.6,302.4 C590.4,303 588.3,301.2 590,300.4 Z" id="Shape_71_" fill="#000000" fill-rule="nonzero"></path>
                    </g>
                    <path d="M78.5,551 C63.8,554 49.2,561.5 37.2,570.4 C36.6,570.9 34.1,569.7 34.5,569.4 C46.6,560.3 61.3,552.9 76.2,549.8 C76.8,549.8 79.2,550.8 78.5,551 Z" id="Shape_72_" fill="#000000" fill-rule="nonzero"></path>
                    <path d="M32.2,560.9 C39,570.3 40.7,580.6 40.8,592.1 C40.8,593 38.9,592.6 38.9,591.9 C38.8,580.6 37.2,570.4 30.5,561.1 C29.9,560.2 31.8,560.3 32.2,560.9 Z" id="Shape_73_" fill="#000000" fill-rule="nonzero"></path>
                    <g id="Group_3_" transform="translate(602.000000, 220.000000)" fill="#FFFFFF" fill-rule="nonzero">
                        <path d="M46.1,27.2 C46.5,38.5 55.3,47.9 67,47.2 C77.5,46.6 85.7,37.3 85.7,27 C85.7,15.3 75.4,5.7 63.6,7.2 C53.4,8.5 46.4,17.3 46.1,27.2 C46.1,27.8 44.6,27.5 44.7,26.9 C45.1,14.8 55.1,5.3 67.3,6.1 C78.3,6.9 87.4,16.1 87.3,27.2 C87.3,39.2 76.8,48.8 64.9,48 C53.6,47.3 45,38.1 44.7,26.9 C44.7,26.4 46.1,26.7 46.1,27.2 Z" id="Shape_74_"></path>
                        <path d="M49.3,11.7 C42,1.4 30.3,7.1 20.2,8.7 C11.9,10 5.1,7.8 0.5,0.6 C0.1,-3.60822483e-16 1.6,0.1 1.9,0.5 C14.1,19.4 38,-6.2 50.7,11.7 C51.1,12.1 49.6,12.1 49.3,11.7 Z" id="Shape_75_"></path>
                        <path d="M41.4,21.5 C32.8,16.7 24.7,21.5 15.8,21.1 C9.4,20.8 5.2,16.9 2.1,11.7 C1.7,11.1 3.2,11.1 3.5,11.6 C6.6,16.7 10.6,20.4 16.9,20.2 C20.1,20.1 23.2,19.3 26.4,18.8 C32.1,17.9 37.3,18.1 42.4,21 C43.2,21.5 41.9,21.8 41.4,21.5 Z" id="Shape_76_"></path>
                        <path d="M41.7,34.4 C35.5,27.5 22.5,34.7 14.4,33.9 C8.3,33.3 4.1,30 0.5,25.2 C0.2,24.8 1.6,25 1.8,25.3 C5.9,30.6 10.6,33.7 17.6,33.3 C22,33.1 26,31.6 30.3,30.9 C35.1,30.1 39.6,30.6 43,34.4 C43.3,34.9 41.9,34.7 41.7,34.4 Z" id="Shape_77_"></path>
                        <path d="M50.8,27.5 C51.2,37.7 60.5,46.3 71,41.9 C77.1,39.4 81.1,33.2 81.1,26.7 C81.1,16.5 71.1,8 60.9,12.3 C54.6,14.9 51.1,20.9 50.8,27.5 C50.8,27.9 47.9,27.5 47.9,26.7 C48.8,4.1 84.1,5.5 84,27.5 C83.9,50.3 48.8,48.5 47.9,26.7 C47.9,26.4 50.8,26.7 50.8,27.5 Z" id="Shape_78_"></path>
                    </g>
                    <path d="M397.3,74.3 C415.5,77.3 418,105.5 401.3,112.5 C400.6,112.8 398,111.7 398.9,111.3 C405.6,108.5 409.3,102.1 409.7,95 C410.1,87.7 406.1,76.8 397.8,75.4 C396.6,75.2 395.2,74 397.3,74.3 Z" id="Shape_79_" fill="#000000" fill-rule="nonzero"></path>
                </g>
            </g>
        </g>
    </g>
</svg>