<svg width="18px" height="24px" viewBox="0 0 18 24" version="1.1" xmlns="http://www.w3.org/2000/svg" xmlns:xlink="http://www.w3.org/1999/xlink">
    <g id="Page-1" stroke="none" stroke-width="1" fill="none" fill-rule="evenodd">
        <g id="00-Landing" transform="translate(-1116.000000, -27.000000)" fill="#0080FF">
            <g id="calculator" transform="translate(1115.884545, 27.589370)">
                <path d="M16.7837833,0.372490966 L1.29974816,0.372490966 C0.731410327,0.372490966 0.268767626,0.835133667 0.268767626,1.40588739 L0.268767626,22.049657 C0.268767626,22.6204107 0.731410327,23.0830534 1.29974816,23.0830534 L16.7837833,23.0830534 C17.354537,23.0830534 17.8171797,22.6204107 17.8171797,22.049657 L17.8171797,1.40588739 C17.8171797,0.835133667 17.354537,0.372490966 16.7837833,0.372490966 Z M2.33314458,5.53222542 L15.7528028,5.53222542 L15.7528028,2.43686793 L2.33314458,2.43686793 L2.33314458,5.53222542 Z M2.33314458,21.0186764 L2.33314458,7.59901827 L15.7528028,7.59901827 L15.7528028,21.0162606 L2.33314458,21.0162606 L2.33314458,21.0186764 Z" id="Fill-1"></path>
                <path d="M6.02522661,8.51222422 L3.88052135,8.51222422 C3.59544647,8.51222422 3.36654101,8.74354557 3.36654101,9.02620456 L3.36654101,11.1709098 C3.36654101,11.4565887 3.59786236,11.68791 3.88052135,11.68791 L6.02522661,11.68791 C6.30848956,11.68791 6.53981092,11.4565887 6.53981092,11.1709098 L6.53981092,9.02620456 C6.5422268,8.74112968 6.31090545,8.51222422 6.02522661,8.51222422 Z" id="Fill-2"></path>
                <path d="M10.1141184,8.51222422 L7.97182899,8.51222422 C7.68615014,8.51222422 7.45482879,8.74354557 7.45482879,9.02620456 L7.45482879,11.1709098 C7.45482879,11.4565887 7.68615014,11.68791 7.97182899,11.68791 L10.1141184,11.68791 C10.3991932,11.68791 10.6305146,11.4565887 10.6305146,11.1709098 L10.6305146,9.02620456 C10.6305146,8.74112968 10.3991932,8.51222422 10.1141184,8.51222422 Z" id="Fill-3"></path>
                <path d="M14.204822,8.51222422 L12.0601168,8.51222422 C11.7774578,8.51222422 11.5461364,8.74354557 11.5461364,9.02620456 L11.5461364,11.1709098 C11.5461364,11.4565887 11.7774578,11.68791 12.0601168,11.68791 L14.204822,11.68791 C14.488085,11.68791 14.7194063,11.4565887 14.7194063,11.1709098 L14.7194063,9.02620456 C14.7194063,8.74112968 14.488085,8.51222422 14.204822,8.51222422 Z" id="Fill-4"></path>
                <path d="M6.02522661,12.7188906 L3.88052135,12.7188906 C3.59544647,12.7188906 3.36654101,12.9496079 3.36654101,13.2352868 L3.36654101,15.379992 C3.36654101,15.6656709 3.59786236,15.8963883 3.88052135,15.8963883 L6.02522661,15.8963883 C6.30848956,15.8963883 6.53981092,15.6656709 6.53981092,15.379992 L6.53981092,13.2352868 C6.5422268,12.9496079 6.31090545,12.7188906 6.02522661,12.7188906 Z" id="Fill-5"></path>
                <path d="M10.1141184,12.7188906 L7.97182899,12.7188906 C7.68615014,12.7188906 7.45482879,12.9496079 7.45482879,13.2352868 L7.45482879,15.379992 C7.45482879,15.6656709 7.68615014,15.8963883 7.97182899,15.8963883 L10.1141184,15.8963883 C10.3991932,15.8963883 10.6305146,15.6656709 10.6305146,15.379992 L10.6305146,13.2352868 C10.6305146,12.9496079 10.3991932,12.7188906 10.1141184,12.7188906 Z" id="Fill-6"></path>
                <path d="M6.02522661,16.9273688 L3.88052135,16.9273688 C3.59544647,16.9273688 3.36654101,17.1586902 3.36654101,17.444369 L3.36654101,19.5890743 C3.36654101,19.8741491 3.59786236,20.1054705 3.88052135,20.1054705 L6.02522661,20.1054705 C6.30848956,20.1054705 6.53981092,19.8741491 6.53981092,19.5890743 L6.53981092,17.444369 C6.5422268,17.1586902 6.31090545,16.9273688 6.02522661,16.9273688 Z" id="Fill-7"></path>
                <path d="M10.1141184,16.9273688 L7.97182899,16.9273688 C7.68615014,16.9273688 7.45482879,17.1586902 7.45482879,17.444369 L7.45482879,19.5890743 C7.45482879,19.8741491 7.68615014,20.1054705 7.97182899,20.1054705 L10.1141184,20.1054705 C10.3991932,20.1054705 10.6305146,19.8741491 10.6305146,19.5890743 L10.6305146,17.444369 C10.6305146,17.1586902 10.3991932,16.9273688 10.1141184,16.9273688 Z" id="Fill-8"></path>
                <path d="M14.204822,12.7188906 L12.0601168,12.7188906 C11.7774578,12.7188906 11.5461364,12.9496079 11.5461364,13.2352868 L11.5461364,19.5890743 C11.5461364,19.8741491 11.7774578,20.1054705 12.0601168,20.1054705 L14.204822,20.1054705 C14.488085,20.1054705 14.7194063,19.8741491 14.7194063,19.5890743 L14.7194063,13.2352868 C14.7194063,12.9496079 14.488085,12.7188906 14.204822,12.7188906 Z" id="Fill-9"></path>
            </g>
        </g>
    </g>
</svg>