<svg width="1915px" height="1080px" viewBox="0 0 1915 1080" version="1.1" xmlns="http://www.w3.org/2000/svg" xmlns:xlink="http://www.w3.org/1999/xlink">
	<g id="Page-1" stroke="none" stroke-width="1" fill="none" fill-rule="evenodd">
		<g id="00-Landing" transform="translate(-5.000000, -28.000000)" fill-rule="nonzero">
			<g id="city1" transform="translate(5.000000, 28.000000)">
				<rect id="Rectangle-path" fill="#E2EFDF" x="0" y="0" width="1920" height="1080"></rect>
				<path d="M1920,643.52 L1886.45,643.52 L1831.13,547.11 L1775.82,643.52 L1719.45,643.52 L1719.45,943.88 L1693.7,943.88 L1693.7,643.52 L1613.87,643.52 L1613.87,943.88 L1597.57,943.88 L1597.57,456.08 L1580,456.08 C1572.79488,437.564563 1555.41908,424.980604 1535.58,423.91 L1532.29,286.29 L1529,424 C1509.66147,425.548949 1492.91112,438.018485 1485.88,456.1 L1463.67,456.1 L1463.67,748 L1432.77,748 L1432.77,689.3 L1364.1,689.3 L1364.1,724.71 L1299.72,724.71 L1299.72,775.71 L1261.1,775.71 L1261.1,943.91 L1244.79,943.91 L1244.79,569.24 L1160.67,569.24 L1160.67,617.67 L1154.67,617.67 L1125.19,566.27 L1095.7,617.67 L1036.18,617.67 L1036.18,535.55 L988.16,535.55 L985.1,407.82 L982,535.55 L945.92,535.55 L945.92,943.88 L892,943.88 L892,709.17 L796.56,709.17 L796.56,943.88 L728.26,943.88 L728.26,645.25 L644.64,645.25 L644.64,943.88 L535.81,943.88 L535.81,544.19 C535.886722,522.007925 518.677219,503.602039 496.54,502.19 L494,396 L491.45,502.21 C469.312781,503.622039 452.103278,522.027925 452.18,544.21 L452.18,943.88 L434.52,943.88 L434.52,612.18 L350.9,612.18 L350.9,943.88 L238.62,943.88 L238.62,734.22 L168.94,734.22 L168.94,943.88 L156.22,943.88 L156.22,643.52 L112.16,643.52 L108.58,494.37 L105,643.52 L60.41,643.52 L60.41,712.62 L0,712.62 L0,1080 L1920,1080 L1920,643.52 Z" id="Shape" fill="#C3DBE9"></path>
				<polygon id="Shape" fill="#AED7B5" points="1920 802.27 1791.55 802.27 1791.55 1047.38 1710.23 1047.38 1710.23 815.11 1569.67 815.11 1569.67 1047.38 1539.55 1047.38 1539.55 777.59 1399 777.59 1399 1047.38 1362.86 1047.38 1362.86 677.87 1273.11 677.87 1273.11 759.82 1234.96 759.82 1234.96 1047.38 1187.16 1047.38 1187.16 842.76 1097.42 842.76 1097.42 1047.38 967.28 1047.38 967.28 863.49 845.8 863.49 845.8 804.25 695.83 804.25 695.83 850.65 560.29 850.65 560.29 1047.38 462.29 1047.38 462.29 921.74 437.19 921.74 437.19 869.41 358.49 869.41 358.49 994.8 277.17 994.81 277.17 790.43 235.07 790.43 235.07 676.41 103.71 676.41 103.71 1047.38 74.92 1047.38 74.92 777.59 0 777.59 0 1080 1920 1080"></polygon>
				<polygon id="Shape" fill="#A7C5DE" points="30.23 925.87 18.44 925.87 18.44 913.34 0 913.34 0 1080 30.23 1080"></polygon>
				<rect id="Rectangle-path" fill="#A7C5DE" x="43.51" y="889.32" width="61.67" height="190.68"></rect>
				<rect id="Rectangle-path" fill="#A7C5DE" x="114.26" y="980.17" width="76.27" height="99.83"></rect>
				<rect id="Rectangle-path" fill="#A7C5DE" x="197.83" y="809.97" width="79.37" height="270.03"></rect>
				<polygon id="Shape" fill="#A7C5DE" points="1857.71 937.36 1805.86 937.36 1805.86 966.59 1783.99 966.59 1783.99 832.41 1704.61 880.45 1704.61 1080 1857.71 1080"></polygon>
				<rect id="Rectangle-path" fill="#A7C5DE" x="1603.36" y="809.97" width="79.38" height="270.03"></rect>
				<rect id="Rectangle-path" fill="#A7C5DE" x="1519.81" y="980.17" width="79.38" height="99.83"></rect>
				<polygon id="Shape" fill="#A7C5DE" points="1240.4 830.85 1156.85 830.85 1156.85 947.79 1123.43 947.79 1123.43 1080 1240.4 1080"></polygon>
				<rect id="Rectangle-path" fill="#A7C5DE" x="971.13" y="889.32" width="79.35" height="190.68"></rect>
				<polygon id="Shape" fill="#A7C5DE" points="947.65 980.17 921.11 980.17 921.11 901.85 838.42 901.85 838.42 941.53 811.95 941.53 811.95 774.46 729.25 774.46 729.25 1080 947.65 1080"></polygon>
				<rect id="Rectangle-path" fill="#A7C5DE" x="557.23" y="856.44" width="82.68" height="223.56"></rect>
				<polygon id="Shape" fill="#A7C5DE" points="1435.77 925.87 1423.97 925.87 1423.97 913.34 1403.09 913.34 1403.09 906.03 1385.4 906.03 1385.4 889.32 1343.62 889.32 1343.62 947.79 1277.76 947.79 1277.76 1080 1435.77 1080"></polygon>
				<rect id="Rectangle-path" fill="#A7C5DE" x="1449.04" y="889.32" width="61.68" height="190.68"></rect>
				<polygon id="Shape" fill="#A7C5DE" points="452.17 937.36 400.32 937.36 400.32 966.59 378.45 966.59 378.45 832.41 299.07 880.45 299.08 1080 452.17 1080"></polygon>
			</g>
		</g>
	</g>
</svg>