<svg width="1483px" height="1118px" viewBox="0 0 1483 1118" version="1.1" xmlns="http://www.w3.org/2000/svg" xmlns:xlink="http://www.w3.org/1999/xlink">
	<g id="Page-1" stroke="none" stroke-width="1" fill="none" fill-rule="evenodd">
		<g id="00-Landing" fill="#ffffff">
			<path d="M700.560004,1117.46986 L700.387912,1117.98387 L-276.248178,1117.98387 L-276.248178,-141.041793 L1319.77251,-141.275958 C1323.92065,-141.620744 1328.11676,-141.796586 1332.35395,-141.796586 C1336.57601,-141.796586 1340.75729,-141.621997 1344.89097,-141.279644 L1364.81599,-141.282567 L1363.68787,-138.515926 C1431.41552,-124.109157 1482.22118,-63.9524039 1482.22118,8.0706474 C1482.22118,90.840035 1415.12333,157.937881 1332.35395,157.937881 C1318.01,157.937881 1304.13673,155.922737 1291.00177,152.160107 C1308.90879,180.402864 1319.27727,213.897266 1319.27727,249.813358 C1319.27727,350.669325 1237.51736,432.42924 1136.66139,432.42924 C1101.99386,432.42924 1069.58257,422.769107 1041.97248,405.993801 C1042.75849,413.029126 1043.16213,420.179984 1043.16213,427.425117 C1043.16213,496.568349 1006.40046,557.125435 951.35614,590.61737 C1027.51245,658.225129 1075.50132,756.862705 1075.50132,866.708682 C1075.50132,963.52743 1038.22002,1051.63866 977.229932,1117.46986 C835.131463,1117.46986 787.490672,1117.46986 700.559928,1117.46986 Z" id="cloud_top_white"></path>
		</g>
	</g>
</svg>