<svg width="20px" height="42px" viewBox="0 0 20 42" version="1.1" xmlns="http://www.w3.org/2000/svg" xmlns:xlink="http://www.w3.org/1999/xlink">
	<g id="Design" stroke="none" stroke-width="1" fill="none" fill-rule="evenodd">
		<g id="Калькулятор" transform="translate(-703.000000, -802.000000)">
			<g id="dollar" transform="translate(703.000000, 804.000000)">
				<path d="M16.045,26.99 C16.045,25.7299937 15.6700037,24.702504 14.92,23.9075 C14.1699962,23.112496 13.2325056,22.4075031 12.1075,21.7925 C10.9824944,21.1774969 9.7600066,20.6000027 8.44,20.06 C7.1199934,19.5199973 5.89750562,18.8675038 4.7725,18.1025 C3.64749437,17.3374962 2.71000375,16.3925056 1.96,15.2675 C1.20999625,14.1424944 0.835,12.7100087 0.835,10.97 C0.835,8.5099877 1.68999145,6.5600072 3.4,5.12 C5.11000855,3.6799928 7.53998425,2.96 10.69,2.96 C12.5200091,2.96 14.1849925,3.09499865 15.685,3.365 C17.1850075,3.63500135 18.3549958,3.9799979 19.195,4.4 L18.07,7.685 C17.3799965,7.35499835 16.3675067,7.0400015 15.0325,6.74 C13.6974933,6.4399985 12.1900084,6.29 10.51,6.29 C8.5299901,6.29 7.04500495,6.73249558 6.055,7.6175 C5.06499505,8.50250442 4.57,9.544994 4.57,10.745 C4.57,11.9150058 4.94499625,12.8899961 5.695,13.67 C6.44500375,14.4500039 7.38249437,15.1474969 8.5075,15.7625 C9.63250562,16.3775031 10.8549934,16.984997 12.175,17.585 C13.4950066,18.185003 14.7174944,18.882496 15.8425,19.6775 C16.9675056,20.472504 17.9049962,21.4249944 18.655,22.535 C19.4050037,23.6450055 19.78,25.0249918 19.78,26.675 C19.78,28.0250067 19.5400024,29.2399946 19.06,30.32 C18.5799976,31.4000054 17.8750046,32.3299961 16.945,33.11 C16.0149953,33.8900039 14.8900066,34.4899979 13.57,34.91 C12.2499934,35.3300021 10.7500084,35.54 9.07,35.54 C6.81998875,35.54 4.96000735,35.3675017 3.49,35.0225 C2.01999265,34.6774983 0.88000405,34.2950021 0.07,33.875 L1.33,30.5 C2.02000345,30.8900019 3.03999325,31.2724981 4.39,31.6475 C5.74000675,32.0225019 7.2549916,32.21 8.935,32.21 C9.92500495,32.21 10.8549956,32.112501 11.725,31.9175 C12.5950043,31.722499 13.3449968,31.4075022 13.975,30.9725 C14.6050031,30.5374978 15.1074981,29.9900033 15.4825,29.33 C15.8575019,28.6699967 16.045,27.8900045 16.045,26.99 Z" id="S" fill="#27292F"></path>
				<path d="M11,0 L11,4.03000021" id="Line-3" stroke="#27292F" stroke-width="3" stroke-linecap="square"></path>
				<path d="M11,34 L11,38.0300002" id="Line-3" stroke="#27292F" stroke-width="3" stroke-linecap="square"></path>
			</g>
		</g>
	</g>
</svg>