<?xml version="1.0" encoding="UTF-8"?>
<svg width="447px" height="1016px" viewBox="0 0 447 1016" version="1.1" xmlns="http://www.w3.org/2000/svg" xmlns:xlink="http://www.w3.org/1999/xlink">
    <!-- Generator: sketchtool 50.2 (55047) - http://www.bohemiancoding.com/sketch -->
    <title>A84E0CC4-50AD-4C7A-8AA3-A83AB45E59D1</title>
    <desc>Created with sketchtool.</desc>
    <defs></defs>
    <g id="Symbols" stroke="none" stroke-width="1" fill="none" fill-rule="evenodd">
        <g id="girl-/-04" transform="translate(-332.000000, -73.000000)">
            <g id="girl04" transform="translate(332.000000, 73.000000)">
                <g id="Layer_2" transform="translate(0.000000, 45.000000)" fill="#FFFFFF" fill-rule="nonzero">
                    <path d="M441.9,239.2 C441.8,239.2 441.8,239.2 441.7,239.2 C441.4,239.2 439.6,239.9 440.3,240 C440.6,240.1 440,240.6 439.2,241.1 C439.2,241.1 439.2,241.1 439.2,241.1 C438.8,241.2 438.4,241.4 438.4,241.6 C437.5,242.1 436.6,242.6 436.5,242.7 C435.8,243 435.2,243.3 434.5,243.5 C434.3,243.6 434.1,243.7 433.9,243.7 C433.5,243.7 433.2,243.8 433.2,243.9 C432.8,243.9 432.3,244 432.2,244.1 C432.2,244.1 432.1,244.2 432.1,244.2 C432.1,244.2 432.1,244.2 432.1,244.2 C432.1,244.2 432,244.3 431.9,244.4 C430.3,245.9 429.3,247.7 428.1,249.5 C426.7,251.6 424.8,253.3 422.2,253.9 C420.8,254.2 418.4,253.6 416.8,253.6 C413.8,253.5 410.8,253.8 407.8,254.3 L407.8,254.1 C408.1,254.1 408.4,254 408.5,253.8 C410.8,251.3 413.9,247 410.7,243.9 C408,241.3 404.3,243 401.5,244.6 C398.2,246.5 395.5,248.5 391.8,249.5 C387.4,250.7 383,250.6 378.5,251.2 C373.8,251.9 369,253.4 364.9,255.7 C357,260.3 353.6,268.7 350.6,276.9 C348.1,283.9 345.4,290.8 342.7,297.7 C342.7,292.4 342.6,287.2 342.3,281.9 C341.6,269 339,255.1 330.5,244.9 C327.1,240.8 323,237.9 318.6,235.8 C322.8,229.6 323.6,219 318.8,213.2 C307.8,199.8 289.5,218 286.8,230 C286.2,230 285.5,230.2 284.9,230.3 L285.5,226 C286,225.9 286.6,225.6 286.5,225.4 C283.3,219.7 280.4,213.1 275.5,208.6 C272.8,206.1 268.3,202.3 264.3,202.8 C261.7,203.1 260.6,205 259.8,207.3 C258.1,212.1 257.7,217.2 255.4,221.8 C254.7,223.2 253.9,224.8 253.1,226.3 C248.3,224.8 243.4,223.5 238.6,221.8 C237.5,216.3 237.6,210.6 238.4,205.2 C238.5,204.6 237.8,204.5 237.3,204.7 L237.2,204.3 C239,203.8 240.7,203.2 242.4,202.5 C256.7,196.6 267.9,184.9 275.9,171.9 C281.7,162.6 285.7,152.5 288.7,142.1 C289.4,143.4 290.4,145 290.2,145.2 C297.2,138.5 311.4,131.7 308.1,119.8 C307.8,118.6 307.4,117.5 306.9,116.4 C305.4,113 303.2,110.2 300.4,109.5 C306.2,109.5 311.9,107.6 317.2,104.1 C324.5,99.3 332,91.7 330.5,82.3 C330.2,80.6 325.5,82.1 325.8,84.1 C327.3,93.7 317.6,101.7 309.7,105.1 C306.1,106.6 302.4,106.9 298.8,106.3 C291.5,88.7 289.9,69.2 281.5,52.1 C275.2,39.1 264,29.4 250.3,25.6 C249.4,24.8 247.7,23.9 247.2,24.1 C246.2,19.8 244.1,15.7 241.2,12.2 C234.9,4.5 225.9,0.5 216.1,0.4 C201.6,0.2 191.5,10 191.7,24.4 C183.3,29.4 175.2,35 168.4,42.2 C161.3,49.7 156.6,58.4 153.2,68.1 C152.2,71 151.2,74 150.2,77 C148.9,81 147.7,85.2 146.7,89.3 C145.6,93.5 144.7,97.8 143.9,102.1 C143.8,102.2 143.7,102.3 143.5,102.4 C134.9,109.7 127.3,119.9 126.7,131.6 C125.9,145.7 136.2,157.6 144,168.3 C144.7,169.2 148.8,166.5 148.2,165.7 C140.3,154.8 129.6,142.5 131.1,128.1 C132,119.2 136.9,111.2 143.4,104.9 C142.9,107.4 142.5,110 142.2,112.5 C140.1,112.7 138.3,114.5 137.2,117.9 C136.1,121.6 136.4,125.1 137.2,128.7 C137.2,128.8 137.2,129 137.2,128.9 C137.2,129.1 137.3,129.3 137.3,129.4 C139.4,139.2 148.4,148.2 156.7,153.3 C155.9,152.8 156.5,149.9 156,148.8 C155.9,148.6 155.8,148.5 155.7,148.4 C148.3,143.9 140.9,136.3 137.3,128.5 C137.3,128.4 137.3,128.3 137.4,128.1 C137.6,127 137.5,125.9 137.7,124.8 C138.1,122.9 138.7,120.8 139.9,119.2 C142.8,115.3 146.3,117.3 148.9,120.5 L150.8,120.3 C151.6,129.6 153.4,139.3 156.3,148.7 C162.1,167.4 172.3,184.8 188.1,195.7 C187.9,195.9 187.8,196.2 187.8,196.5 C190.4,204.7 192.1,215.7 190.3,225.3 C180.8,234.5 164.2,229.6 152.8,226.8 C141.6,224.1 130.7,223.3 120.3,229.3 C110.7,234.8 105.1,243.3 102.8,254 C100.4,265.2 100.4,276.7 96.7,287.6 C95.2,280.6 93.9,273.5 92.3,266.4 C91.1,260.7 89.2,255.1 85.5,250.5 C82.1,246.3 77.4,242.7 73.3,239.2 C69.6,236 65.7,232.3 61.2,230.2 C59.2,229.2 54.3,227.2 51.9,228.7 C48.5,230.9 53.3,237.2 55.7,241 C54.3,240.7 52.9,240.3 51.5,239.9 C44.8,237.9 39.9,235.2 35,230.3 C29.6,225 23.1,216.6 14.5,217.6 C14,217.6 13.5,217.9 13.4,218.4 C13.2,219.1 13.2,219.7 13.2,220.2 C9.6,217.7 5.1,215.2 1.1,216.6 C0.8,216.7 0.4,217 0.5,217.3 C1.3,220.2 2.4,222.9 4.3,224.6 C3.7,224.5 3,224.5 2.4,224.5 C2.1,224.5 1.8,224.5 1.6,224.6 C1.3,224.7 0.4,224.9 0.5,225.5 C2.1,231.3 6.7,236.2 11.8,240 C9.6,239.4 7.4,239 5.1,239.3 C4.6,239.4 4.8,240.1 5,240.4 C12.2,252.1 25.7,254.2 37.5,258.6 C53.5,264.7 68.9,276.6 73.4,293.6 C80.1,318.9 74.3,345.5 77.6,371.2 C79.8,388.7 86.2,417.1 107.7,420 C118.2,421.4 128.3,416 133.1,406.7 C137,399.4 138.2,390.9 138.3,382.5 C143.2,391.3 148.2,400 151.1,409.7 C150.7,409.5 150.3,409.3 149.8,409 C149.5,407.8 149.2,406.5 148.8,405.3 C148.4,404 145.5,404.7 145.9,406.1 C146.2,407.2 146.5,408.3 146.8,409.4 C146.5,409.8 146.5,410.1 147,410.4 C147,410.4 147,410.4 147,410.4 C148.7,417.9 149.4,425.2 149.9,433 C150.1,436.3 150.1,440.4 152.7,442.9 C130,449.1 110.5,466.3 98.6,486.3 C91.9,497.6 85.8,509.4 79.2,520.9 C72.7,532.3 66.4,544 62.1,556.5 C61.9,556.9 62,561.5 62.1,561.5 C73.8,563.7 83.7,570 94.1,575.3 C99.2,577.9 104.3,580.2 109.8,581.6 C116.9,583.4 124.5,583.9 131.8,584.6 C135.4,585 139.1,585.3 142.7,585.6 C144.7,590.8 146.6,596.1 148.1,601.4 C149.6,606.8 151.7,613.6 149.7,619.1 C148,623.8 144.7,628.2 142.5,632.7 C139.4,639.3 136.7,646.1 134.6,653.1 C130.7,665.7 128.4,678.8 127.2,691.9 C124.8,718.7 127.2,745.7 130,772.4 C133,801.6 136.7,830.8 136,860.2 C135.9,860.3 135.8,860.4 135.6,860.5 C119.7,879.1 136.9,905.1 143.8,923.8 C147.3,933.4 148.8,943.9 153.3,953.2 C157,960.8 163.2,965.4 171.3,967.7 C183.5,971.1 204,972 208.4,956.6 C212.3,942.9 204.3,926.3 198.9,914.1 C194.9,905 190.4,896.1 186.2,887.1 C183.2,880.6 179.6,873.7 178.5,866.6 C178.3,865.6 177.6,865.1 176.8,865 C178,864.3 178.9,863.6 178.8,863.2 C170.8,832.9 183.7,801.2 191.8,772.3 C201.3,738.6 204.4,704 200.7,669.2 C205.4,643.1 209,616.6 209.3,590 C211.2,590.1 213.1,590.2 215,590.2 C219.2,617 229.8,642.4 235,669 C235.1,669.5 235.6,669.8 236.3,669.9 C235.3,670.5 234.7,671.2 235.6,671.5 C236.3,671.7 237,671.8 237.7,672 C234.8,704.5 237.6,738 245.6,769.6 C249.6,785.6 254.2,801.5 257.2,817.7 C257.6,819.7 257.9,821.8 258.2,823.9 C260.2,837.6 260.7,852.8 257,867.1 C256,866.9 255.1,867.1 255.1,868.1 C255.7,879.2 251.3,888.2 246.2,897 C245.8,897 245.4,897 245,897 C242.7,897.1 242.7,899.5 244,900.8 C241,905.8 237.9,910.9 235.6,916.5 C230.8,927.8 226.9,947 239.4,955 C241.6,956.4 243.9,957.3 246.3,957.7 C256,959.5 266.7,954.3 274.1,948.4 C288.5,937 299.5,920.9 305.6,903.6 C312.3,884.5 312.4,863.4 301.8,845.7 C301.2,844.7 298.9,844.1 297.9,844.5 C299.3,795 310.5,746 306.9,696.4 C305.1,671.9 298.6,648.7 288.4,626.4 C287.2,623.7 285.9,621.1 284.5,618.5 C284.2,618 284,617.5 283.7,617 C283.7,614.5 283.6,612.2 284.1,609.6 C285.6,601.3 288.7,593.3 291.7,585.5 C292.4,583.8 293,582.1 293.7,580.4 C303.7,580.3 313.8,580.5 323.8,580 C336.2,579.4 350.9,578.7 361.9,572.1 C367.3,568.9 369.9,563.7 370.2,558 C370.4,555.3 370,552.5 369.3,549.7 C368.2,545.7 366.1,541.9 364.4,538.2 C361.5,531.9 358.5,525.7 355.3,519.6 C349.9,509.2 344.3,498.5 337,489.2 C325.9,475.2 314,461.3 300.1,450 C295.1,445.9 288.9,441.1 282.3,439.2 C284.2,435.2 283.7,430 283.7,425.8 C283.7,423.1 283.6,420.4 283.4,417.7 C283.3,415.2 284.1,413.6 284.6,411.2 C284.7,410.5 283.8,410.2 283.3,410.2 C283,410.2 282.7,410.2 282.3,410.2 C283.1,409.2 284.7,408.4 284.9,407.2 C286.9,394.7 293.8,384.2 300.7,373.9 C300.7,373.9 300.7,373.8 300.8,373.8 L301.2,373.8 C301.2,384.6 301.9,395.5 304.6,405.7 C306.3,412.2 309.3,419.2 315.5,422.5 C323.4,426.6 333.8,423.5 340.2,417.9 C348.5,410.7 352.7,399.5 355.4,389.2 C358.1,379.1 359.5,368.6 360.6,358.2 C361.7,347.9 360.5,337.6 359.6,327.4 C359.3,323.8 358.9,319.9 358.9,316 C358.7,305.1 360.4,293.9 370.1,287.6 C370.5,287.3 370.3,286.1 370.1,284.9 C370.2,284.9 370.3,284.9 370.5,284.8 C387.8,278.8 406.1,276.6 422.9,269 C430.2,265.7 437.8,261.4 442.3,254.6 C444.5,251.3 445.4,247.8 445.8,243.9 C446.8,240.2 445.8,239.7 441.9,239.2 Z M284.5,232.7 C284.5,232.5 284.4,232.3 284.3,232.2 C284.4,232.2 284.6,232.1 284.7,232.1 C284.9,232 285,232 285.2,231.9 C286.3,231.9 287.3,231.9 288.4,231.9 L290.5,233.6 C290.5,235.3 290.4,236.9 290.3,238.6 C288.2,239 286.6,237.6 285.6,235.7 C285.7,234.8 285.9,234 286,233.1 C286.2,232.3 285.1,232.3 284.5,232.7 Z M292.4,237.7 C292.4,236.8 292.5,236 292.5,235.1 L293.3,235.8 C292.8,236 292.5,236.4 293,236.6 C293.2,236.7 293.3,236.8 293.5,236.8 C293.2,237.2 292.9,237.5 292.4,237.7 Z M305.1,115.2 C305.8,115.7 306.2,116.3 306.5,117 C307.5,119.3 306.6,122.3 305.5,124.6 C302.1,131.1 295.1,135 289.7,139.8 C291.8,132 293.4,123.9 294.6,115.9 C295,116.6 295.3,117.2 295.1,117.4 C297.8,114.6 301.5,112.6 305.1,115.2 Z" id="Shape"></path>
                </g>
                <g id="Layer_1">
                    <path d="M192.9,716.9 C197.2,752.9 194.2,788.7 184.4,823.6 C176.3,852.5 163.4,884.2 171.4,914.5 C171.1,913.4 179.8,909.9 179.5,908.6 C171.5,878.3 184.4,846.6 192.5,817.7 C202.3,782.9 205.3,747 201,711 C201.2,712.6 192.7,715.2 192.9,716.9 Z" id="Shape" fill="#000000" fill-rule="nonzero"></path>
                    <path d="M143.9,902.2 C145.8,847.5 131.7,793.4 134.7,738.7 C136.1,712 142.2,685.6 155.3,662.1 C158.7,656 158.8,651.3 157.3,644.5 C155.5,636.4 152.4,628.5 149.4,620.8 C145.8,611.5 141.8,602.3 138.6,592.8 C136.6,586.8 133.6,579.3 135.3,572.9 C134.6,575.6 128.7,576.9 127.9,579.7 C126.4,585.3 128.7,591.9 130.4,597.3 C133,605.6 136.4,613.7 139.6,621.7 C142.9,630 146.3,638.2 148.7,646.8 C150.2,652.2 152.3,659 150.3,664.5 C148.6,669.2 145.3,673.6 143.1,678.1 C140,684.7 137.3,691.5 135.2,698.5 C131.3,711.1 129,724.2 127.8,737.3 C125.4,764.1 127.8,791.1 130.6,817.8 C133.7,848.1 137.6,878.5 136.5,909 C136.5,908.4 139.7,906.1 140.2,905.7 C140.9,905 143.8,903 143.9,902.2 Z" id="Shape" fill="#000000" fill-rule="nonzero"></path>
                    <path d="M239.3,709 C235.3,742.4 237.6,776.7 245,809.5 C248.7,825.7 254.1,841.5 258.4,857.6 C262.7,873.9 265.3,890 260.9,906.6 C260.1,909.6 263,913.6 262.2,916.5 C265.9,902.6 264.5,888.7 262.6,874.6 C260.5,859.7 256.6,845.2 252.4,830.8 C247.2,813.3 241.8,795.7 240,777.5 C238.1,758 238.4,738.3 240.7,718.9 C241,715.7 239,712.2 239.3,709 Z" id="Shape" fill="#000000" fill-rule="nonzero"></path>
                    <path d="M298.7,910.2 C296.7,853.8 311.8,798.1 307.6,741.7 C305.8,717.2 299.3,694 289.1,671.7 C287.9,669 286.6,666.4 285.2,663.8 C284.4,662.3 283.6,660.7 282.7,659.2 C279.2,653.5 284.5,667.7 284.5,664 C284.5,660.9 284.3,658.1 284.9,654.9 C286.4,646.6 289.5,638.6 292.5,630.8 C296.3,621.1 300.4,611.5 303.8,601.6 C305.9,595.4 309.2,587.4 307.4,580.8 C306.5,577.6 304.5,574.7 303.6,571.5 C305.1,577.3 302.7,584.1 301,589.5 C298.3,598 294.8,606.3 291.5,614.5 C288.2,622.7 284.9,630.9 282.6,639.4 C281.1,645 279.5,651.2 281.5,656.8 C284.8,666.4 290.8,674.5 294.3,684 C299.2,697.3 302,711.5 303.4,725.7 C306.2,753 303.9,780.6 301.1,807.8 C297.9,838.7 293.9,869.6 295,900.7 C295,904.1 298.5,907.1 298.7,910.2 Z" id="Shape" fill="#000000" fill-rule="nonzero"></path>
                    <path d="M147.8,274.6 L156.5,275.5 C156.5,275.5 158.9,312.1 167.5,327.4 C167.5,327.4 179.1,357.4 215.9,356.5 C215.9,356.5 264,358.1 277.2,307.2 L289.5,277.2 C289.5,277.2 284,317.6 285.2,333.9 C286.4,350.1 285.7,370.1 303.4,370.1 L300,417.8 L283,454.4 L280.7,454.4 L277.3,465.4 L183.6,474.8 L159.5,470.9 L153.7,454.4 L138.4,421 C138.4,421 139.9,407.2 135.1,384.9 C135.1,384.9 128.1,354.1 130.1,350.1 C130.1,350.1 149.1,319.8 149.5,304.8 L147.8,274.6 Z" id="Shape" fill="#4377BB" fill-rule="nonzero" opacity="0.37"></path>
                    <g id="Group" transform="translate(221.000000, 132.000000)" fill-rule="nonzero">
                        <path d="M59.7,32.6 C59.7,49.8 46.7,63.7 30.7,63.7 C14.7,63.7 1.7,49.8 1.7,32.6 C1.7,15.4 14.7,1.5 30.7,1.5 C46.7,1.5 59.7,15.4 59.7,32.6 Z" id="Shape" stroke="#000000" fill="#188E44" opacity="0.35"></path>
                        <path d="M58.2,32.7 C57.9,47.9 47.1,62.7 30.8,62.6 C14.8,62.5 3.2,47.7 3.2,32.5 C3.2,17.3 14.6,2.5 30.6,2.6 C46.8,2.6 57.9,17.4 58.2,32.7 C58.2,34.2 61.2,33.8 61.1,32.5 C60.8,19.2 53.3,6.5 40.4,2 C28.6,-2.1 15.5,2.1 7.7,11.6 C-0.8,22 -2.1,37.2 4.3,48.9 C10.5,60.2 23.4,66.7 36.1,64.2 C51.1,61.2 60.7,47.3 61.1,32.5 C61.2,30.9 58.2,31.3 58.2,32.7 Z" id="Shape" fill="#000000"></path>
                    </g>
                    <g id="Group" transform="translate(62.000000, 483.000000)" fill-rule="nonzero">
                        <path d="M93.7,7.1 C68.7,12.6 45.2,34.5 34.3,56.4 C23.4,77.5 7.7,100.2 0.7,121.3 C19.5,124.4 33.5,139.3 53.1,142.4 C71.1,144.7 89.1,146.3 107.1,147.1 C125.1,147.9 143.1,150.2 160.3,150.2 C180.6,150.2 198.6,143.2 217.4,140.8 C237.7,138.5 323.8,147.8 306.6,110.3 C298.8,93.1 288.6,72 277.7,56.3 C266.7,42.2 234.7,3.1 215.9,3.1 C207.3,3.1 193.2,10.1 183.8,11.7 C172.9,13.3 162.7,14.8 152.5,15.6 C131.4,17.2 113.4,7.8 93.1,7.8" id="Shape" fill="#D81B54"></path>
                        <path d="M93.7,4.6 C69.9,10.1 49.4,27.9 37.1,48.6 C30.4,59.9 24.3,71.7 17.7,83.2 C11.2,94.6 4.9,106.3 0.6,118.8 C0.5,119.2 0.5,123.8 0.6,123.8 C12.3,126 22.2,132.3 32.6,137.6 C37.6,140.2 42.8,142.5 48.3,143.9 C55.4,145.7 63,146.2 70.3,146.9 C85.1,148.4 99.8,149.1 114.6,150 C128.5,150.9 142.4,152.4 156.4,152.7 C170.2,152.9 183.4,150.2 196.9,147.2 C205.5,145.3 214.2,143.3 223.1,143 C236.2,142.6 249.3,143.1 262.4,142.4 C274.9,141.8 289.5,141.1 300.5,134.5 C308.5,129.7 310.2,120.7 307.9,112.1 C306.8,108.1 304.7,104.3 303,100.5 C300.1,94.2 297.1,88 293.9,81.9 C288.5,71.5 282.9,60.8 275.5,51.5 C264.4,37.5 252.5,23.6 238.6,12.3 C232.4,7.3 224.6,1.2 216.3,0.8 C204.8,0.2 193.7,7.8 182.5,9.5 C167.4,11.9 151.7,14.7 136.4,12.7 C121.7,10.7 107.6,5.7 92.7,5.5 C92.7,5.5 92.6,10.5 92.7,10.5 C105.3,10.7 117.3,14.2 129.6,16.6 C142.7,19.1 155.2,18.3 168.4,16.6 C174.6,15.8 181.1,15.2 187.1,13.7 C192.4,12.3 197.4,10.3 202.6,8.7 C210.6,6.1 217.4,4.9 225.2,8.6 C240.9,16.2 253.6,31 264.8,44 C269.7,49.7 274.8,55.5 279,61.8 C286.1,72.3 292,83.6 297.6,94.9 C301.7,103.3 305.6,111.5 308.3,120.4 C307.5,117.8 308.7,118.4 308.2,119.7 C308,120.1 308,120.7 307.8,121.1 C307.5,122.1 307,123 306.5,123.9 C305.3,125.8 303.7,127.3 301.9,128.6 C292.2,135.6 278.1,136.5 266.5,137.3 C253.3,138.2 240.1,137.9 226.8,138.1 C207.7,138.3 189.6,145.2 170.7,147.3 C155.2,149 139.4,147.1 124,145.9 C108.6,144.7 93.2,144.2 77.8,142.9 C63.1,141.6 48.6,140.7 35.1,134.2 C23.6,128.7 13.1,121.4 0.3,119 C0.3,120.7 0.3,122.3 0.3,124 C4.6,111.5 10.9,99.9 17.4,88.4 C23.9,76.9 30.1,65.2 36.8,53.8 C49,33.1 69.6,15.3 93.4,9.8 C94.1,9.5 93.4,4.7 93.7,4.6 Z" id="Shape" fill="#000000"></path>
                    </g>
                    <g id="Group" opacity="0.27" transform="translate(194.000000, 258.000000)" fill-rule="nonzero">
                        <g id="Shape" opacity="0.85">
                            <g>
                                <g opacity="0.9">
                                    <path d="M11.1,10.9 C11,11.1 10.8,11.3 10.6,11.6 L10.9,11.9 L11,12 C11,11.7 11.1,11.3 11.1,10.9 Z" fill="#EFE5D8"></path>
                                    <path d="M11.4,6.9 C11,7.7 11.4,8.3 11.5,9 C11.6,8.2 11.6,7.4 11.4,6.9 Z" fill="#EFE5D8"></path>
                                    <path d="M6.1,9.8 C6.1,9.9 6,10.1 5.9,10.2 L6.7,10.5 L6.8,10.2 C6.5,10 6.3,9.9 6.1,9.8 Z" fill="#EFE5D8"></path>
                                    <path d="M9.9,12 C8.8,11.3 9.7,8.2 7.4,9 C7.2,9.5 7.1,9.9 7,10.3 C7.5,10.6 8,10.9 8.4,11.3 C8.7,11.5 8.9,11.7 9.1,12 C9.3,12.2 9.5,12.5 9.6,12.7 C10,12.3 10.4,11.9 10.6,11.6 C10.4,11.4 10.3,11.2 10.1,11.1 C10.1,11.4 10,11.7 9.9,12 Z" fill="#EFE5D8"></path>
                                    <path d="M6.9,10.6 C7.4,10.8 7.9,11 8.4,11.3 C8,10.9 7.5,10.6 7,10.3 C6.9,10.4 6.9,10.5 6.9,10.6 Z" fill="#EFE5D8"></path>
                                    <path d="M10.9,8.4 C11,9 10.5,10.1 10.2,11 C10.3,11.2 10.5,11.4 10.7,11.5 C10.9,11.2 11.1,11 11.2,10.8 C11.3,9.8 11.6,8.7 10.9,8.4 Z" fill="#EFE5D8"></path>
                                    <path d="M11.5,9 C11.5,9.5 11.4,10 11.3,10.5 C11.6,9.9 11.6,9.4 11.5,9 Z" fill="#EFE5D8"></path>
                                    <path d="M9.1,12 C8.9,11.7 8.6,11.5 8.4,11.3 C8.6,11.5 8.9,11.8 9.1,12 Z" fill="#EFE5D8"></path>
                                    <path d="M5.3,9.4 C5.3,9.5 5.3,9.6 5.3,9.8 C5.4,9.9 5.5,10 5.6,10.1 L5.7,10.2 L5.9,10.3 C6,10.2 6,10 6.1,9.9 L5.3,9.4 Z" fill="#EFE5D8"></path>
                                    <path d="M6.6,6.2 C6.6,6.3 6.5,6.4 6.5,6.5 L6.9,6.8 C6.8,6.6 6.7,6.4 6.6,6.2 Z" fill="#EFE5D8"></path>
                                    <path d="M9.5,12.9 C9.6,12.8 9.6,12.8 9.7,12.7 C9.5,12.5 9.4,12.2 9.2,12 C9.2,12.3 9.4,12.5 9.5,12.9 Z" fill="#EFE5D8"></path>
                                    <path d="M6.5,6.5 C6,6.1 5.4,5.7 4.7,5.4 C4.8,6.3 4.8,7.1 5.1,7.8 C5.3,8.2 5.3,8.7 5.3,9.3 L6.1,9.7 C6.5,8.4 5.8,8.2 6.5,6.5 Z" fill="#EFE5D8"></path>
                                    <path d="M6.8,10.2 L7,10.3 C7.1,9.9 7.3,9.5 7.4,9 C9.8,8.2 8.9,11.3 9.9,12 C9.9,11.7 10,11.4 10.2,11 C9.1,9.6 8.2,8.1 6.9,6.9 C7.1,7.7 7,8.9 6.8,10.2 Z" fill="#EFE5D8"></path>
                                    <path d="M6.1,9.8 C6.3,9.9 6.6,10.1 6.8,10.2 C7,8.9 7.1,7.8 6.9,6.9 L6.5,6.6 C5.8,8.2 6.5,8.4 6.1,9.8 Z" fill="#EFE5D8"></path>
                                    <path d="M6.8,10.2 L6.7,10.5 L6.9,10.6 C6.9,10.5 7,10.4 7,10.3 L6.8,10.2 Z" fill="#EFE5D8"></path>
                                    <path d="M11.1,12.1 C11.1,12.1 11.1,12 11.1,12 L11,11.9 L10.7,11.6 C10.4,11.9 10.1,12.3 9.7,12.7 C10.1,13.2 10.3,13.8 10.5,14.5 C10.6,14.5 10.8,14.5 10.9,14.4 C10.8,13.8 10.9,13 11.1,12.1 Z" fill="#EFE5D8"></path>
                                    <path d="M6.7,10.5 L6.6,10.7 C6.6,10.7 6.7,10.8 6.7,10.8 L6.8,10.5 L6.7,10.5 Z" fill="#EFE5D8"></path>
                                    <polygon fill="#EFE5D8" points="5.7 10.1 5.9 10.2 5.9 10.2"></polygon>
                                    <path d="M5.9,10.2 C6.2,10.4 6.4,10.5 6.7,10.7 L6.8,10.5 L5.9,10.2 Z" fill="#EFE5D8"></path>
                                    <path d="M9.5,12.9 C9.4,12.6 9.3,12.3 9.1,12.1 C8.9,11.8 8.6,11.6 8.4,11.4 C8,11.1 7.5,10.9 6.9,10.7 L6.8,11 C7.1,11.3 7.3,11.6 7.5,12 C8.2,12.6 9,12.9 9.2,13.9 C9.5,14.2 9.7,14.6 10.5,14.6 C10.3,13.9 10.1,13.3 9.7,12.8 C9.6,12.8 9.5,12.8 9.5,12.9 Z" fill="#EFE5D8"></path>
                                    <path d="M14.8,14.2 C14,13.5 12.8,13.1 11.8,12.6 C11.6,13.5 11.4,14.4 11,15.3 C11.1,15.4 11.1,15.5 11.2,15.6 C11.6,15.4 11.9,15.2 11.9,15.4 C11.9,15.6 11.8,15.8 11.8,15.9 C12.4,16 13.4,15.9 14.8,15.4 C14.9,14.9 14.9,14.5 14.8,14.2 Z" fill="#EFE5D8"></path>
                                    <path d="M11,15 C10.9,15.2 10.8,15.5 10.8,15.7 C10.8,15.7 10.9,15.7 11,15.6 L11.2,15.1 C11.1,15.2 11,15.1 11,15 Z" fill="#EFE5D8"></path>
                                    <path d="M15,15.9 L15,15.3 C13.5,15.8 12.6,15.9 12,15.8 C11.9,16.4 11.8,16.9 12,17.2 C12.4,17.2 14.2,16 14.1,16.3 C13.9,16.9 13.6,17.6 13.6,18.2 C13.5,18.7 13.8,19 14.8,18.9 C16,19.4 17.1,20.3 19.3,20.9 C18.5,19.7 17.6,18.9 16.8,18.2 C16.1,17.4 15.4,16.7 15,15.9 Z" fill="#EFE5D8"></path>
                                    <path d="M10.9,15.7 C11,15.6 11.1,15.6 11.3,15.5 C11.2,15.4 11.1,15.3 11.1,15.2 L10.9,15.7 Z" fill="#EFE5D8"></path>
                                    <path d="M5.3,9.4 L4.8,9.2 C4.9,9.4 5.1,9.6 5.3,9.8 C5.3,9.6 5.3,9.5 5.3,9.4 Z" fill="#EFE5D8"></path>
                                    <path d="M11.2,12.1 C11.1,12 11.1,12.1 11.2,12.1 C11.1,12.2 11.1,12.2 11.1,12.2 C11.1,12.1 11.1,12.1 11.2,12.1 Z" fill="#EFE5D8"></path>
                                    <path d="M12.1,9.3 C12.1,10.1 11.8,10.9 11.2,12.1 C11.4,12.3 11.6,12.4 11.9,12.6 C12.1,11.3 12.2,10.2 12.1,9.3 Z" fill="#EFE5D8"></path>
                                    <path d="M11.1,12.2 C11.1,12.2 11.1,12.1 11.1,12.2 C10.9,13 10.8,13.8 10.9,14.5 C10.9,14.5 11,14.5 11,14.5 C11.2,14.5 11.1,14.8 11,15.1 C11,15.2 11.1,15.2 11.1,15.3 C11.4,14.4 11.7,13.5 11.9,12.6 C11.6,12.5 11.4,12.3 11.2,12.1 C11.1,12.1 11.1,12.1 11.1,12.2 Z" fill="#EFE5D8"></path>
                                    <path d="M11.3,10.5 C11.2,10.6 11.2,10.7 11.1,10.9 C11,11.3 11,11.7 11,12 C11.2,11.5 11.2,11 11.3,10.5 Z" fill="#EFE5D8"></path>
                                    <path d="M11,12 C11,12 11,12.1 11,12.1 C11.1,12.1 11.1,12 11,12 Z" fill="#EFE5D8"></path>
                                    <path d="M6.5,6.5 C6.5,6.4 6.6,6.3 6.6,6.2 C6.7,6.4 6.8,6.6 6.9,6.9 C8.2,8.1 9.1,9.7 10.2,11 C10.5,10.1 11.1,9 10.9,8.4 C11.6,8.7 11.3,9.8 11.1,10.8 C11.2,10.7 11.2,10.6 11.3,10.4 C11.4,9.9 11.5,9.4 11.5,8.9 C11.4,8.2 11,7.6 11.4,6.8 C11.6,7.3 11.6,8.1 11.5,8.9 C11.6,9.3 11.6,9.8 11.3,10.4 C11.2,10.9 11.1,11.4 11,11.9 L11.1,12 C11.7,10.8 12,10 12,9.2 C12.1,10.2 12,11.3 11.7,12.5 C12.7,13 13.9,13.4 14.7,14.1 C14.5,12.2 14.1,10.3 13,8.9 C13,8.4 12.6,8.2 12.2,8 C11.4,8 12.3,6.4 11.4,6.4 C8.6,6.2 7.5,4.3 7.3,1.1 C7.3,0.6 6.1,1.3 4.9,2 C4.6,2.2 4.2,2.5 3.8,2.9 C4.3,3.5 4.4,4.4 4.5,5.4 C5.4,5.7 6,6.1 6.5,6.5 Z" fill="#EFE5D8"></path>
                                    <path d="M5.1,7.9 C4.9,7.2 4.8,6.3 4.7,5.5 C4,5.2 3.1,5.1 2.2,5.1 C1.8,5.6 1.5,6 1.4,6.3 C-0.1,8.5 2.5,6.2 2.9,6.5 C3.8,7.1 4.2,8.3 4.8,9.2 L5.3,9.4 C5.3,8.8 5.3,8.3 5.1,7.9 Z" fill="#EFE5D8"></path>
                                    <path d="M4,3 C3.4,3.6 2.7,4.4 2.2,5.1 C3.2,5.1 4,5.2 4.7,5.5 C4.6,4.5 4.5,3.6 4,3 Z" fill="#EFE5D8"></path>
                                    <path d="M9.1,12 C8.9,11.7 8.6,11.5 8.4,11.3 C8.6,11.5 8.9,11.8 9.1,12 Z" fill="#E2CDB4"></path>
                                    <path d="M5.3,9.7 C5.4,9.8 5.5,9.9 5.6,10 L5.7,10 C5.7,10 5.8,9.9 5.8,9.9 C5.8,9.8 5.8,9.8 5.8,9.7 C5.9,9.7 6,9.7 6,9.7 L5.2,9.3 L5.3,9.7 Z" fill="#E2CDB4"></path>
                                    <path d="M10.1,14.4 C10.2,14.3 10.3,14.3 10.4,14.2 L10.4,14.1 C10.3,14.1 10.2,14.3 10.1,14.4 Z" fill="#E2CDB4"></path>
                                    <path d="M6.6,6.2 C6.6,6.3 6.5,6.4 6.5,6.5 L6.9,6.8 C6.8,6.6 6.7,6.4 6.6,6.2 Z" fill="#E2CDB4"></path>
                                    <path d="M9.5,12.9 C9.4,12.6 9.3,12.3 9.1,12.1 C8.9,11.8 8.6,11.6 8.4,11.4 C8,11.1 7.5,10.9 6.9,10.7 L6.9,10.8 C7,10.8 7.1,10.8 7.2,10.8 L7,10.9 C7,10.9 7,11 7,11 C7.1,11.2 7.3,11.3 7.4,11.6 C7.5,11.6 7.6,11.7 7.5,11.9 C7.9,12.2 8.2,12.4 8.5,12.7 C8.6,12.6 8.7,12.5 8.8,12.4 C8.8,12.5 8.8,12.7 8.7,12.9 C8.9,13.1 9,13.3 9.1,13.5 C9.3,13.4 9.5,13 9.7,12.9 C9.7,12.9 9.7,12.9 9.7,12.9 L9.6,12.8 C9.6,12.8 9.5,12.8 9.5,12.9 Z" fill="#E2CDB4"></path>
                                    <path d="M6.7,10.5 L6.7,10.7 C6.7,10.7 6.8,10.7 6.8,10.7 L6.8,10.6 L6.7,10.5 Z" fill="#E2CDB4"></path>
                                    <path d="M10.9,13.7 C10.9,13.2 11,12.6 11.1,12.1 C11.1,12.1 11.1,12 11.1,12 L11,11.9 L10.7,11.6 C10.4,11.9 10.1,12.3 9.7,12.7 L9.8,12.8 C9.9,12.8 9.9,12.8 9.9,12.9 C10.1,13.2 10.3,13.6 10.4,14 C10.5,14 10.5,14 10.4,14.1 L10.4,14.2 C10.5,14 10.7,13.8 10.9,13.7 Z" fill="#E2CDB4"></path>
                                    <polygon fill="#E2CDB4" points="15.8 16.6 15.9 16.6"></polygon>
                                    <path d="M14.9,14.2 C14.1,13.5 12.8,13.1 11.9,12.6 C11.8,13.3 11.6,13.9 11.4,14.6 C11.4,14.6 11.4,14.6 11.4,14.7 L11.3,14.7 L11.2,14.9 C11.4,14.8 11.5,14.6 11.8,14.4 C11.6,14.7 11.9,14.7 11.3,15.2 C11.3,15.2 11.2,15.3 11.2,15.3 C11.2,15.4 11.3,15.4 11.3,15.5 C11.7,15.3 12.1,15.1 12.1,15.2 L12.1,15.3 C12.1,15.3 12.1,15.4 12.1,15.5 C12.8,15 13.1,14.5 13.3,14.4 C13.9,14.3 13.1,15.1 12.1,15.8 C12.7,15.9 13.7,15.8 15.1,15.3 L14.9,14.2 Z" fill="#E6D4BE"></path>
                                    <path d="M15.9,16.6 C15.5,16.4 15.2,16.2 15.1,15.9 L15.1,15.4 C13.7,15.9 12.7,16 12.1,15.9 C12.1,15.9 12,15.9 12,16 C11.9,16.5 11.9,17 12.1,17.3 C12.5,17.3 13.2,17.2 13.1,17.5 C12.8,18.6 13.6,18.6 15.7,18.2 C16,18.7 16.3,19.2 16.8,19.5 C17,19.7 17.3,19.9 17.7,20 C18.1,20.2 18.5,20.3 19,20.5 C18.4,19.8 18.1,19.1 17.7,18.4 C17.1,17.6 16.6,16.9 15.9,16.6 Z" fill="#E5D3BD"></path>
                                    <path d="M11.1,15.3 L11,15.6 C11.1,15.6 11.2,15.5 11.3,15.4 C11.2,15.4 11.2,15.3 11.1,15.3 Z" fill="#E2CDB4"></path>
                                    <path d="M9.2,13.7 C9.4,13.7 9.4,13.8 9.4,13.9 C9.5,14 9.5,14.1 9.6,14.1 C9.6,14.1 9.7,14 9.7,14 C9.7,14 9.7,14 9.6,14.1 C9.6,14.1 9.7,14.2 9.8,14.2 C9.9,14.1 10,14 10.1,14 C10.2,13.9 10.2,13.9 10.3,13.9 C10.2,13.5 10,13.2 9.8,12.8 C9.7,13.1 9.4,13.4 9.2,13.7 Z" fill="#E2CDB4"></path>
                                    <path d="M10.9,13.9 C10.8,14 10.6,14.2 10.4,14.4 C10.5,14.4 10.7,14.4 10.9,14.3 C10.9,14.2 10.9,14.1 10.9,13.9 Z" fill="#E2CDB4"></path>
                                    <path d="M10.9,15.4 C10.9,15.5 10.8,15.6 10.8,15.7 C10.9,15.7 10.9,15.6 11,15.6 L11.1,15.3 C11,15.4 10.9,15.4 10.9,15.4 Z" fill="#E2CDB4"></path>
                                    <path d="M9.5,12.9 C9.6,12.8 9.6,12.8 9.7,12.7 C9.5,12.5 9.4,12.2 9.2,12 C9.2,12.3 9.4,12.5 9.5,12.9 Z" fill="#E2CDB4"></path>
                                    <path d="M6.9,6.9 L6.5,6.6 C5.8,8.2 6.5,8.5 6.1,9.8 C6.2,9.8 6.3,9.7 6.4,9.6 C6.2,9.7 6.1,9.8 6.1,9.8 C6.1,9.8 6.1,9.8 6.1,9.8 C6.3,9.9 6.6,10 6.8,10.2 C7,8.9 7.1,7.7 6.9,6.9 Z" fill="#E2CDB4"></path>
                                    <path d="M6.5,6.5 C6.5,6.4 6.6,6.3 6.6,6.2 C6.7,6.4 6.8,6.6 6.9,6.9 C8.2,8.1 9.1,9.7 10.2,11 C10.5,10.1 11.1,9 10.9,8.4 C11.6,8.7 11.3,9.8 11.1,10.8 C11.2,10.7 11.2,10.6 11.3,10.4 C11.4,9.9 11.5,9.4 11.5,8.9 C11.4,8.3 11.1,7.8 11.2,7.2 C11.1,6.8 10.9,6.4 10.3,6.4 C10.2,6.4 10,6.5 9.9,6.3 C9.8,6.3 9.7,6.3 9.6,6.2 C9.3,6.4 9.2,6.2 9.1,6.2 C8.8,6.2 8.7,5.9 8.8,5.6 C8.8,5.6 8.7,5.6 8.7,5.6 C8.5,5.7 8.5,5.5 8.7,5.2 C8.6,5.1 8.5,5 8.5,4.9 C8.5,4.9 8.5,4.9 8.5,4.8 C8.4,4.7 8.4,4.6 8.3,4.5 C8.2,4.6 8.2,4.5 8.2,4.4 C7.7,3.5 7.5,2.4 7.4,1 C7.4,0.5 6.2,1.2 5,1.9 C4.7,2.1 4.3,2.4 3.9,2.9 C4.4,3.5 4.5,4.4 4.6,5.4 C5.4,5.7 6,6.1 6.5,6.5 Z" fill="#EEE2D4"></path>
                                    <path d="M11.6,8.5 L11.8,8.3 C11.7,8.2 11.7,8.2 11.6,8.1 C11.6,8.3 11.6,8.4 11.6,8.5 Z" fill="#E2CDB4"></path>
                                    <path d="M6.8,10.2 C6.6,10.1 6.4,9.9 6.1,9.8 C6.2,9.9 6.2,10.1 6.1,10.3 L6.7,10.5 L6.8,10.2 Z" fill="#E2CDB4"></path>
                                    <path d="M11.3,10.5 C11.2,11 11.1,11.5 11,12 L11.1,12.1 C11.7,10.9 12,10.1 12,9.3 C12.1,10.3 12,11.4 11.7,12.6 C12.7,13.2 13.9,13.5 14.7,14.2 C14.6,13.1 14.4,12 14.1,11 C13.9,11 13.7,11.2 13.4,11.5 C14.4,9.5 12.3,10.1 12.4,8.8 C12.6,8.6 12.6,8.7 12.7,8.6 L12.5,8.4 C12.1,8.5 11.7,8.7 11.5,8.6 C11.5,8.7 11.5,8.9 11.5,9.1 C11.6,9.4 11.6,9.9 11.3,10.5 Z" fill="#E8D8C4"></path>
                                    <path d="M12.1,9.3 C12.1,10.1 11.8,10.9 11.2,12.1 C11.4,12.3 11.6,12.4 11.9,12.6 C12.1,11.3 12.2,10.2 12.1,9.3 Z" fill="#E2CDB4"></path>
                                    <path d="M11.5,9 C11.5,8.8 11.5,8.7 11.5,8.5 C11.5,8.5 11.5,8.5 11.5,8.5 C11.5,8.4 11.5,8.3 11.5,8.1 C11.4,7.9 11.3,7.6 11.2,7.3 C11.1,7.9 11.4,8.4 11.5,9 Z" fill="#E2CDB4"></path>
                                    <path d="M5.3,9.7 L5.3,9.4 L4.9,9.2 C5.1,9.4 5.2,9.5 5.3,9.7 Z" fill="#E2CDB4"></path>
                                    <path d="M4.7,5.5 C4,5.2 3.1,5.1 2.1,5.1 C1.7,5.6 1.5,6 1.4,6.2 C0.8,7.1 0.9,7.3 1.2,7.1 C1.4,6.9 1,7 1.4,6.7 C1.8,6.4 2.2,6.2 2.2,6.5 C2.2,6.5 2.2,6.6 2.2,6.6 L2.3,6.6 C2.5,6.4 2.6,6.3 2.4,6.5 C2.7,6.4 2.7,7.3 2.8,7.4 L3,6.4 L3.2,6.3 L3.1,6.4 L3.2,6.5 C3.4,6.3 3.7,6 3.8,6 C3.8,5.9 3.8,5.9 3.8,5.8 C4.2,5.5 4.2,5.7 4.2,5.9 C3.8,6.3 3.8,6.1 3.8,6 L3.8,6.1 C3.8,6 3.6,6 3.4,6.3 C3.3,6.5 3.4,6.4 3.5,6.4 C3.5,6.4 3.5,6.4 3.6,6.4 C3.6,6.4 3.6,6.4 3.6,6.4 C3.6,6.4 3.6,6.4 3.6,6.4 C3.6,6.4 3.6,6.4 3.5,6.4 C3.5,6.4 3.4,6.5 3.3,6.6 L3.4,6.7 C3.4,6.7 3.5,6.6 3.5,6.6 C3.5,6.6 3.5,6.5 3.5,6.5 L3.5,6.6 C3.5,6.8 3.9,6.3 4.1,6.3 C3.9,6.4 3.7,6.8 3.6,6.9 C3.6,6.9 3.6,6.9 3.6,6.9 C3.7,6.8 3.8,6.8 3.9,6.9 C4.1,6.8 4.3,6.6 4.5,6.5 C4.2,6.9 4,7 3.9,7 C3.9,7.1 3.9,7.2 3.9,7.3 C4.2,7 4.3,6.8 4.5,6.9 C4.3,7.1 4.1,7.3 4,7.5 L4.2,7.8 C4.2,7.8 4.3,7.8 4.3,7.7 C4.3,7.7 4.5,7.5 4.5,7.6 C4.4,7.6 4.4,7.7 4.3,7.7 C4.3,7.8 4.3,7.9 4.3,8 L4.6,8.5 C4.6,8.5 4.7,8.4 4.7,8.4 C4.7,8.4 4.7,8.4 4.7,8.3 C4.7,8.3 4.7,8.3 4.7,8.4 C4.6,8.6 5.1,8.1 4.9,8.5 L4.9,8.4 C4.8,8.8 5.1,8.6 5.3,8.5 C5.3,8.2 5.2,7.9 5.1,7.7 C4.8,7.2 4.8,6.3 4.7,5.5 Z" fill="#EBDECD"></path>
                                    <path d="M5.3,8.9 C5.2,8.9 5.2,9 5.1,9 C5.1,9.1 5,9.2 5,9.2 L5.4,9.4 C5.3,9.2 5.3,9 5.3,8.9 Z" fill="#E2CDB4"></path>
                                    <path d="M6.1,9.8 C6,9.8 6,9.8 6.1,9.8 C6,9.7 6,9.8 6.1,9.8 C6.6,8.5 5.9,8.2 6.5,6.5 C6,6.1 5.4,5.7 4.7,5.4 C4.8,6.3 4.8,7.1 5.1,7.8 C5.2,8 5.3,8.3 5.3,8.6 C5.4,8.6 5.5,8.6 5.5,8.6 C5.4,8.6 5.4,8.7 5.3,8.7 C5.3,8.9 5.3,9 5.3,9.2 L6.1,9.8 Z" fill="#E7D6C1"></path>
                                    <path d="M4,3 C3.4,3.6 2.7,4.4 2.2,5.1 C3.2,5.1 4,5.2 4.8,5.5 C4.6,4.5 4.5,3.6 4,3 Z" fill="#E5D3BD"></path>
                                    <path d="M11.1,12.2 C11.1,12.2 11.1,12.1 11.1,12.2 C11,12.7 10.9,13.2 10.9,13.7 C10.9,13.7 10.9,13.7 10.9,13.7 C10.9,13.7 10.9,13.8 10.9,13.9 C10.9,14.1 10.9,14.2 10.9,14.4 C10.9,14.4 11,14.4 11,14.4 C11.1,14.4 11.1,14.4 11.1,14.5 C11.2,14.5 11.2,14.6 11.3,14.6 C11.5,13.9 11.7,13.3 11.8,12.6 C11.5,12.5 11.3,12.3 11.1,12.1 C11.1,12.1 11.1,12.1 11.1,12.2 Z" fill="#F3EBE2"></path>
                                    <path d="M11,12 C11,12 11,12.1 11,12.1 C11.1,12.1 11.1,12 11,12 Z" fill="#E2CDB4"></path>
                                    <path d="M10.9,8.4 C11,9 10.5,10.1 10.2,11 C10.3,11.2 10.5,11.4 10.7,11.5 C10.9,11.2 11.1,11 11.2,10.8 C11.3,9.8 11.6,8.7 10.9,8.4 Z" fill="#E2CDB4"></path>
                                    <path d="M9.9,12 C8.8,11.3 9.7,8.2 7.4,9 C7.2,9.5 7.1,9.9 7,10.3 C7.5,10.6 8,10.9 8.4,11.3 C8.7,11.5 8.9,11.7 9.1,12 C9.3,12.2 9.5,12.5 9.6,12.7 C10,12.3 10.4,11.9 10.6,11.6 C10.4,11.4 10.3,11.2 10.1,11.1 C10.1,11.4 10,11.7 9.9,12 Z" fill="#E5D3BD"></path>
                                    <path d="M6.9,10.6 C7.4,10.8 7.9,11 8.4,11.3 C8,10.9 7.5,10.6 7,10.3 C6.9,10.4 6.9,10.5 6.9,10.6 Z" fill="#EDE1D2"></path>
                                    <path d="M6.1,10.3 C6.3,10.4 6.5,10.6 6.7,10.7 L6.7,10.5 L6.1,10.3 Z" fill="#E2CDB4"></path>
                                    <path d="M11.5,9 C11.5,9.5 11.4,10 11.3,10.5 C11.6,9.9 11.6,9.4 11.5,9 Z" fill="#EEE2D4"></path>
                                    <path d="M6.8,10.2 L6.7,10.5 L6.9,10.6 C6.9,10.5 7,10.4 7,10.3 L6.8,10.2 Z" fill="#E2CDB4"></path>
                                    <path d="M11.1,14.7 C11.1,14.8 11,14.9 11,15 C11.1,15 11.1,14.9 11.2,14.9 L11.3,14.7 C11.2,14.6 11.2,14.7 11.1,14.7 Z" fill="#E2CDB4"></path>
                                    <path d="M11.2,12.1 C11.1,12 11.1,12.1 11.2,12.1 C11.1,12.2 11.1,12.2 11.1,12.2 C11.1,12.1 11.1,12.1 11.2,12.1 Z" fill="#E2CDB4"></path>
                                    <path d="M11.3,10.5 C11.2,10.6 11.2,10.7 11.1,10.9 C11,11.3 11,11.7 11,12 C11.2,11.5 11.2,11 11.3,10.5 Z" fill="#E2CDB4"></path>
                                    <path d="M11.1,10.9 C11,11.1 10.8,11.3 10.6,11.6 L10.9,11.9 L11,12 C11,11.7 11.1,11.3 11.1,10.9 Z" fill="#EDE1D2"></path>
                                    <path d="M7.4,9 C9.8,8.2 8.9,11.3 9.9,12 C9.9,11.7 10,11.4 10.2,11 C9.1,9.6 8.2,8.1 6.9,6.9 C7.1,7.8 7,8.9 6.8,10.2 L7,10.3 C7.1,9.9 7.2,9.5 7.4,9 Z" fill="#E2CDB4"></path>
                                </g>
                            </g>
                        </g>
                    </g>
                    <path d="M227.3,197.6 C222.7,199.2 217,200.1 212.6,197.3 C212,196.9 210.3,197.7 211.1,198.3 C216.1,201.5 222.8,200.3 228.1,198.5 C229.3,198 228.2,197.3 227.3,197.6 Z" id="Shape" fill="#000000" fill-rule="nonzero"></path>
                    <path d="M174.8,157.2 C185.2,150.5 197.2,145.3 209.7,148 C209.3,147.9 209.3,145.7 208.9,145.6 C196.4,142.9 184.4,148.2 174,154.8 C173.8,155 175,157.1 174.8,157.2 Z" id="Shape" fill="#000000" fill-rule="nonzero"></path>
                    <path d="M282,275.9 C282.6,279.1 283.8,283.3 287.2,284.6 C290.3,285.7 293.5,283.7 295.7,281.7 C295.8,281.6 295.9,281.4 295.9,281.3 C294.4,275 288.4,274.2 283,276.1 C281.7,276.6 282.9,277.3 283.8,276.9 C286.2,276.1 288.9,275.7 291.1,277.2 C292.1,277.9 292.9,278.8 293.4,279.9 C294.1,281.5 293.5,282.1 292.1,282.9 C287,285.9 284.6,279.2 283.9,275.4 C283.8,274.7 281.9,275.1 282,275.9 Z" id="Shape" fill="#000000" fill-rule="nonzero"></path>
                    <g id="Group" transform="translate(250.000000, 248.000000)" fill-rule="nonzero">
                        <path d="M34.7,28.7 C28.2,30.4 17.1,39 11.2,38.1 C-6.4,35.5 4.9,23.6 7.3,16.8 C11.9,4.5 9.2,-5.7 22.7,4.6 C27.9,8 32.2,17.3 35.5,22.9" id="Shape" fill="#D81B54"></path>
                        <path d="M34.7,28.5 C25.7,31.1 16.7,40.8 6.9,36.5 C-0.8,33.1 4,25.4 6.7,20.2 C8.3,17.1 9.4,13.8 10.3,10.4 C10.9,8 11.3,2.3 13.8,1.2 C17.5,-0.4 24.5,7 26.4,9.6 C29.6,13.8 32,18.7 34.6,23.2 C34.9,23.6 36.7,22.9 36.5,22.7 C33.3,17 30.4,10.4 25.6,5.9 C22.9,3.4 18.4,-0.4 14.4,0.1 C11.8,0.4 10.7,2.3 9.9,4.6 C8.2,9.4 7.8,14.4 5.6,19.1 C2.6,25.4 -3.6,34.2 6.3,37.6 C17,41.2 25.2,31.9 34.8,29.1 C35.9,28.7 35.8,28.1 34.7,28.5 Z" id="Shape" fill="#000000"></path>
                    </g>
                    <g id="Group" transform="translate(286.000000, 253.000000)" fill-rule="nonzero">
                        <path d="M1.6,23.1 C3.2,9.3 24.1,-8.2 33.4,7.8 C36.7,13.4 34.6,26.4 29.5,30.5 C22,36 15.5,32.2 7.8,28.2" id="Shape" fill="#DA1C5C"></path>
                        <path d="M2.6,23 C4.1,12.6 19.5,-5.8 30.3,5.2 C34.8,9.8 34.7,17.1 32.9,22.9 C31.2,28.4 27.7,32.9 21.2,32.6 C16.7,32.4 12.4,29.7 8.5,27.7 C7.9,27.4 6.1,28.2 7,28.7 C14.5,32.7 24.9,37.5 31.7,29.3 C36.7,23.3 38,11.6 32.9,5.4 C21.5,-8.5 2.5,11.3 0.7,23.3 C0.5,24.1 2.5,23.7 2.6,23 Z" id="Shape" fill="#000000"></path>
                    </g>
                    <g id="Group" opacity="0.39" transform="translate(276.000000, 387.000000)">
                        <path d="M22.6,3.2 C12.3,18.9 9.6,39.3 4.5,56.4 C2.7,62 3.3,66.7 3,72.3" id="Shape" fill="#4377BB" fill-rule="nonzero"></path>
                        <g id="Shape" opacity="0.7">
                            <g>
                                <g>
                                    <path d="M16.6,0.8 C16.6,0.8 14.8,-0.8 18.2,1.3 L21,2.9 L23.2,3.8 L25.1,5.2 C25.1,5.2 25.1,5.5 24.6,7 C24.3,7.7 24,8.8 23.4,10.3 C23.1,11 22.8,11.9 22.5,12.9 C22.3,13.4 22.2,13.9 22,14.5 C21.8,15.1 21.7,15.7 21.5,16.3 C21.5,16.3 21.5,16.6 21.4,17.1 C21.3,17.6 21.2,18.3 21.1,19.2 C20.9,20.1 20.7,21.1 20.4,22.3 C20.1,23.5 19.8,24.8 19.3,26.2 C19.3,26.2 18.4,28.7 17.3,32.6 C16.1,36.5 14.7,41.9 13.1,47.4 C12.3,50.2 11.5,53 10.6,55.7 C10.2,56.9 9.8,58.1 9.4,59.3 C9.1,60.3 8.9,61.2 8.7,62.2 C8.4,64.1 8.2,66 8,67.5 C7.8,69 7.6,70.1 7.5,70.6 C7.5,70.6 7.6,68.9 7.9,66.2 C8,64.9 8.2,63.6 8.4,62.2 C8.7,60.8 9,59.5 9.6,58.1 C12.1,51.1 14.1,44 14,43.1 C14,43.1 13.5,44.7 12.7,47.1 C11.9,49.5 10.8,52.8 9.6,56.1 C9.3,56.9 9,57.8 8.7,58.5 C8.4,59.2 8.2,59.8 8,60.5 C7.6,61.8 7.3,63.2 7.1,64.5 C6.7,67.1 6.3,69.2 6,69.7 C6,69.7 6.1,68.1 6.3,65.7 C6.4,64.5 6.5,63.2 6.8,61.8 C7.1,60.4 7.4,59.1 7.9,57.7 C10.1,51.2 11.8,44.4 11.3,43.1 C11.3,43.1 10.8,44.5 10.1,46.7 C9.4,48.9 8.3,51.8 7.2,54.7 C6.9,55.4 6.6,56.2 6.3,56.9 C6,57.6 5.7,58.3 5.5,59 C5,60.4 4.6,61.7 4.3,63 C3.7,65.5 3.3,67.6 2.9,68.3 C2.9,68.3 3.1,67.2 3.2,65.9 C3.4,64.6 3.6,63.2 3.5,62.6 C3.3,63.3 3.1,64 2.9,64.7 C3,63.6 3.1,62.4 3.3,61.3 C3.5,60.7 3.7,60 4,59.4 C4,59.4 3.5,60.6 3,62 C2.5,63.4 2,64.8 1.7,65 C1.7,65 1.8,65.6 2,65 C2.1,64.7 2.2,64.1 2.3,62.9 C2.4,61.8 2.6,60 3.1,57.6 C3.1,57.6 3.2,57.3 3.5,56.6 C3.8,55.9 4.2,55 4.6,53.8 C5.5,51.3 6.7,47.6 7.8,42.7 C8.9,37.9 10,31.9 11.1,25 C11.7,21.5 12.3,17.8 13.2,13.8 C14.1,9.6 15.1,5.3 16.6,0.8 Z" fill="#00AEEF" fill-rule="nonzero"></path>
                                    <path d="M26.1,5.5 C26.1,5.5 25.8,6.2 25.2,7.5 C24.9,8.1 24.6,8.9 24.2,9.8 C23.8,10.7 23.4,11.7 23.1,12.9 C22.9,13.5 22.7,14.1 22.5,14.7 C22.3,15.3 22.1,16 21.9,16.6 C21.5,17.9 21.1,19.3 20.8,20.8 C20.1,23.7 19.4,26.8 18.8,30 C18.8,30 18.7,30.4 18.4,31.2 C18.2,31.9 17.9,33 17.5,34.3 C16.8,36.9 15.8,40.4 14.8,44.1 C13.8,47.8 12.8,51.6 11.8,54.8 C11.5,55.6 11.3,56.3 11.1,57 C11,57.3 10.9,57.7 10.8,58 C10.7,58.3 10.6,58.5 10.5,58.8 C10.2,59.6 10,60.2 9.9,60.5 C9.9,60.5 9.8,60.9 9.7,61.5 C9.6,62.2 9.4,63.1 9.3,64.3 C9,66.6 8.8,70.1 8.1,72.8" stroke="#6DCFF6" stroke-width="0.025"></path>
                                    <path d="M14.8,44.1 C15.3,43 16.5,38.2 17.7,33.8 C18.3,31.6 18.9,29.5 19.3,27.9 C19.8,26.4 20.1,25.4 20.1,25.4 C21.2,22.2 22.3,17.2 23.5,13 C23.8,11.9 24.1,11 24.4,10.1 C24.7,9.2 25,8.4 25.2,7.7 C25.7,6.3 26,5.5 26,5.5" stroke="#00AEEF" stroke-width="0.025"></path>
                                    <path d="M11.5,43.9 C11.5,43.9 11.1,45.1 10.5,47.1 C9.9,49 9.1,51.7 8.2,54.5 C7.7,55.8 7.2,57.2 6.8,58.6 C6.4,59.8 6.1,61 5.9,62.2 C5.5,64.5 5.3,66.7 5.1,67.8" stroke="#00AEEF" stroke-width="0.025"></path>
                                    <path d="M8.6,37.1 C8.6,37.1 8.1,38.5 7.5,40.7 C6.8,42.9 5.9,45.8 4.9,48.7 C4.4,50.2 3.9,51.6 3.4,53 C2.9,54.4 2.4,55.8 1.9,57 C1,59.6 0.7,61.6 0.5,62.2" stroke="#6DCFF6" stroke-width="0.025"></path>
                                </g>
                            </g>
                        </g>
                    </g>
                    <path d="M273.6,503.6 C287.9,533.6 312.6,558.3 344.7,568.8 C348.4,570 342.8,566.1 342.3,565.8 C338.7,563.3 334.6,560.4 330.4,559 C327.7,558.1 325,557.2 322.5,555.9 C324.7,557 321.2,554.8 320.4,554.1 C315.8,550.4 311.7,546 308,541.5 C300.9,532.8 295.2,523.2 290.4,513.1 C289,510.1 283,507.7 280.2,506.1 C279.2,505.6 273.2,502.7 273.6,503.6 Z" id="Shape" fill="#000000" fill-rule="nonzero"></path>
                    <g id="Group" transform="translate(156.000000, 132.000000)" fill-rule="nonzero">
                        <path d="M59.8,32.2 C59.8,49.4 46.8,63.3 30.8,63.3 C14.8,63.3 1.8,49.4 1.8,32.2 C1.8,15 14.8,1.1 30.8,1.1 C46.9,1.1 59.8,15 59.8,32.2 Z" id="Shape" stroke="#000000" fill="#188E44" opacity="0.35"></path>
                        <path d="M58.4,32.3 C58.1,47.8 46.8,63 30.1,62.2 C14.5,61.5 3.4,47 3.4,32 C3.4,16.5 15.3,1.3 31.7,2.1 C47.5,2.8 58.1,17.4 58.4,32.3 C58.4,33.8 61.4,33.3 61.3,32.1 C61,18.8 53.5,6.1 40.6,1.7 C28.9,-2.4 15.7,1.8 7.9,11.3 C-0.6,21.7 -1.9,36.8 4.5,48.6 C10.7,59.9 23.6,66.4 36.3,63.8 C51.3,60.8 61,46.9 61.3,32.1 C61.3,30.6 58.4,31.1 58.4,32.3 Z" id="Shape" fill="#000000"></path>
                    </g>
                    <path d="M202.6,67.1 C205.6,76.9 212.6,86.5 221.5,91.7 C230.8,97.2 241.1,94.6 245.9,84.6 C250.3,75.6 247.6,64.9 241.4,57.4 C235.1,49.7 226.1,45.7 216.3,45.6 C201.6,45.4 191.4,55.5 191.9,70.2 C192.4,83.8 200.8,97.1 213.3,102.8 C221.1,106.4 230.8,106.5 238.6,102.7 C249.6,97.3 257.4,82.7 251,71.2 C250.4,70.2 246.2,67.8 247.5,70 C252.8,79.4 246.4,91.4 238.6,97.2 C233,101.4 225.2,102.9 218.3,101.8 C206.6,99.9 199,89.5 196.8,78.4 C194.8,68.7 197,57.2 206.1,51.9 C211.4,48.8 217.8,48.4 223.7,49.1 C234.2,50.4 242.1,58 243.8,68.5 C245.3,77.7 240.3,90.2 229.8,91.3 C218.3,92.5 209.5,78.4 206.7,68.9 C206.2,67.9 202.2,65.6 202.6,67.1 Z" id="Shape" fill="#000000" fill-rule="nonzero"></path>
                    <path d="M232.4,67.1 C225.3,63.6 209,56.9 205.9,69 C203.9,76.7 208.8,86.7 215.3,90.9 C224.9,97 234,85.9 235.4,76.9 C238.2,59.2 214.6,40.3 199.7,54.1 C186.2,66.6 202.3,89.1 216,93.1 C216.9,93.4 217.3,91.9 216.4,91.7 C204.6,88.2 192.5,72.7 197.5,59.9 C200.8,51.5 212.1,48.9 219.7,52.5 C227.8,56.3 234.7,66 234.1,75.2 C233.6,83.3 225.3,95.3 216.2,89.7 C210.5,86.2 206.6,78.2 207,71.6 C207.7,58.3 224.7,65 231.6,68.4 C232.5,68.9 233.2,67.6 232.4,67.1 Z" id="Shape" fill="#000000" fill-rule="nonzero"></path>
                    <path d="M150.9,163.7 C153.3,196.4 167.6,233.8 200.1,247.2 C213.7,252.8 228.9,253.3 242.6,247.6 C256.9,241.7 268.1,230 276.1,217 C287.2,199 292,178.4 295,157.6 C295,157.4 293.1,157.6 293.1,158.1 C288.6,189.8 278.3,225.6 249.2,243.4 C218.3,262.3 183.1,242.2 167.2,213.8 C158.6,198.3 154.2,180.7 152.9,163.1 C152.8,162.9 150.9,163.2 150.9,163.7 Z" id="Shape" fill="#000000" fill-rule="nonzero"></path>
                    <path d="M183.5,274.2 C170.2,278.5 157.3,272 144.2,270.1 C133.7,268.6 123.9,271.1 115.5,277.7 C98.3,291.3 103.4,315.3 96.5,333.9 C96.3,334.4 98.2,334.2 98.4,333.6 C104.9,316 100.2,292.7 115.5,279.1 C121.4,273.9 128.8,270.5 136.7,270.5 C143.2,270.5 149.5,272.2 155.8,273.7 C165.1,276 174.4,277.9 183.8,274.9 C184.9,274.6 184.7,273.9 183.5,274.2 Z" id="Shape" fill="#000000" fill-rule="nonzero"></path>
                    <path d="M134.9,325.7 C126.9,337.2 127.3,352.5 128.6,365.8 C129.8,378.2 132.1,390.4 133.6,402.7 C135.7,420.6 138.7,451.5 117.7,459.9 C90.9,470.7 83.5,435.2 81.5,416.3 C78.9,392.3 83.5,367.9 78.3,344.2 C75,329.2 66.4,319.4 54.2,310.5 C47.9,305.9 40.9,302.1 33.5,299.6 C25.5,296.9 13.6,294.9 8.9,287.1 C8.9,287.5 8.8,287.8 8.8,288.2 C17.2,287.3 25.3,294.8 33.1,297 C34.5,297.4 31.7,293.8 30.5,293.4 C22.3,291.1 14.4,283.6 5.5,284.6 C5,284.7 5.2,285.4 5.4,285.7 C12.6,297.4 26.1,299.5 37.9,304 C53.9,310.1 69.3,322 73.8,339 C80.5,364.3 74.7,390.9 78,416.6 C80.2,434.1 86.6,462.5 108.1,465.4 C118.6,466.8 128.7,461.4 133.5,452.1 C138.7,442.3 139.1,430.4 138.6,419.6 C138,406.7 135.8,394 134,381.3 C131.6,364.8 128.4,344 138.6,329.3 C139.3,328 135.5,324.8 134.9,325.7 Z" id="Shape" fill="#000000" fill-rule="nonzero"></path>
                    <path d="M21.3,288.8 C13.7,285.2 5.1,278.7 2.7,270.3 C2.3,270.6 2,270.9 1.6,271.2 C6.8,270.3 12.5,275.6 16.4,278.5 C20.3,281.4 24.2,284.6 28.7,286.4 C29.4,286.7 31,285.7 29.8,285.2 C23.8,282.8 18.9,278 13.7,274.4 C10.3,272 6.2,269.2 1.8,269.9 C1.4,270 0.6,270.2 0.7,270.8 C3.1,279.4 11.9,286.1 19.7,289.8 C20.5,290.1 22.2,289.2 21.3,288.8 Z" id="Shape" fill="#000000" fill-rule="nonzero"></path>
                    <path d="M9.8,270.5 C6.8,270.2 5.8,268.9 4.6,266.8 C4.3,266.3 2.8,263.9 3.1,263.3 C3.8,261.9 6.6,263.5 7.7,264 C11.1,265.6 14.3,267.9 17.3,270.2 C23.1,274.5 28.4,279.5 34.5,283.3 C35.1,283.7 36.9,282.8 36,282.3 C29.1,277.9 23.1,272.1 16.4,267.4 C12.5,264.6 6.5,259.9 1.4,261.8 C1.1,261.9 0.7,262.2 0.8,262.5 C2.1,267 3.9,271.1 9,271.7 C9.9,271.8 11.1,270.6 9.8,270.5 Z" id="Shape" fill="#000000" fill-rule="nonzero"></path>
                    <path d="M18.4,268.2 C17.5,267.7 13.9,265.5 15.7,264 C16.6,263.3 20.5,265.1 21.3,265.6 C23.1,266.6 24.8,268 26.4,269.3 C30.2,272.6 33.5,276.6 37.4,279.9 C46.5,287.6 60.2,288 71.1,291.7 C71.9,292 73.4,290.8 72.2,290.4 C65.5,288.2 58.6,287 51.8,285 C45.1,283 40.2,280.3 35.3,275.4 C29.9,270 23.4,261.7 14.8,262.7 C14.3,262.8 13.9,263 13.7,263.5 C12.9,266.5 14.3,267.9 16.9,269.2 C17.6,269.7 19.3,268.7 18.4,268.2 Z" id="Shape" fill="#000000" fill-rule="nonzero"></path>
                    <path d="M59.1,287.9 C58.2,285 56.1,282.5 54.7,279.9 C53.8,278.3 51.7,275.8 54.5,274.9 C56.9,274.2 61.3,277.1 63.2,278.4 C68.3,281.8 72.8,286.1 77.4,290.2 C83.1,295.3 87.5,300.4 89.6,307.9 C91.5,314.6 92.2,321.5 93.5,328.3 C95.2,336.6 97.3,344.8 99.9,352.9 C105,368.9 111,384.6 114.6,401 C114.8,401.9 116.7,401.4 116.5,400.5 C113.1,385 107.5,370.1 102.6,354.9 C98,340.6 95.6,326.2 92.5,311.5 C91.3,305.8 89.4,300.2 85.7,295.6 C82.3,291.3 77.6,287.8 73.5,284.3 C69.8,281.1 65.9,277.4 61.4,275.3 C59.4,274.3 54.5,272.3 52.1,273.8 C47.9,276.5 56.2,285.3 57.1,288.3 C57.4,289.3 59.4,288.7 59.1,287.9 Z" id="Shape" fill="#000000" fill-rule="nonzero"></path>
                    <path d="M251.1,272.3 C263.1,276.8 275.6,276.7 288.2,277 C300.4,277.2 313.7,278.1 323.6,285.9 C338.8,297.9 340.8,320.2 340.4,338.1 C340.4,339 342.3,338.6 342.3,337.9 C342.7,319.8 340.7,297.8 325.7,285.4 C317.4,278.5 306.4,276.6 295.8,276 C281,275.2 266.2,276.5 252.1,271.2 C251.6,270.8 250,271.9 251.1,272.3 Z" id="Shape" fill="#000000" fill-rule="nonzero"></path>
                    <path d="M299.2,341.1 C302.7,347.2 303,355.1 303.2,361.9 C303.6,373.5 302.8,385.2 302.4,396.8 C301.8,414.5 300.6,433.7 305.2,451 C306.9,457.4 309.9,464.5 316.1,467.8 C324,471.9 334.4,468.8 340.8,463.2 C349.1,456 353.3,444.8 356,434.5 C358.7,424.4 360.1,413.9 361.2,403.5 C362.3,393.2 361.2,382.9 360.2,372.7 C359,359.1 357.5,341.5 370.6,332.9 C371.4,332.4 369.9,328.4 370.6,327.9 C361,334.2 359.4,345.8 359.2,356.4 C359.1,367 360.2,377.5 361.1,388 C361.9,398.9 360,410.2 357.9,420.8 C355.8,431.6 352.6,442.9 346.2,452 C340.5,460.1 331.1,465.9 320.8,464.3 C314,463.2 309.6,458 307.1,451.9 C303.6,443.6 302.8,434.3 302.3,425.4 C301.6,412.7 302.4,400 302.8,387.4 C303.1,377.8 303.4,368.2 303.1,358.6 C302.9,351.2 302.8,342.5 299,335.9 C299.9,337.3 298.5,339.8 299.2,341.1 Z" id="Shape" fill="#000000" fill-rule="nonzero"></path>
                    <path d="M371.1,330 C388.4,324 406.7,321.8 423.5,314.2 C430.8,310.9 438.4,306.6 442.9,299.8 C445.1,296.5 446,293 446.4,289.1 C446.8,285.1 445.8,284.6 441.8,284.1 C441.4,284.1 439.7,284.7 440.4,284.9 C441.1,285.1 436.8,287.5 436.5,287.6 C435.8,287.9 435.2,288.2 434.5,288.4 C434.3,288.5 434.1,288.6 433.9,288.6 C433,288.7 433,288.9 433.7,289.2 C433.2,289.2 432.6,289.2 432.1,289.2 C430.4,290.8 429.4,292.6 428.1,294.5 C426.7,296.6 424.8,298.3 422.2,298.9 C420.8,299.2 418.4,298.6 416.8,298.6 C411.6,298.5 406.3,299.5 401.2,300.5 C395.2,301.6 389.2,303.1 383.3,304.5 C377.2,306 371,306.7 364.9,308.1 C363.8,308.4 363.9,309.1 365.1,308.8 C372.1,307.2 379.2,306.2 386.2,304.5 C394,302.6 401.9,300.8 409.9,299.8 C414.5,299.3 420.3,300.8 424.7,299.2 C429.2,297.6 430.6,292.1 433.9,289 C434.4,288.5 432.6,288.7 432.3,289 C432.3,289 432.2,289.1 432.2,289.1 C432.1,289.1 431.9,289.3 432,289.4 C432,289.4 432,289.4 432,289.4 C432.1,289.7 432.6,289.6 432.8,289.6 C435.3,289.3 438.1,287.8 440.2,286.6 C440.9,286.2 444.3,284.5 442.1,283.9 C441.6,284.2 441.2,284.5 440.7,284.7 C444.3,285.1 445,285.8 444.6,289.1 C444.4,290.9 444.2,292.7 443.7,294.5 C442.7,297.9 440.7,300.8 438.3,303.4 C432.2,309.7 423.7,313.5 415.6,316.5 C400.9,321.9 385.3,324.1 370.6,329.2 C369.1,329.9 370.3,330.3 371.1,330 Z" id="Shape" fill="#000000" fill-rule="nonzero"></path>
                    <path d="M438.4,286.6 C437.8,290.5 437.1,294.4 436.1,298.2 C436,298.6 437.9,298.3 438,297.9 C439.1,294 439.8,290.1 440.4,286.1 C440.4,285.9 438.5,286 438.4,286.6 Z" id="Shape" fill="#000000" fill-rule="nonzero"></path>
                    <path d="M408.5,298.9 C410.8,296.4 413.8,292.1 410.7,289 C408,286.4 404.3,288.1 401.5,289.7 C398.2,291.6 395.5,293.6 391.8,294.6 C387.4,295.8 383,295.7 378.5,296.3 C373.8,297 369,298.5 364.9,300.8 C357,305.4 353.6,313.8 350.6,322.1 C344.6,338.5 338.2,354.5 331.1,370.4 C323.1,388.3 316.5,406.7 308.9,424.7 C308.5,425.6 310.4,425.5 310.7,424.8 C317.8,407.9 324,390.7 331.4,373.9 C338.6,357.7 345.6,341.6 351.4,324.8 C355.5,312.9 360,302.4 373.1,298.6 C380.6,296.4 388.6,297.4 395.8,294.3 C397.9,293.4 399.7,292.1 401.7,290.9 C404.2,289.4 408.7,287 410,291.5 C410.8,294 408.4,296.7 406.9,298.4 C406.1,299.3 408,299.4 408.5,298.9 Z" id="Shape" fill="#000000" fill-rule="nonzero"></path>
                    <path d="M188.1,241.6 C192.8,256.3 194.4,280 178.7,288.8 C177,289.7 179.5,290.5 180.6,289.9 C197.1,280.7 196.1,256.4 191.1,240.9 C190.6,239.6 187.7,240.5 188.1,241.6 Z" id="Shape" fill="#000000" fill-rule="nonzero"></path>
                    <path d="M236.6,250.7 C234.9,262.7 236.6,276.3 246.2,284.6 C246.8,285.1 248.5,284.2 247.7,283.5 C238.4,275.5 236.9,262 238.5,250.5 C238.7,249.6 236.8,249.8 236.6,250.7 Z" id="Shape" fill="#000000" fill-rule="nonzero"></path>
                    <path d="M158.6,274.7 C158.1,300.2 164,335.7 189.4,348.3 C196.5,351.8 204.4,353.3 212.2,354 C219.1,354.6 226,355 232.8,353.5 C246,350.6 256.1,341 264.2,330.6 C276,315.4 283.5,297.1 286.1,278 C286.2,277 284.3,277.3 284.1,278.1 C282,293.6 276.7,308.5 268.3,321.8 C261.1,333.1 251.3,345.2 238.5,350.3 C231.3,353.2 223.7,353.3 216,352.7 C208.4,352.2 200.7,351.2 193.5,348.2 C180.1,342.7 172,330.6 167.2,317.5 C162.2,303.8 160.2,289 160.5,274.4 C160.6,273.5 158.6,273.8 158.6,274.7 Z" id="Shape" fill="#000000" fill-rule="nonzero"></path>
                    <path d="M290.6,277.8 C290.5,294.2 287.2,310.4 286.9,326.8 C286.7,338.9 286.1,358.5 298.4,365.4 C298.9,365.7 300.7,364.9 299.9,364.5 C286.8,357.1 288.3,334.4 288.9,321.9 C289.5,307 292.4,292.2 292.5,277.3 C292.5,276.7 290.6,277.1 290.6,277.8 Z" id="Shape" fill="#000000" fill-rule="nonzero"></path>
                    <path d="M145.7,271.9 C145.2,287.1 148.5,302.2 144.3,317.1 C140.8,329.6 133.5,340.5 128.1,352.2 C128,352.4 129.8,352.3 130,351.8 C135.7,339.6 143.3,328.2 146.6,315 C150.3,300.6 147.1,285.9 147.6,271.3 C147.7,271.2 145.7,271.4 145.7,271.9 Z" id="Shape" fill="#000000" fill-rule="nonzero"></path>
                    <path d="M151.4,493.5 C195.4,505.2 241.5,501.6 284.5,487.5 C286.4,486.9 284.6,486.2 283.4,486.6 C241.6,500.4 196.5,503.6 153.7,492.3 C153,492 150.4,493.2 151.4,493.5 Z" id="Shape" fill="#000000" fill-rule="nonzero"></path>
                    <path d="M133.6,418.1 C140.3,431.3 148.8,443.5 152.4,458 C152.7,459.1 155.6,458.4 155.3,457.2 C151.7,442.7 143.2,430.5 136.5,417.3 C135.9,416.3 133.1,417.2 133.6,418.1 Z" id="Shape" fill="#000000" fill-rule="nonzero"></path>
                    <path d="M180.8,172.4 C187.6,163.9 198.9,162.8 205.4,172.3 C204.7,171.3 203.8,169.4 203,168.1 C196.5,158.6 185.2,159.4 178.3,168 C177.9,168.5 181.1,171.9 180.8,172.4 Z" id="Shape" fill="#000000" fill-rule="nonzero"></path>
                    <path d="M232.9,170.8 C242.6,162.7 255.1,163.3 262.2,174.3 C262,174 265.8,171 265.6,170.6 C258.5,159.6 246,159 236.3,167.1 C235,168.2 234.2,169.8 232.9,170.8 Z" id="Shape" fill="#000000" fill-rule="nonzero"></path>
                    <path d="M242.7,166.2 C241.2,169 240.5,173.1 242,176 C242.6,177.2 243.6,177.9 245,177.9 C246.8,178 249,177.9 250.8,177.5 C254.9,176.7 259.4,172 255.7,168.2 C252.3,164.7 247.2,165.2 242.8,165.5 C242.9,165.5 242.1,165.6 242.1,165.6 C243.5,169.2 244.1,173.4 240.9,176.2 C242.6,176.1 244.2,176 245.9,175.9 C245.4,172.5 246.4,169.3 247.1,165.9 C247,166.4 242.5,165.6 242.1,166.2 C239.8,169.3 240.6,173.1 244.4,174.4 C244.8,174.5 249.3,174.4 249.4,174.1 C250.1,172.1 251.1,170.4 251.2,168.2 C249.5,168.3 247.9,168.4 246.2,168.5 C246.7,170.1 246.8,171.6 246.8,173.2 C246.8,173.2 251.8,173.1 251.8,172.9 C251.8,171.3 251.7,169.8 251.2,168.2 C251.1,168 246.2,168.5 246.2,168.5 C246.1,170.6 245.2,172.4 244.4,174.4 C246.1,174.3 247.7,174.2 249.4,174.1 C245.6,172.8 244.7,169 247.1,165.9 C245.4,166 243.8,166.1 242.1,166.2 C241.4,169.5 240.5,172.7 240.9,176.2 C240.9,176.1 245.6,176.2 245.9,175.9 C249.1,173.1 248.5,168.9 247.1,165.3 C246.9,165.3 246.6,165.3 246.4,165.4 C241.4,165.7 244.5,165.6 246,165.9 C246.9,166.1 247.7,166.4 248.6,166.9 C250,167.6 251.4,168.7 252,170.1 C253.5,173.7 249.4,176.3 246.7,177.5 C245,178.3 245.8,175.9 249.7,177.5 C249.5,177.4 249.3,177.5 249.1,177.4 C248.6,177.2 248.2,177 247.9,176.6 C247.1,175.8 246.7,174.7 246.6,173.6 C246.1,171 246.7,168.1 247.9,165.8 C247.8,166 245.7,165.9 245.4,165.9 C244.9,166.1 242.8,165.9 242.7,166.2 Z" id="Shape" fill="#000000" fill-rule="nonzero"></path>
                    <path d="M28.9,4.1 C27.7,4.1 26.5,0.7 25.2,0.7 C26.4,0.8 27.6,4.1 28.9,4.1 Z" id="Shape" fill="#000000" fill-rule="nonzero"></path>
                    <path d="M190.6,161.2 C189.7,163 189.2,165 188.6,167 C188.1,168.6 187.7,170.2 187.7,171.8 C187.7,174.9 189.1,178.6 192.9,177.4 C197.4,176 199.6,171.6 200.1,167.2 C200.7,162.3 193.7,160.4 190,160.6 C189.9,160.6 188.4,165.1 188.5,165.4 C189.2,167.1 189.7,168.9 189.7,170.7 C189.7,171.1 189.7,171.5 189.6,171.9 C190.6,169.2 190.7,168.6 190,169.8 C189.8,170.1 189.5,170.4 189.2,170.7 C188.7,171.3 188.5,171.2 188.6,170.4 C188.1,169 188.7,166.6 189,165.2 C189.2,164.3 189.4,163.4 189.6,162.4 C189.8,161.4 190,160.7 189.3,162 C188.2,163.9 187.6,166.4 187.2,168.5 C186.7,171.2 188.3,173.3 190.8,174.1 C190.8,174.1 190.8,174 190.8,174 C192,170.6 193.8,167.1 194,163.4 C193.5,165 193,166.6 192.5,168.2 C193,169.8 193.1,171.3 193.1,172.9 C193.1,171.3 194.6,169.7 194.6,168.1 C194.6,166.5 194.5,165 194,163.4 C194.1,163.9 193.4,165.3 193.2,165.8 C193,166.5 192.5,167.4 192.5,168.2 C192.4,170.1 192.8,167.1 193.1,167.1 C193,167.1 192.7,168.1 192.6,168.2 C192.1,169.1 191.9,169.2 190.9,168.7 C189.7,168.1 188.8,166.9 188.6,165.6 C188.5,165.3 188.6,165 188.5,164.7 C188.2,163.2 188,166.9 187.6,167.2 C187.8,167.1 187.9,166.5 188.1,166.3 C188.8,165.4 188.2,166.7 188.1,167.1 C187.7,169 187.2,170.9 187.1,172.8 C187.1,173.1 186.9,175.7 187.2,175.8 C187.6,175.9 188.6,174.3 188.7,174 C189.3,172.9 189.6,171.5 190,170.2 C191.1,166.7 191.2,163.9 189.8,160.4 C189.3,162 188.8,163.6 188.3,165.2 C192.1,165 199.4,167.1 198.3,172.2 C198.8,170.6 199.3,169.1 199.7,167.5 C198.7,170.3 193.2,174.6 190.4,171.8 C189.4,170.8 189.1,169.3 189,168 C188.9,167.2 188.9,166.4 189,165.6 C189.1,164.9 189.6,163.1 188.8,165.6 C188,168.1 188.6,166.4 188.9,165.8 C189.9,164.5 189.8,162.6 190.6,161.2 Z" id="Shape" fill="#000000" fill-rule="nonzero"></path>
                    <path d="M268.9,154.8 C258.5,148.1 246.5,142.9 234,145.6 C233.6,145.7 233.6,147.9 233.2,148 C245.7,145.3 257.8,150.6 268.1,157.2 C268,157.1 269.1,155 268.9,154.8 Z" id="Shape" fill="#000000" fill-rule="nonzero"></path>
                    <g id="Group" transform="translate(177.000000, 158.000000)" fill="#000000" fill-rule="nonzero">
                        <path d="M1,2.9 C2.2,4.1 3.4,5.3 5,5.9 C5.7,6.2 7.3,5.1 6.2,4.7 C4.9,4.2 3.8,3.1 2.8,2.1 C2.3,1.6 0.4,2.3 1,2.9 Z" id="Shape"></path>
                        <path d="M4.7,2 C6.2,3.5 7.8,5.1 9.3,6.6 C9.9,7.2 11.7,6.4 11.1,5.8 C9.6,4.3 8,2.7 6.5,1.2 C5.9,0.6 4.1,1.3 4.7,2 Z" id="Shape"></path>
                        <path d="M10.3,2.8 C11.5,4 12.6,5.5 14,6.5 C14.3,6.7 14.9,6.6 15.3,6.4 C15.4,6.4 16.2,6 15.9,5.8 C14.5,4.8 13.4,3.3 12.2,2.1 C11.7,1.8 9.9,2.5 10.3,2.8 Z" id="Shape"></path>
                    </g>
                    <g id="Group" transform="translate(253.000000, 160.000000)" fill="#000000" fill-rule="nonzero">
                        <path d="M14.2,4.2 C13.1,4.6 11.9,5.2 10.7,5.2 C10.3,5.2 9.7,5.3 9.3,5.6 C9.1,5.8 9,6.1 9.4,6.1 C11.3,6.2 13.1,5.5 14.9,4.8 C15.1,4.7 15.7,4.5 15.5,4.2 C15.3,3.8 14.4,4.1 14.2,4.2 Z" id="Shape"></path>
                        <path d="M11.1,1.9 C9.1,2.7 7.1,3.5 5,4.4 C3.7,4.9 4.9,5.3 5.7,5 C7.7,4.2 9.7,3.4 11.8,2.5 C13.1,1.9 11.9,1.6 11.1,1.9 Z" id="Shape"></path>
                        <path d="M5.6,0.5 C4.1,1.1 2.6,2 1,2.4 C0.7,2.5 0.1,2.7 0.1,3.1 C0.2,3.5 0.9,3.3 1.2,3.3 C3,2.9 4.6,2 6.3,1.2 C6.6,1.1 7,0.8 6.8,0.5 C6.7,0.2 5.9,0.4 5.6,0.5 Z" id="Shape"></path>
                    </g>
                    <path d="M285.6,452.5 C287.6,440 294.5,429.4 301.4,419.1 C300.5,420.5 299.2,421.6 298.3,423 C291.4,433.4 284.5,443.9 282.5,456.4 C282.7,454.9 285.4,453.9 285.6,452.5 Z" id="Shape" fill="#000000" fill-rule="nonzero"></path>
                    <g id="Group" transform="translate(146.000000, 449.000000)" fill="#000000" fill-rule="nonzero">
                        <path d="M1.8,2 C4.1,9.8 5.7,17.6 5.7,26.2 C6.5,41.1 7.3,38.7 20.6,42.6 C37,46.5 51.1,49.6 68.3,49.6 C87.1,49.6 100.4,43.3 117.6,40.2 C128.5,37.9 133.2,42.5 136.4,33.2 C137.2,30.1 137.2,13.6 136.4,12.1 C136.4,11.3 138,8.2 138,7.4 C114.5,7.4 89.5,17.6 64.5,16 C46.5,15.2 18.4,14.4 2.7,5.8" id="Shape"></path>
                        <path d="M0.3,2.4 C2.9,11.4 3.7,20.1 4.4,29.4 C4.6,32.9 4.6,37.4 7.7,39.8 C11.2,42.5 17.3,43.1 21.5,44.1 C30.5,46.3 39.6,48.3 48.8,49.5 C66.8,51.9 83.4,50 100.8,45.4 C108.9,43.2 117.2,40.8 125.6,40.7 C129.5,40.6 133.3,40.7 135.9,37.3 C139,33.1 138.4,27 138.4,22.1 C138.4,19.4 138.3,16.7 138.1,14 C138,11.5 138.8,9.9 139.3,7.5 C139.5,6.8 138.5,6.5 138,6.5 C112.7,6.8 88.5,16.2 63,15 C43.6,14.1 21.3,14.5 3.7,5.1 C2.6,4.5 6.1284311e-14,6 1.5,6.8 C19.2,16.2 41.3,16.2 60.8,17.1 C72.9,17.6 84.6,16.6 96.6,14.5 C110.3,12 123.8,8.8 137.8,8.7 C137.4,8.4 136.9,8.1 136.5,7.7 C136.1,9.4 135.1,10.9 135,12.7 C134.9,14.2 135.4,16 135.5,17.6 C135.7,22.3 135.9,27.3 135.2,31.9 C134.2,38.7 129.9,38.5 124.3,38.7 C117.8,38.9 111.3,40.7 105,42.3 C97.3,44.3 89.6,46.6 81.6,47.8 C72.8,49.2 63.9,49 55,48.2 C46.9,47.4 38.8,45.9 30.8,44.1 C24.7,42.7 18,41.6 12.1,39.3 C7.3,37.4 7.4,32.3 7.2,27.8 C6.7,18.9 5.7,10.5 3.2,1.8 C2.8,0.2 -0.1,1 0.3,2.4 Z" id="Shape"></path>
                    </g>
                    <path d="M155.3,501.7 C143.8,525.9 126,548.6 99.8,557.2 C99.5,557.3 106.1,564.1 106.6,564.6 C107.9,565.7 112.8,571.1 114.7,570.5 C141,561.9 158.7,539.1 170.2,515 C170.9,513.6 164.3,508.4 163.4,507.6 C162.9,507.1 155.6,501.1 155.3,501.7 Z" id="Shape" fill="#000000" fill-rule="nonzero"></path>
                    <path d="M190.7,73.1 C176.3,81.6 162.9,90.3 156.1,106.3 C149.8,121.1 144.7,137 142.6,153 C142.8,151.4 143.6,149.8 143.8,148.1 C145.1,138.2 148.2,128.7 151.7,119.3 C154.2,112.7 156.7,106.2 160.8,100.5 C168,90.5 179,84.2 189.5,78 C190.5,77.4 189.7,73.7 190.7,73.1 Z" id="Shape" fill="#000000" fill-rule="nonzero"></path>
                    <path d="M247.6,72.4 C255.9,73.4 264.1,75.9 269.8,82.3 C275,88.2 278.5,95.4 281.1,102.7 C286.6,117.9 288.8,134.2 295.1,149.1 C295.7,150.4 298.6,150.8 299.1,152.1 C291.6,134.4 290,114.6 281.6,97.3 C274.3,82.2 260.2,71.5 243.5,69.4 C245,69.6 246.2,72.2 247.6,72.4 Z" id="Shape" fill="#000000" fill-rule="nonzero"></path>
                    <path d="M148.1,160.7 C143.9,155.7 139.3,156.8 137.4,163 C136.2,166.9 136.7,170.7 137.5,174.6 C139.6,184.4 148.6,193.4 156.9,198.5 C155.9,197.9 156.9,194.2 155.9,193.6 C148.5,189.1 141.1,181.5 137.5,173.7 C137.2,173.1 137.3,175.2 137.6,173.3 C137.8,172.2 137.7,171.1 137.9,170 C138.2,168.1 138.9,166 140.1,164.4 C143,160.5 146.5,162.5 149.1,165.7 C148.2,164.5 149.1,161.9 148.1,160.7 Z" id="Shape" fill="#000000" fill-rule="nonzero"></path>
                    <path d="M295.1,162.3 C297.9,159.6 301.6,157.5 305.1,160.2 C308,162.3 307,166.6 305.5,169.6 C301.9,176.6 294,180.6 288.5,185.9 C288,186.3 290.8,190.1 290.4,190.5 C297.4,183.8 311.6,176.9 308.3,165.1 C306.2,157.6 300.7,150.3 293.2,157.7 C292.7,158.2 295.5,161.9 295.1,162.3 Z" id="Shape" fill="#000000" fill-rule="nonzero"></path>
                    <path d="M199.5,213.9 C206.2,225.2 219.1,226 230.9,225.1 C230.9,225.1 230.6,220.1 230.5,220.1 C218.6,221 205.8,220.2 199.1,208.9 C199.9,210.1 198.8,212.6 199.5,213.9 Z" id="Shape" fill="#000000" fill-rule="nonzero"></path>
                    <path d="M207.4,220.3 C214.5,217 225.5,218.8 232.1,222.6 C231.8,222.4 232.5,220.3 232.1,220.1 C225.5,216.3 214.5,214.5 207.4,217.8 C207.1,217.9 207.7,220.2 207.4,220.3 Z" id="Shape" fill="#000000" fill-rule="nonzero"></path>
                    <path d="M206.3,220.7 C209.6,228.3 218.2,231.2 225.4,227 C225.8,226.8 225.1,224.7 225.4,224.5 C218.2,228.7 209.6,225.9 206.3,218.2 C206.6,218.9 206,220 206.3,220.7 Z" id="Shape" fill="#000000" fill-rule="nonzero"></path>
                    <path d="M214.7,167.6 C216.4,166 218.6,165.3 221,165.6 C220.8,165.6 221.3,160.6 221,160.6 C218.7,160.3 216.5,160.9 214.7,162.6 C214.4,162.9 214.7,164.7 214.7,165.1 C214.7,165.7 214.7,166.3 214.7,166.9 C214.7,167 214.8,167.6 214.7,167.6 Z" id="Shape" fill="#000000" fill-rule="nonzero"></path>
                    <path d="M214,110.4 C210.5,116.6 203.2,119 196.9,121.4 C190.4,123.8 184.1,126.6 177.8,129.3 C165.9,134.4 153.8,139 143.9,147.5 C135.3,154.8 127.7,165 127.1,176.7 C126.3,190.8 136.6,202.7 144.4,213.4 C145.1,214.3 149.2,211.6 148.7,210.8 C140.8,199.9 130.1,187.6 131.6,173.1 C133,159.2 144.2,147.4 156,141 C168.4,134.2 182.3,128.9 195.6,123.9 C203.9,120.8 213.7,117 218.2,108.8 C218.7,107.6 214.5,109.4 214,110.4 Z" id="Shape" fill="#000000" fill-rule="nonzero"></path>
                    <path d="M225.1,108.9 C238.7,111.3 251.2,117.7 261,127.6 C270.2,137 277.2,147.3 289.8,152.5 C299.4,156.5 308.9,154.9 317.5,149.4 C324.8,144.7 332.3,137 330.8,127.6 C330.5,125.9 325.8,127.4 326.1,129.4 C327.6,139 317.9,147 310,150.4 C298.2,155.4 285,146.7 277.1,138.4 C269.8,130.8 263.6,122.4 254.7,116.5 C246.6,111.1 237.5,107.7 227.9,106 C226.1,105.6 222.3,108.4 225.1,108.9 Z" id="Shape" fill="#000000" fill-rule="nonzero"></path>
                    <path d="M201.4,714.8 C206,689.2 209.5,663.4 209.6,637.4 C209.6,636.4 204.6,636.1 204.6,636.9 C204.5,662.9 201,688.7 196.4,714.3 C196.3,715.1 201.2,715.8 201.4,714.8 Z" id="Shape" fill="#000000" fill-rule="nonzero"></path>
                    <path d="M219.4,642 C219.4,642 219.4,637 219.4,637 C219.4,637 219.4,642 219.4,642 Z" id="Shape" fill="#000000" fill-rule="nonzero"></path>
                    <path d="M216.9,639.4 C220.6,665.1 230.7,689.1 235.7,714.5 C236,716 240.9,715.8 240.7,714.7 C235.7,689.3 225.6,665.3 221.9,639.6 C221.7,638.1 216.8,638.2 216.9,639.4 Z" id="Shape" fill="#000000" fill-rule="nonzero"></path>
                    <path d="M236.3,717 C245.8,719.5 255.7,716.7 261.5,708.5 C262.6,706.9 257.9,707.6 257,708.8 C252.8,714.6 246.8,716.2 240,714.4 C238.7,714.1 234.5,716.5 236.3,717 Z" id="Shape" fill="#000000" fill-rule="nonzero"></path>
                    <path d="M174.3,912.7 C176.2,924.9 183.3,936.5 188.6,947.5 C195,961 202.4,975.2 204.6,990.2 C205.4,995.2 205.7,1001.4 202.5,1005.7 C198.7,1010.9 191.3,1011.3 185.4,1011 C176.6,1010.6 166.7,1008.4 161.1,1001 C156,994.2 154.4,984.9 152.1,977 C148.7,965.5 143.5,954.8 139.4,943.6 C135.2,932.4 131.2,918.3 139.8,908.2 C141.9,905.7 138,903.9 136.3,905.9 C120.4,924.5 137.6,950.5 144.5,969.2 C148,978.8 149.5,989.3 154,998.6 C157.7,1006.2 163.9,1010.8 172,1013 C184.2,1016.4 204.7,1017.3 209.2,1001.9 C213.1,988.2 205.1,971.6 199.7,959.3 C195.7,950.2 191.2,941.3 187,932.3 C184,925.9 180.4,918.9 179.3,911.8 C178.8,909.3 173.9,910.2 174.3,912.7 Z" id="Shape" fill="#000000" fill-rule="nonzero"></path>
                    <path d="M255.9,913.4 C256.9,932.6 243.3,945.3 236.3,961.8 C231.5,973.2 227.6,992.3 240.1,1000.3 C251.2,1007.4 265.6,1001 274.8,993.7 C289.2,982.3 300.2,966.2 306.3,948.9 C313,929.8 313.1,908.7 302.6,891 C301.7,889.4 297,888.9 298.5,891.4 C316.3,921.4 301.6,960.6 278.9,983.7 C271.1,991.6 255.6,1004.9 243.4,998.8 C230.6,992.4 238,969.6 242.6,960.3 C250.1,945.2 261.6,932.7 260.7,914.7 C260.5,912.8 255.8,911.3 255.9,913.4 Z" id="Shape" fill="#000000" fill-rule="nonzero"></path>
                    <path d="M133.6,902.6 C149.8,922.9 153.5,949 165.7,971.4 C166.2,972.3 170.7,970.2 170.3,969.5 C158.2,947.1 154.4,921 138.2,900.7 C137.4,899.7 133.3,902.2 133.6,902.6 Z" id="Shape" fill="#000000" fill-rule="nonzero"></path>
                    <path d="M298.3,896.9 C291,922.7 273.5,943.7 261.5,967.3 C260.9,968.4 264.5,971.8 265.1,970.5 C277.1,946.9 294.6,926 301.9,900.1 C302.3,898.8 298.7,895.6 298.3,896.9 Z" id="Shape" fill="#000000" fill-rule="nonzero"></path>
                    <path d="M246.6,946.9 C251.3,946.7 255.8,947 260.1,949.1 C263.7,950.8 267,953.2 270.4,955.3 C273.2,957 274.5,952.8 272,951.3 C267.9,948.9 264,946 259.6,944.2 C255.1,942.4 250.5,942.2 245.7,942.4 C242.6,942.5 243.8,947.1 246.6,946.9 Z" id="Shape" fill="#000000" fill-rule="nonzero"></path>
                    <path d="M163.3,960.5 C174,958.1 184.4,954.4 195.4,953.5 C198.7,953.2 196.2,949.7 193.8,949.9 C182.8,950.9 172.4,954.6 161.7,956.9 C158.5,957.6 160.9,961.1 163.3,960.5 Z" id="Shape" fill="#000000" fill-rule="nonzero"></path>
                    <path d="M195.1,712.8 C183.5,719.2 171.6,717.9 162.6,708 C161.9,707.3 158,709.7 157.8,709.5 C169.3,722.3 185.6,719.3 199.2,711.7 C200.1,711.2 198.4,711.6 198.2,711.6 C197.3,711.8 196,712.3 195.1,712.8 Z" id="Shape" fill="#000000" fill-rule="nonzero"></path>
                </g>
            </g>
        </g>
    </g>
</svg>