<?xml version="1.0" encoding="UTF-8"?>
<svg width="671px" height="904px" viewBox="0 0 671 904" version="1.1" xmlns="http://www.w3.org/2000/svg" xmlns:xlink="http://www.w3.org/1999/xlink">
    <!-- Generator: sketchtool 50.2 (55047) - http://www.bohemiancoding.com/sketch -->
    <title>B5C9EDD6-99CE-4A3D-A6D3-0C40A2533367</title>
    <desc>Created with sketchtool.</desc>
    <defs></defs>
    <g id="Symbols" stroke="none" stroke-width="1" fill="none" fill-rule="evenodd">
        <g id="girl-/-02" transform="translate(-220.000000, -167.000000)">
            <g id="girl02" transform="translate(220.000000, 167.000000)">
                <g id="Layer_2" fill="#FFFFFF" fill-rule="nonzero">
                    <g id="Group">
                        <path d="M658.6,717.8 C650,709 633.5,701.5 621.6,707.4 C615.8,710.2 611.9,715.4 608.3,720.5 C608,720.9 607.7,721.3 607.4,721.7 C602.5,728.8 597.7,735.9 594.1,743.8 C590.6,751.3 587.8,759.1 584.9,766.8 C583.5,770.4 582.1,774 580.5,777.6 C579.4,780 577.2,783.6 576.1,785.4 C575.3,782.9 577.8,778.2 576.4,776 C543.7,726.5 534.2,661.4 489.2,620 C488.4,619.3 487.6,618.5 486.8,617.8 L486.8,585.4 C487.8,585.4 488.8,585.4 489.9,585.4 C490.4,585.4 491.3,585.2 491.2,584.5 C490.2,578.9 488.7,573.4 486.8,568 L486.8,559 L484.8,559 C484.8,554.7 484.8,550.5 484.8,546.2 C484.8,546.6 479.9,546.9 479.9,547.3 C479.9,549 479.9,550.8 479.9,552.5 C478.5,549.8 477.1,547.2 475.6,544.6 C476.4,544.1 477.2,543.6 478,543.6 C477,543.6 476,543.6 475,543.6 C471,536.5 466.5,529.6 462.2,522.9 C456.9,514.6 451.4,506.4 446.6,497.8 C446.7,497.6 446.9,497.4 447,497.2 C447.3,497.7 447.6,498.1 447.9,498.5 C450.8,502.7 454.1,508.2 458.2,511.3 C461.7,513.9 466.6,514.1 470.6,515.6 C477.3,518.2 484.1,520.4 490.9,522.8 C495.4,524.4 500.2,526.8 505,525.6 C507.7,525 510.7,523.1 510.6,520 C510.4,511.4 491.8,513.6 487,508.9 C487.5,508.3 488.2,507.7 488.9,507.3 C489.1,507.2 489.4,507.1 489.6,506.8 C492,506.6 494.3,506.3 496.7,506 C502.4,505.4 508.3,505.5 514,505.5 C521.1,505.6 532,507.7 538.1,503.1 C539.5,502.1 540.6,500.7 539.5,499 C538.1,496.8 534.5,497.5 532.4,497.1 C527.9,496.3 523.5,494.8 518.9,494.2 C518.5,494.2 518,494.1 517.6,494.1 C521.3,493 525,492.9 529,492.9 C531.8,492.9 534.4,492.9 536.8,491.5 C539.4,490 542.3,486.5 539.1,484.1 C536,481.8 530.4,483.1 526.1,483.5 C526.9,483.2 527.6,482.9 528.3,482.4 C529.9,481.3 531.2,479.5 529.6,477.8 C527.4,475.7 522.1,476.4 519.4,476.5 C515.8,476.6 512.3,476.9 508.7,477.5 C508.9,477.4 509.1,477.3 509.3,477.2 C513.2,475.1 514.2,471.4 508.8,471.4 C505.5,471.4 502.1,472.2 498.9,473 C494.1,474.2 490,477.2 485.3,478.5 C479.5,480.1 471,482.9 464.7,481.1 C465.5,479.8 466.1,478.8 465.8,478.5 C456.9,469.1 455.2,454.2 453.4,442 C451.2,426.7 448.9,411.8 448.6,396.3 C448.3,378.8 449.1,361.3 448.2,343.7 C447.7,334.8 447.3,326 447.3,317.1 C447.1,297.6 447.4,278.1 445.3,258.6 C443.5,241.7 440.1,223.3 429.5,209.4 C416.2,192 394.5,190.5 374.5,194.9 C374.4,194.9 374.2,195.1 374.1,195.3 C375.9,187.7 376.9,180.1 377.5,172.3 L377.6,172.3 C377.6,173.5 379.3,175.9 378.7,176.7 C385.1,167.5 396.8,159.1 394.8,146.6 C394.7,146.1 394.6,145.6 394.6,145.1 C394,141.9 393.2,138.7 391.2,136.3 C389.5,134.3 387.7,133.3 385.9,133.1 C391.7,131.7 397.1,128.6 401.9,123.9 C409.1,116.9 415.9,106.2 412,95.9 C411,93.3 406.3,94.8 407.2,97.4 C411.2,108.1 401.7,119.4 393.4,125.2 C388.8,128.4 383.6,129.7 378.3,129.6 C379.4,128.8 380.7,127.7 380.7,127.6 C369.4,111 363.1,91.6 352.3,74.6 C347.2,66.7 341.1,59.2 333.1,54.2 C325.3,49.3 316.6,47.4 307.6,47.4 C307.5,47.3 307.5,47.3 307.4,47.2 C306.3,46 304.2,46.1 303.2,46.9 C301,41.3 297.2,36.3 292.4,32.7 C282.9,25.3 270.6,24 259.1,27.2 C242.9,31.8 235.6,46.6 239.6,62.6 C239.7,63.1 239.9,63.6 240,64.1 C227.2,75.5 213.3,87 206.7,103.2 C203.1,111.9 202,121.6 200.8,130.9 C199.4,141.3 198.6,151.8 199.2,162.2 C191.8,172.4 186.5,185.1 188.7,197.7 C191.3,213.4 205.2,224.4 216.3,234.6 C215.5,235.8 214.7,237.2 214,238.5 C210.7,245.2 208.9,252.5 207.4,259.7 C206.9,262.2 206.3,264.7 205.8,267.1 C204.5,273.6 203.3,280.2 202.7,286.9 C199.6,319.7 203.5,353.1 207.9,385.6 C212,415.6 216.9,445.6 215.3,475.8 C214.8,477.4 214.2,478.9 213.4,480.4 C210.6,485.3 206,489.1 201.9,492.8 L202,493 C202.9,492.2 203.7,491.2 204.3,490 C205,488.8 202.1,489 201.6,489.9 C198.3,495.8 192,495.1 186.2,494 C182.1,493.2 177.7,492.4 173.8,491.1 C166.3,488.6 159.4,484 151.2,484.6 C147.6,484.9 145.3,487.5 148.5,490.2 C145.7,489.9 142.9,489.7 140.2,489.7 C137.3,489.7 132.8,489.2 130.4,491.4 C128.8,492.9 129.2,494.7 130.7,496.1 C131,496.4 131.4,496.6 131.7,496.9 C127.8,496.5 123.5,496 120.8,498 C117.2,500.7 120.5,504.5 123.6,505.9 C126.1,507 129.1,506.7 131.8,506.7 C135.7,506.7 139.3,507.1 142.9,508.4 C138.5,508.9 134.2,509.7 129.8,510.7 C128.1,511.1 116.1,511.7 120.7,516.6 C122.9,518.9 127.7,519.1 130.5,519.3 C135.2,519.7 139.9,519.2 144.6,519.2 C150.6,519.2 156.8,519.1 162.8,519.8 C165.2,520.1 167.6,520.4 170,520.5 C169.9,520.9 170.1,521.3 170.6,521.6 C171.4,521.9 172.2,522.5 172.8,523.2 C169.2,526.8 161.8,526.2 157.2,527.8 C154.3,528.8 150,530.2 149.4,533.7 C148.7,537.5 152.7,539.7 155.9,539.8 C161.8,540.1 168.1,536.6 173.5,534.9 C179.8,532.9 185.9,530 192.2,528.2 C195.7,527.2 199.2,526.7 202,524.3 C206.2,520.9 209.5,515.5 212.5,511.1 C213.4,509.8 214.2,508.5 215,507.1 L215.1,507.1 C208.1,519.1 200,530.5 193.1,542.6 C191.6,543.1 190.3,543.9 189.6,545 C189.1,545.3 188.6,545.5 188.1,545.5 C188.5,545.5 188.9,545.5 189.3,545.5 C189.1,546 189,546.5 189,547.1 C189,548.1 189,549.2 189,550.2 C188.9,550.4 188.8,550.5 188.8,550.7 C185.2,557.8 181.6,565.4 179.4,573.1 C178.3,577 176.7,583.9 178.5,587.9 C179.5,590.1 181.4,590.3 183.6,590 C185.4,589.7 187.2,589.3 189,588.7 C189,597.1 189,605.5 189,613.8 C187.5,618.6 185.9,623.4 183.4,627.7 C175,642.1 167.1,656.7 159.6,671.5 C144.7,700.7 131.3,730.7 118.2,760.7 C117.8,761.7 118.2,763 118.3,764.2 C113.1,775.4 107.1,786 99,795.7 C96,799.2 93,802.8 90,806.4 C90.2,805.8 90.5,805.2 90.6,804.8 C91.1,803 93,799.5 92.6,797.6 C87.1,769.4 90.2,735.8 71,712.2 C61.9,701 46.4,693.5 31.7,695.7 C19.9,697.5 12.4,706.7 8.6,717.4 C8,719.2 7.4,720.9 6.8,722.7 C3,734.2 0.4,746.1 0.6,758.3 C0.8,772.6 4.8,786.6 7.1,800.6 C10.2,820.1 13,839.7 18.5,858.7 C23.2,875 30.9,894 47.6,901.3 C63.1,908.1 78,897.5 86.1,884.7 C90,878.6 92.4,871.9 94.5,865 C94.7,864.9 95.9,860.5 96.6,857.9 C96.6,857.9 96.6,857.9 96.6,857.9 C98.9,849.8 100.6,841.8 100.6,833.3 C102.5,830.8 106.6,829.9 108.3,827.4 C123.5,805.6 143.3,786.8 161.9,767.9 C180.1,749.3 199.4,731.1 215.4,710.4 C283.9,710.4 352.3,710.4 420.8,710.4 C441.9,710.4 463,710.4 484.2,710.4 C504.3,743 527,773.8 550,804.4 C549.1,805.6 548.4,806.8 548.6,807 C557.5,820.4 552.8,839.6 552.9,854.7 C553.1,871.8 559,890.2 577,895.8 C591.2,900.3 603.8,890.7 612.6,880.5 C617.5,874.9 622,868.8 626.2,862.5 C631.4,854.8 636.1,846.7 640.4,838.6 C654,813.5 667.5,786.4 669.7,757.6 C670.9,743.6 668.9,728.3 658.6,717.8 Z M403.5,299.7 C403.8,299.1 404.1,298.7 404.2,298.4 C405.8,294.4 407.4,290.5 409,286.5 C408.8,310.8 407.1,335 406.6,359.3 L406.6,310.5 C404.1,310.7 401.3,309.4 399.1,308.1 C400.5,305.4 401.9,302.8 403.4,300.1 C403.3,300 403.4,299.8 403.5,299.7 Z M406.6,395 L406.6,383.5 C406.8,391.3 407.2,399 408.2,406.7 C407.6,406.3 407,405.9 406.3,405.6 L405.2,394.9 C406.1,394.9 406.6,395 406.6,395 Z M358.3,405.7 C350.4,406.2 342.6,406.6 334.7,406.5 C342.6,406.1 350.5,405.8 358.3,405.7 Z M247.4,347.1 L247.5,347.1 L258.7,384 C258.7,384 258.6,384 258.6,384 C258.3,384 257.5,384.2 257.5,384.6 C257.2,388.1 257,391.5 256.7,395 C254.4,381.1 249.9,367.6 245.7,354.1 C246.5,352 247,349.6 247.4,347.1 Z M275.1,78.6 C274.1,78.5 273.1,78.3 272,77.9 C267.9,76.4 264.1,73.2 261.4,69.3 C265.4,73.2 270.1,76.4 275.1,78.6 Z M415,271.5 C415.3,270.6 415.7,269.8 416,268.9 C416,269.5 415.6,270.5 415,271.5 Z M373.2,248.7 C372.5,243.5 372.2,238.7 372,234.5 C372.3,239.3 372.6,244 373.2,248.7 Z M581.6,778.4 C579.8,780.9 578.1,783.4 576.4,786 C576.4,785.9 576.3,785.9 576.3,785.8 C577.1,784.7 578.7,782.4 581.6,778.4 Z M379.1,202.2 C378.9,202.4 378.7,202.6 378.6,202.8 C378.6,202.6 378.6,202.5 378.6,202.3 C378.7,202.2 378.9,202.2 379.1,202.2 Z M206.8,265 C206.9,264.5 207.1,264.1 207.2,263.6 C207.3,262.7 207.5,261.8 207.6,260.8 C208.1,257.8 209.6,254.6 207.5,262.3 C207.5,262.3 207.5,262.4 207.5,262.4 C207.4,262.8 207.3,263.2 207.2,263.5 C207.2,263.6 207.2,263.7 207.2,263.8 C206.9,264.8 206.6,265.9 206.2,267.3 C206.3,266.6 206.5,265.8 206.8,265 Z M4.8,730.7 C5.1,729.9 5.4,729.1 5.8,728.3 C5.8,728.2 5.9,728.1 5.9,728.1 C5.9,727.9 6,727.6 6,727.4 C6.3,725.9 6.7,724.4 6.9,723 C6.5,725 6.2,726.7 5.9,728.1 C5.9,728.1 5.9,728.2 5.9,728.2 C5.9,728.3 5.9,728.4 5.9,728.5 C3.9,736.9 3.5,733.9 4.8,730.7 Z" id="Shape"></path>
                        <path d="M409.4,51.6 C409.4,51.6 409.7,51.5 409.7,51.5 C410,51.4 410.2,51.4 410.5,51.3 C421.4,48.7 432.9,49.6 443.8,47.1 C450,45.7 456.9,43.7 461,38.5 C469.4,27.9 455.8,14.9 445,14.6 C440.5,14.5 436.1,16.2 432.5,18.8 C436.2,10 428.6,0.2 419.3,0.4 C419.1,0.4 419,0.4 418.8,0.4 C418.7,0.4 418.6,0.4 418.5,0.4 C418,0.4 417.5,0.5 417.1,0.6 C417.1,0.6 417.2,0.6 417.2,0.6 C417.2,0.6 417.1,0.6 417.1,0.6 C417,0.6 417,0.6 416.9,0.6 C416.9,0.6 416.8,0.6 416.8,0.6 C416.7,0.6 416.6,0.7 416.5,0.7 C416.1,0.8 415.8,0.9 415.4,1 C415.4,1 415.3,1 415.3,1 C415.3,1 415.3,1 415.2,1 C402.5,5.2 400.9,20.4 405.2,31.6 C406.5,38.5 406.6,45.4 409.4,51.6 Z" id="Shape"></path>
                        <path d="M162.1,71.4 C167.8,73.1 174.1,71.6 179.5,69.1 C178.5,71.3 177.7,73.5 177,75.7 C177.1,75.5 177.6,75.5 178.1,75.4 C178.6,75.3 179.1,75.3 179.2,75.1 C180,72.7 180.9,70.3 182,67.9 C182.3,67.7 182.6,67.6 182.9,67.4 C182.7,67.5 182.4,67.6 182.1,67.6 C186.6,57.7 193,48.2 193,37 C193,29.7 189.7,23.1 185,17.7 C183.2,15.6 181.2,13.5 178.2,13.8 C178.2,13.8 178.2,13.8 178.2,13.8 C178.2,13.8 178.1,13.8 178.1,13.8 C178.1,13.8 178.1,13.8 178.1,13.8 C177.4,13.9 176.8,14 176.2,14.3 C176.1,14.3 176.1,14.3 176,14.3 C176,14.3 176.1,14.3 176.1,14.3 C172.8,15.8 172,20.3 171.3,23.7 C170,30.1 170.2,37.3 168.2,43.6 C164.9,39 160,32.9 154.2,33.7 C153.6,33.8 153.1,33.9 152.6,34 C149.7,34.9 148,37.1 147.1,40.3 C144.4,51.7 150.4,67.9 162.1,71.4 Z" id="Shape"></path>
                        <path d="M111.3,226.5 C121.1,229.4 131.7,227.4 141.7,227.4 C142.1,227.4 142.4,227.2 142.8,227.1 C143.2,227 143.5,226.8 143.9,226.8 C143.6,226.8 143.4,226.8 143.1,226.8 L145.8,224.1 C146.2,224.1 146.7,224 146.9,223.8 C152.6,216.3 156.5,207 154.6,197.4 C153.4,191.2 149.7,184.7 143.9,181.8 C141.3,180.5 138.4,180.2 135.7,181 C135.2,181.1 134.8,181.3 134.3,181.5 C128.5,183.8 127.9,191.1 128.3,196.8 C123.2,193.3 117.4,192.2 111.1,193.9 C105,195.6 99.6,199.7 98.2,206.2 C96.2,215 103.1,224.1 111.3,226.5 Z" id="Shape"></path>
                    </g>
                </g>
                <g id="Layer_1">
                    <path d="M242.2,222.7 C229.5,221 219.8,227.6 214.2,238.8 C210.9,245.5 209.1,252.8 207.5,260 C205.5,269 203.7,278 202.8,287.2 C199.7,320 203.6,353.4 208,385.9 C212.2,416.6 217.3,447.3 215.2,478.4 C215.5,473.5 218,468.7 218.3,463.7 C221.1,422.1 211.4,381.1 207.3,339.9 C205.7,323.7 204.7,307.4 204.9,291.2 C205,283.1 205.4,275 206.5,267 C206.8,265 207.1,263 207.4,261 C208,257.5 209.9,253.7 205.9,267.5 C206.1,266.7 206.3,265.9 206.5,265.1 C207.4,261.7 208.6,258.3 210.1,255.1 C215.5,243.2 225.4,235.6 238.8,237.4 C239.6,237.4 241.9,222.7 242.2,222.7 Z" id="Shape" fill="#000000" fill-rule="nonzero"></path>
                    <path d="M370.1,203.7 C387.9,199.8 407.7,200.1 421.3,213.8 C433.3,225.9 437.7,243.8 440,260.1 C442.8,279.5 442.8,299.2 442.9,318.8 C443,343.1 444.3,367.3 444.2,391.6 C444.2,401.6 444.2,411.6 445.1,421.6 C445.8,429.9 447.4,438 448.5,446.2 C450.3,459.7 451.6,476.8 461.5,487.2 C460.8,486.5 467,479.2 466.2,478.4 C457.3,469 455.6,454.1 453.8,441.9 C451.7,426.6 449.3,411.7 449,396.2 C448.7,378.7 449.5,361.1 448.6,343.6 C448.1,334.7 447.7,325.9 447.7,317 C447.5,297.5 447.8,278 445.7,258.5 C443.9,241.6 440.5,223.2 429.9,209.3 C416.6,191.9 394.9,190.4 374.9,194.8 C374.2,194.9 372.8,198.6 372.5,199.2 C372.1,199.9 370.8,203.6 370.1,203.7 Z" id="Shape" fill="#000000" fill-rule="nonzero"></path>
                    <path d="M233.7,305.4 C234.1,340.4 253.7,371.5 255.9,406.2 C256.8,419.9 255.1,433.2 249.7,445.8 C243.9,459.6 235.3,472.1 227.8,484.9 C227.4,485.7 229.3,485.5 229.6,484.9 C236.9,472.5 245.1,460.4 250.9,447.2 C256.3,435 258.5,422.1 258,408.8 C256.6,372.9 236,340.8 235.6,304.8 C235.7,304.3 233.7,304.6 233.7,305.4 Z" id="Shape" fill="#000000" fill-rule="nonzero"></path>
                    <path d="M411,275.6 C410.9,309.2 407.8,342.7 408.6,376.3 C408.9,390.6 410.1,404.7 413.9,418.6 C417.4,431.1 422.5,443.1 427.7,455 C434,469.4 440.2,483.9 444.6,499.1 C445,500.3 447.9,499.5 447.5,498.3 C440.1,472.8 426.9,449.7 418.8,424.5 C409.2,394.6 411,362.6 412.2,331.6 C412.9,312.8 413.9,294.1 413.9,275.3 C413.9,273.9 411,274.4 411,275.6 Z" id="Shape" fill="#000000" fill-rule="nonzero"></path>
                    <path d="M185.3,624.6 C159.6,668.3 138.4,714.4 118.1,760.9 C117.5,762.3 118.7,764.5 118.1,765.9 C138.3,719.4 159.5,673.3 185.3,629.6 C186.1,628.3 184.6,625.8 185.3,624.6 Z" id="Shape" fill="#000000" fill-rule="nonzero"></path>
                    <path d="M209,714.5 C192.7,736 172.8,754.8 153.9,774 C135.3,792.9 115.5,811.7 100.3,833.5 C102.1,830.9 106.4,830 108.2,827.4 C123.4,805.6 143.2,786.8 161.8,767.9 C180.7,748.7 200.6,729.9 216.9,708.4 C215,711 211,712 209,714.5 Z" id="Shape" fill="#000000" fill-rule="nonzero"></path>
                    <path d="M123.2,753.4 C117.3,767.2 111.2,781 101.6,792.7 C100.8,793.6 102.7,793.8 103.2,793.2 C112.9,781.3 119.1,767.5 125,753.5 C125.4,752.6 123.5,752.7 123.2,753.4 Z" id="Shape" fill="#000000" fill-rule="nonzero"></path>
                    <path d="M92.6,797.6 C87.1,769.4 90.2,735.8 71,712.2 C61.8,701 46.3,693.5 31.7,695.7 C19.9,697.5 12.4,706.7 8.6,717.4 C3.9,730.6 0.4,744.3 0.6,758.3 C0.8,772.6 4.8,786.6 7.1,800.6 C10.3,820.1 13.1,839.7 18.5,858.7 C23.2,875 30.9,894 47.6,901.3 C63.1,908.1 78,897.6 86.1,884.7 C91.2,876.7 93.8,867.7 96.4,858.6 C99,849.5 100.9,840.6 100.5,831.1 C100.7,835.8 96.1,840.7 96.3,845.5 C96.4,849.5 96.3,853.5 95.8,857.5 C95.5,859.6 95.1,861.6 94.7,863.7 C93.6,869.3 97.4,855.1 97,856 C96.4,857.5 95.9,859 95.3,860.5 C92.6,867.1 88.8,873.3 83.9,878.4 C75.3,887.3 63,892 51.2,886.6 C36.3,879.7 28.6,863.1 23.9,848.3 C18.4,831 15.5,812.9 12.6,794.9 C11.2,786.5 9.9,778 8.4,769.6 C7.4,764 5.9,758.6 5.3,753 C4.7,747.2 4.5,741.3 5,735.4 C5.2,732.6 5.5,729.9 6,727.1 C6.3,725.6 6.7,724.1 6.9,722.7 C4,737.7 3.2,734.3 4.7,730.5 C5,729.7 5.3,728.9 5.7,728.1 C10,718.4 17.9,711 28.7,709.8 C42.2,708.4 56.3,714.8 65.2,724.8 C86,748.1 82.7,783.2 88.3,811.9 C88,810.3 90,806.4 90.5,804.7 C91.1,803 93,799.6 92.6,797.6 Z" id="Shape" fill="#000000" fill-rule="nonzero"></path>
                    <path d="M478.8,701.7 C503.5,743.3 532.8,781.6 561.8,820.2 C561.2,819.4 562.6,813.9 562.7,812.8 C562.8,811.5 564.3,806.5 563.5,805.3 C534.5,766.7 505.2,728.4 480.5,686.8 C481.1,687.9 479.7,692.9 479.6,694.2 C479.4,695.8 478,700.3 478.8,701.7 Z" id="Shape" fill="#000000" fill-rule="nonzero"></path>
                    <path d="M493.5,634 C534.2,677.1 544.4,737.6 576.5,786.1 C575,783.8 578.1,778.5 576.5,776.1 C544.5,727.6 534.2,667.1 493.5,624 C494,624.5 493.5,628.2 493.5,629 C493.4,629.9 492.8,633.4 493.5,634 Z" id="Shape" fill="#000000" fill-rule="nonzero"></path>
                    <path d="M574.8,788.5 C579,782.6 583.4,776.6 586.7,770.1 C589.6,764.4 591.8,758.5 594.1,752.6 C596.6,746.1 599,739.7 601.8,733.3 C603.1,730.3 604.6,727.2 606.2,724.3 C607.4,722.1 611.4,716.1 605.7,724.6 C600,733.1 604.3,726.9 606.1,725 C615.7,715.3 627.5,716.9 639,722.4 C651.7,728.4 659.1,740.1 661,753.8 C664.8,780.4 653.5,808.2 641.9,831.6 C638.7,838 635.6,844.3 632.3,850.6 C630.4,854.2 628.4,857.7 626.3,861.2 C625.3,862.9 623.5,864.8 622.9,866.7 C622.8,867.1 628.7,858.6 625.9,862.2 C625.2,863.1 624.5,864.1 623.8,865 C615.8,875.1 604.2,886.2 590.2,884.6 C570.7,882.3 562.2,863 561.5,845.6 C560.8,829.6 566.5,809 557.1,794.8 C557.3,795.1 553.2,800.4 552.8,801 C552.4,801.6 548.3,806.7 548.6,807.2 C557.5,820.6 552.8,839.8 553,854.9 C553.2,872 559.1,890.4 577.1,896 C591.3,900.4 603.9,890.9 612.7,880.7 C623.6,868.1 632.7,853.4 640.6,838.8 C654.2,813.7 667.7,786.6 669.9,757.7 C671,743.7 669,728.3 658.7,717.9 C650.1,709.1 633.6,701.6 621.7,707.5 C615.5,710.6 611.4,716.3 607.6,721.9 C602.7,729 597.9,736.1 594.3,744 C590.8,751.5 588,759.3 585.1,767 C583.7,770.6 582.3,774.3 580.7,777.8 C578.3,783.2 570.1,794.9 582.2,777.9 C580.2,780.7 578.3,783.5 576.4,786.4 C575.8,786.8 573.2,790.7 574.8,788.5 Z" id="Shape" fill="#000000" fill-rule="nonzero"></path>
                    <path d="M641,710.5 C590.5,731.3 599.3,799.2 579.8,840.9 C579.1,842.5 580.2,846.7 580.3,848.4 C580.4,850.1 581.7,854.3 581,855.9 C600.5,814.2 591.7,746.3 642.2,725.5 C643.7,724.8 639.7,711 641,710.5 Z" id="Shape" fill="#000000" fill-rule="nonzero"></path>
                    <path d="M22.5,717 C32.6,715.8 42.5,717.9 50,725.1 C57.6,732.4 61.6,742.9 64.2,753 C70.6,777.7 70.1,803.8 70.3,829.1 C70.4,839.7 70.1,850.6 71.9,861.1 C71.7,859.6 74.2,855.6 74.8,854.2 C75.5,852.6 77.9,849 77.6,847.2 C76.1,838.1 76.2,828.8 76.1,819.6 C76,806.9 76,794.2 75.4,781.6 C74.8,768.8 73.8,756 71,743.5 C68.7,733 65.2,722.1 58.2,713.8 C50.6,704.8 39.7,701.7 28.3,703 C27.6,703.1 25.7,709.1 25.4,709.9 C25,710.7 23.1,716.9 22.5,717 Z" id="Shape" fill="#000000" fill-rule="nonzero"></path>
                    <path d="M254.1,247.2 C266.2,266.6 269.6,292.6 294,301.1 C306,305.3 322,305.8 333.6,300.1 C345.6,294.3 353.1,282.4 357.8,270.3 C363.5,255.6 366,239.4 366,223.7 C366,223.2 364.1,223.5 364.1,224.2 C364,237 362.3,249.9 358.7,262.2 C355,274.7 349.1,287.8 338.5,295.9 C326.4,305.1 307.3,304.9 293.6,299.4 C282.8,295 275.4,286.1 270.2,276 C265.1,266.3 261.8,255.7 256,246.3 C255.6,246 253.7,246.6 254.1,247.2 Z" id="Shape" fill="#000000" fill-rule="nonzero"></path>
                    <path d="M371.4,209 C371.4,226.9 371.8,245 375.4,262.6 C379,280.5 386.3,297.1 397.1,311.7 C396.8,311.4 400.4,305.7 400.7,305.1 C401.1,304.4 404.6,299 404.2,298.4 C393.4,283.7 386.1,267.1 382.5,249.3 C378.9,231.7 378.6,213.6 378.5,195.7 C378.5,197.3 375.7,200.8 374.9,202.3 C374,204 371.4,207.1 371.4,209 Z" id="Shape" fill="#000000" fill-rule="nonzero"></path>
                    <path d="M237.9,243.5 C239.2,251.2 240.5,259 241.8,266.7 C242.5,270.7 242.9,274.8 243.7,278.8 C242.4,272.5 243.7,279.2 243.8,280.7 C244,282.9 244.2,285 244.4,287.2 C245.7,303.1 245.7,319 243.2,334.8 C242.7,337.7 244,341.8 244.4,344.7 C244.8,347.6 246.3,351.7 245.8,354.6 C249.2,333.7 247.9,312.4 245.4,291.5 C242.7,269.1 239,246.8 235.3,224.5 C235.1,223.2 235.4,226.2 235.4,225.5 C235.6,227.5 235.9,229.5 236.1,231.4 C236.8,235.4 237.3,239.5 237.9,243.5 Z" id="Shape" fill="#000000" fill-rule="nonzero"></path>
                    <path d="M240.6,234 L252.3,242.3 C252.3,242.3 263.4,290.3 287.3,301.1 C287.3,301.1 321.4,319.9 347.9,292.7 C347.9,292.7 370.5,275.7 369,229.6 L369.1,220.1 L372.5,216.6 C372.5,216.6 366.2,266.5 395,305 C395,305 401.5,310.9 406.6,310.4 L406.6,395 C406.6,395 285.5,384.1 260.8,391.1 L247.5,347.2 C247.5,347.2 257.4,299.7 245,253.8 L240.6,234 Z" id="Shape" fill="#4377BB" fill-rule="nonzero" opacity="0.37"></path>
                    <g id="Group" transform="translate(177.000000, 401.000000)" fill-rule="nonzero">
                        <path d="M80.7,12 C74.8,45.3 56.3,75 40,104.6 C29.6,122.4 17.8,137.9 9.6,156.4 C6.6,163.8 2.9,170.5 2.2,177.9 C1.5,189.8 2.2,190.5 14.1,186 C34.8,179.3 51.1,174.1 74.1,174.1 C103.7,174.1 132.6,179.3 162.2,180 C206.6,180.7 251.1,183.7 296.3,183.7 C302.2,183.7 308.2,183.7 313.3,183.7 C308.1,151.1 280.7,120 265.2,90.4 C256.3,73.4 253.3,54.8 246.7,37.8 C243.7,29.7 240.8,20.8 236.3,13.4 C231.1,3 226.7,3.8 214.8,3.8 C194.1,3.8 172.6,6.8 151.1,6 C128.1,5.3 102.2,-5.1 80.7,6" id="Shape" fill="#D81B54"></path>
                        <path d="M79.7,12.1 C73.5,45.7 55.4,76.1 38.5,105.3 C29.8,120.3 19.5,134.2 11.7,149.7 C8.1,156.8 4.5,164.4 2.3,172.1 C1.2,176 -0.4,182.9 1.4,186.9 C2.4,189.1 4.3,189.3 6.5,189 C12.7,188.1 19,185 25,183.2 C41.6,178.1 58.2,174.7 75.6,174.8 C93.8,174.9 112,177 130.1,178.6 C148.8,180.3 167.5,180.7 186.3,181.3 C228.5,182.6 270.6,184.4 312.9,184.4 C313.4,184.4 314.3,184.2 314.2,183.5 C310.3,160.8 297.5,140.9 285.3,121.8 C278.9,111.8 272.3,101.9 266.7,91.4 C260.5,79.7 256.9,67 253.1,54.4 C249.6,42.6 245.6,30.5 240.4,19.3 C237.5,13 234.2,5.2 226.8,3.6 C223.8,2.9 220.7,3.1 217.6,3.1 C210.9,3.1 204.3,3.3 197.7,3.6 C183.6,4.3 169.4,5.6 155.3,5.4 C130.5,5.1 103.9,-6.2 80.3,5.4 C79.1,6 80.2,6.9 81.1,6.4 C103.1,-4.4 127.7,5.7 150.7,6.5 C174.5,7.4 198.2,3.2 222,4.3 C232.6,4.8 236.2,14.2 240,22.9 C244.6,33.8 248.4,45.1 251.8,56.4 C255.2,67.7 258.4,79.1 263.8,89.6 C268.4,98.7 274,107.3 279.5,115.9 C293,136.9 308.1,158.6 312.4,183.7 C312.8,183.4 313.3,183.1 313.7,182.8 C277.3,182.8 241.1,181.6 204.8,180.3 C186.9,179.6 168.9,179.6 151.1,178.6 C133.2,177.6 115.4,175.3 97.6,174.1 C81.6,173 65.6,172.5 49.7,175.4 C35.4,177.9 22.2,183.4 8.3,187.1 C5.8,187.8 4,188 3.3,185.3 C2.7,183 3.1,179.9 3.3,177.5 C4.2,169 8.6,160.5 12.2,152.9 C19.3,137.8 29,124.2 37.7,110 C47.2,94.5 56.1,78.2 64.1,61.9 C72,45.9 78.6,29.3 81.8,11.7 C81.8,11 79.8,11.3 79.7,12.1 Z" id="Shape" fill="#000000"></path>
                    </g>
                    <g id="Group" transform="translate(255.000000, 379.000000)" fill="#000000" fill-rule="nonzero">
                        <path d="M149.6,9.4 C110.1,-2.5 44.9,-0.5 3.4,5.4 L1.4,31.1 C33.9,31.1 67.2,26.8 100.3,26.2 C117.5,25.8 134.7,26.5 151.6,29.2" id="Shape"></path>
                        <path d="M150.4,9 C127.2,2.2 102.5,0.6 78.5,0.3 C53.5,-5.55111512e-16 28.4,1.5 3.6,5 C3.3,5 2.5,5.2 2.5,5.6 C1.8,14.2 1.2,22.7 0.5,31.3 C0.5,31.6 0.8,31.7 1.1,31.7 C51.1,31.6 101.2,22 151,29.7 C151.6,29.8 153.3,28.9 152.2,28.7 C126.1,24.6 99.7,25.3 73.5,26.9 C60.2,27.7 46.9,28.8 33.7,29.6 C27.3,30 20.8,30.3 14.4,30.5 C11.5,30.6 8.6,30.5 5.8,30.7 C5.9,30.7 2.5,30.8 2.6,30.9 C2.5,30.8 2.7,30.1 2.7,29.9 C2.1,28 3.1,24.6 3.3,22.6 C3.6,19.1 3.8,15.6 4.1,12.1 C4.2,10.8 3.8,6.9 4.6,5.9 C4.8,5.6 6.1,5.7 7.3,5.6 C9.9,5.2 12.6,4.9 15.2,4.6 C36.2,2.2 57.5,1.2 78.6,1.4 C102.1,1.7 126.3,3.3 149,10 C149.4,10 151.1,9.2 150.4,9 Z" id="Shape"></path>
                    </g>
                    <g id="Group" opacity="0.39" transform="translate(384.000000, 315.000000)">
                        <path d="M18.4,3.3 C10.6,15.2 8.5,30.7 4.7,43.7 C3.3,48 3.8,51.5 3.6,55.8" id="Shape" fill="#4377BB" fill-rule="nonzero"></path>
                        <g id="Shape" opacity="0.7">
                            <g>
                                <g>
                                    <path d="M12.6,0.7 C12.6,0.7 10.8,-0.9 14.1,1.3 L16.9,2.9 L19,3.9 L20.9,5.2 C20.9,5.2 20.9,5.4 20.6,6.6 C20.3,7.8 19.6,9.9 18.7,13.8 C18.7,13.8 18.7,14.6 18.5,16 C18.3,17.4 18,19.2 17.4,21.3 C17.4,21.3 16.7,23.2 15.9,26.1 C15,29 13.9,33.1 12.6,37.3 C12,39.4 11.3,41.5 10.6,43.6 C10.4,44.1 10.2,44.6 10.1,45.2 C9.9,45.7 9.8,46 9.7,46.3 C9.5,47 9.3,47.6 9.2,48.3 C8.9,49.6 8.8,51 8.6,52.2 C8.4,53.3 8.3,54.2 8.1,54.5 C8.1,54.5 8.2,53.2 8.5,51.2 C8.6,50.3 8.7,49.2 9,48.3 C9.2,47.3 9.5,46.4 9.9,45.4 C11.9,40 13.5,34.7 13.4,34 C13.4,34 13,35.2 12.4,37 C11.8,38.8 10.9,41.3 9.8,43.8 C9.5,44.4 9.3,45.1 9.1,45.6 C8.9,46.1 8.7,46.5 8.5,47 C8.2,47.9 7.9,48.9 7.7,49.9 C7.3,51.8 7,53.4 6.6,53.8 C6.6,53.8 6.7,52.6 6.9,50.8 C7,49.9 7.1,48.9 7.3,47.9 C7.5,46.9 7.8,45.9 8.2,44.9 C10,39.9 11.2,34.8 10.7,33.7 C10.7,33.7 10.3,34.8 9.7,36.4 C9.1,38 8.3,40.2 7.3,42.5 C7.1,43.1 6.8,43.6 6.6,44.2 C6.4,44.7 6.1,45.2 5.9,45.7 C5.5,46.7 5.2,47.7 4.9,48.7 C4.4,50.6 4,52.1 3.6,52.7 C3.6,52.7 3.8,51.8 3.9,50.9 C4.1,49.9 4.2,48.9 4.2,48.4 C4,48.9 3.8,49.4 3.6,50 C3.7,49.1 3.7,48.3 3.9,47.4 C4.1,46.9 4.3,46.4 4.5,46 C4.5,46 4,46.9 3.6,48 C3.1,49 2.7,50.1 2.4,50.3 C2.4,50.3 2.6,50.8 2.7,50.3 C2.8,50.1 2.8,49.6 2.9,48.7 C3,47.8 3.1,46.5 3.5,44.6 C3.5,44.6 3.6,44.3 3.9,43.8 C4.1,43.3 4.5,42.6 4.8,41.7 C5.6,39.8 6.5,37 7.3,33.3 C8.1,29.6 8.8,25.1 9.5,19.8 C9.8,17.1 10.2,14.2 10.7,11.1 C11,7.8 11.6,4.4 12.6,0.7 Z" fill="#00AEEF" fill-rule="nonzero"></path>
                                    <path d="M21.9,5.6 C21.9,5.6 21.7,6.2 21.3,7.1 C21.1,7.6 20.9,8.2 20.7,8.9 C20.5,9.6 20.2,10.4 20,11.2 C19,14.6 18,19.3 17.2,24.1 C17.2,24.1 17.1,24.4 16.9,25 C16.7,25.6 16.5,26.4 16.2,27.3 C15.7,29.3 14.9,32 14.2,34.7 C13.4,37.5 12.6,40.4 11.9,42.8 C11.7,43.4 11.5,44 11.3,44.5 C11.2,44.8 11.1,45 11,45.3 C11,45.4 10.9,45.5 10.9,45.6 C10.9,45.7 10.8,45.8 10.8,45.8 C10.6,46.4 10.5,46.7 10.4,46.9 C10.4,46.9 10.3,47.2 10.2,47.6 C10.1,48.1 10,48.7 9.8,49.6 C9.5,51.2 9.3,53.9 8.7,56" stroke="#6DCFF6" stroke-width="0.025"></path>
                                    <path d="M14.1,34.8 C14.5,34 15.4,30.3 16.3,27 C17.2,23.7 18.1,20.7 18.1,20.7 C18.9,18.3 19.6,14.5 20.3,11.3 C20.5,10.5 20.7,9.7 20.9,9.1 C21.1,8.4 21.2,7.8 21.4,7.3 C21.7,6.3 21.9,5.6 21.9,5.6" stroke="#00AEEF" stroke-width="0.025"></path>
                                    <path d="M10.9,34.4 C10.9,34.4 10.6,35.3 10.1,36.8 C9.6,38.3 9,40.3 8.2,42.4 C7.8,43.4 7.4,44.4 7.1,45.5 C6.8,46.4 6.5,47.3 6.4,48.1 C6,49.8 5.9,51.4 5.7,52.3" stroke="#00AEEF" stroke-width="0.025"></path>
                                    <path d="M7.5,29 C7.5,29 7.1,30.1 6.6,31.7 C6,33.3 5.3,35.5 4.5,37.8 C4.1,38.9 3.7,40 3.3,41.1 C2.9,42.2 2.5,43.2 2.1,44.1 C1.3,46.1 1.1,47.7 0.9,48.1" stroke="#6DCFF6" stroke-width="0.025"></path>
                                </g>
                            </g>
                        </g>
                    </g>
                    <path d="M382.5,425.4 C388,448.8 398.1,474.1 419.9,486.7 C422.6,488.3 429.2,486.5 432.2,486.1 C433.3,486 439.9,484.7 439,484.2 C417.6,471.8 407.8,446.2 402.4,423.4 C401.8,421.1 382.3,424.7 382.5,425.4 Z" id="Shape" fill="#000000" fill-rule="nonzero"></path>
                    <path d="M271.3,430.3 C268.9,440.7 265.6,451 260.9,460.6 C258.8,464.9 256.4,469 253.7,472.9 C252.2,475 250.6,477 248.9,479 C248.1,479.8 247.2,480.6 246.5,481.5 C244.5,484.1 251.8,478.2 247.6,480.6 C243.6,482.9 239.6,485.9 236.3,489 C234.1,491.1 233.9,492 237.1,490.1 C250.5,482.3 263.1,471.9 271.5,458.7 C279.3,446.4 284.1,432.4 287.4,418.3 C287.5,418 284.1,419.8 284.6,419.5 C282.6,420.7 280.6,422.1 278.8,423.5 C276.7,425.1 271.9,427.6 271.3,430.3 Z" id="Shape" fill="#000000" fill-rule="nonzero"></path>
                    <g id="Group" transform="translate(188.000000, 542.000000)" fill-rule="nonzero">
                        <rect id="Rectangle-path" fill="#188E44" x="20.2" y="17" width="278.7" height="146.6"></rect>
                        <path d="M5.8,168.5 C81.4,168.5 157.1,168.5 232.7,168.5 C254.4,168.5 276,168.5 297.7,168.5 C298.5,168.5 299.2,164 299.9,164 C224.3,164 148.6,164 73,164 C51.3,164 29.7,164 8,164 C7.2,164 6.5,168.5 5.8,168.5 Z" id="Shape" fill="#000000"></path>
                        <path d="M296.8,165.7 C296.8,111.9 296.8,58.1 296.8,4.3 C296.8,4.6 291.9,5 291.9,5.4 C291.9,59.2 291.9,113 291.9,166.8 C292,166.5 296.8,166.1 296.8,165.7 Z" id="Shape" fill="#000000"></path>
                        <path d="M12.8,159.2 C12.8,107.6 12.8,56 12.8,4.4 C12.8,-2 1,-0.5 1,5.1 C1,56.7 1,108.3 1,159.9 C1,166.3 12.8,164.9 12.8,159.2 Z" id="Shape" fill="#000000"></path>
                        <path d="M0.2,3.5 C74.4,3.5 148.5,3.5 222.7,3.5 C243.6,3.5 264.6,3.5 285.5,3.5 C287.1,3.5 288.6,1.6 290.1,1.6 C215.9,1.6 141.8,1.6 67.6,1.6 C46.7,1.6 25.7,1.6 4.8,1.6 C3.2,1.6 1.7,3.5 0.2,3.5 Z" id="Shape" fill="#000000"></path>
                    </g>
                    <g id="Group" transform="translate(294.000000, 118.000000)" fill-rule="nonzero">
                        <path d="M69.1,31.1 C73,50.9 61.3,69.9 42.9,73.5 C24.5,77.2 6.4,64.1 2.5,44.3 C-1.4,24.5 10.3,5.5 28.8,1.9 C47,-1.7 65.1,11.4 69.1,31.1 Z" id="Shape" stroke="#000000" fill="#188E44" opacity="0.35"></path>
                        <path d="M67.6,31.5 C70,45 65.7,59.5 54.3,67.8 C41.9,76.9 25.1,74.2 14.4,63.8 C4.5,54.2 0.7,39.3 4.5,26 C8.6,11.7 21.7,0.7 37,2.2 C52.8,3.7 64.4,16.6 67.6,31.5 C67.8,32.3 70.7,31.6 70.5,30.7 C67.1,15.3 55,2.3 38.9,0.7 C25.2,-0.7 11.8,6.4 5,18.4 C-3,32.7 -0.7,51.3 10.3,63.4 C20.1,74.1 35.6,77.8 49.1,72.3 C65.6,65.6 73.5,47.7 70.4,30.7 C70.4,29.9 67.4,30.6 67.6,31.5 Z" id="Shape" fill="#000000"></path>
                    </g>
                    <path d="M309.2,199.6 C304.3,202.5 297.9,205 292.3,202.7 C291.8,202.5 290.1,203.3 290.7,203.5 C297.1,206.1 304.7,203.3 310.3,199.9 C311.4,199.3 309.7,199.3 309.2,199.6 Z" id="Shape" fill="#000000" fill-rule="nonzero"></path>
                    <path d="M238.3,164.7 C248.7,154.7 261.4,145.8 276.4,146.1 C276.8,146.1 277.2,143.8 277.5,143.8 C262.5,143.5 249.8,152.4 239.4,162.4 C238.8,163 238.8,164.1 238.3,164.7 Z" id="Shape" fill="#000000" fill-rule="nonzero"></path>
                    <g id="Group" transform="translate(219.000000, 132.000000)" fill-rule="nonzero">
                        <path d="M69.4,31.5 C73.3,51.3 61.6,70.3 43.1,73.9 C24.7,77.6 6.6,64.5 2.7,44.7 C-1.2,24.9 10.5,5.9 29,2.3 C47.3,-1.4 65.4,11.7 69.4,31.5 Z" id="Shape" stroke="#000000" fill="#188E44" opacity="0.35"></path>
                        <path d="M67.9,31.9 C70.4,45.8 65.5,60.8 53.3,68.6 C41.3,76.3 25.8,74.1 15.4,64.7 C4.8,55 0.6,39.1 5.1,25.5 C9.5,12.1 21.9,2.1 36.4,2.8 C52.5,3.7 64.6,16.8 67.9,31.9 C68.2,33.3 71.1,32.6 70.8,31.1 C67.5,15.9 55.8,3.1 40,0.9 C25.5,-1.1 11.4,6.7 4.7,19.6 C-2.7,33.9 -0.2,52.1 10.6,63.9 C20.4,74.6 36,78.7 49.5,73.1 C66,66.3 73.8,48.1 70.7,31.1 C70.6,29.7 67.7,30.4 67.9,31.9 Z" id="Shape" fill="#000000"></path>
                    </g>
                    <path d="M251.2,55.9 C256.6,66.2 266.4,75.7 277.5,79.5 C289.5,83.6 300.5,77.6 304.3,65.6 C308.1,53.5 302.3,40.3 292.6,32.8 C283,25.4 270.8,24.1 259.3,27.3 C243.1,31.9 235.8,46.7 239.8,62.7 C243.7,78.2 256.6,92 272.6,94.5 C282.9,96.1 294.8,92.9 302.3,85.5 C312,76 317.1,58.5 307.4,47.3 C305.7,45.3 301.2,46.8 303.2,49.2 C311.1,58.3 307.3,72.1 300.3,80.5 C294.9,87 285.8,90.7 277.3,90.7 C263.8,90.7 252.4,80.9 247,69.1 C242.2,58.6 241.4,44.7 250.9,36.5 C266.1,23.3 292,29.8 298.9,48.6 C303,59.7 297.9,78.1 283.3,76.6 C271.8,75.4 260.9,64.6 255.8,54.9 C254.7,52.8 249.8,53.3 251.2,55.9 Z" id="Shape" fill="#000000" fill-rule="nonzero"></path>
                    <path d="M285.2,48.1 C276.3,45.7 255.7,41.8 255.3,56.6 C255,65.8 262.9,76.1 271.3,79.2 C284,84 291.9,67.7 290.7,57.1 C288.4,37.1 259.4,22 245.1,40 C239.1,47.6 241.6,58 246.6,65.4 C252.4,74.1 261.8,80.6 272.3,81.5 C273.3,81.6 273.3,80.1 272.3,80 C257.5,78.6 238.4,61.7 243.8,45.4 C247,35.7 259.2,31.5 268.4,34.2 C278,37.1 287.3,46 289.1,56.2 C290.7,65.7 283.9,82.2 271.9,77.8 C264.6,75.1 258.3,67 257,59.3 C254.3,43.4 275.8,47.1 284.7,49.4 C285.7,49.8 286.1,48.4 285.2,48.1 Z" id="Shape" fill="#000000" fill-rule="nonzero"></path>
                    <path d="M213.7,177.5 C224.1,215.1 249.6,255.4 290.8,262.9 C308.5,266.1 326.7,262.7 341.2,251.8 C355.4,241.1 364.8,225.2 370.6,208.7 C378.5,186.1 379.3,162 378,138.3 C378,137.5 376,138 376.1,138.8 C378.1,175.5 374.6,217.6 347,245 C333.3,258.6 314.8,264.7 295.7,262.3 C276.3,259.9 259.2,249.2 246.2,234.9 C231.4,218.6 221.5,198.2 215.7,177 C215.4,176.2 213.4,176.7 213.7,177.5 Z" id="Shape" fill="#000000" fill-rule="nonzero"></path>
                    <path d="M250.3,177.8 C252.5,173.6 255.9,168.6 261,168.4 C266.1,168.2 270.5,170.6 274,174.1 C274.5,174.6 278.2,171.8 278.6,172.3 C268.3,162 251.8,167.8 245.6,179.8 C246.2,178.5 249.7,178.9 250.3,177.8 Z" id="Shape" fill="#000000" fill-rule="nonzero"></path>
                    <path d="M311.9,167.1 C321.2,155.6 335.8,153.4 346.5,164.5 C345.5,163.4 346,160.9 344.9,159.8 C334.3,148.7 319.7,150.9 310.3,162.4 C309.7,163.1 312.4,166.4 311.9,167.1 Z" id="Shape" fill="#000000" fill-rule="nonzero"></path>
                    <path d="M320.4,157.7 C319,162.3 319.7,168.3 324.1,170.8 C325.8,171.8 327.9,173.5 330,173.1 C332.9,172.6 336,169.2 336.8,166.4 C337.5,163.9 336.1,161.9 334,160.7 C332.1,159.5 330,158.2 327.8,157.4 C326.4,156.9 324.9,156.7 323.4,156.6 C322.6,156.6 321.9,156.6 321.1,156.7 C320.7,156.8 320.4,156.8 320,156.9 C319.2,156.9 319.2,157.2 320,157.8 C320.3,158.8 321.2,159.9 321.5,160.9 C321.9,161.9 322.1,162.9 322.2,164 C322.3,166.1 321.8,167.8 320.5,169.5 C322,170.3 323.4,171.1 324.9,171.9 C323.6,168.1 323.9,164.1 324,160.2 C324,159.7 319.5,158 319.6,157.8 C317.8,161.7 319.3,164.7 322.8,166.7 C324.2,167.5 325.7,168.5 327.2,168.9 C328.3,169.2 328.3,169.3 328.6,168.4 C328.8,167.9 328.9,167.1 329,166.5 C329.3,165 329.4,163.5 329.2,161.9 C327.7,161.1 326.3,160.3 324.8,159.5 C325.7,161.2 326.2,162.9 326.5,164.8 C326.6,165.1 328.4,165.9 328.7,166 C329,166.2 330.8,166.9 330.9,167.2 C330.5,165.3 330,163.6 329.2,161.9 C329,161.4 327.5,160.9 327,160.7 C326.7,160.5 324.9,159.8 324.8,159.5 C325.1,161.4 324.8,163 324.5,164.8 C324.3,165.5 324.4,166.4 323.8,166.6 C323.2,166.8 322.2,166.2 321.7,166 C322.4,166.4 323.2,166.8 323.9,167.2 C323.7,167.1 323.6,167 323.4,166.9 C324.1,167.3 324.8,167.7 325.6,168.1 C322.9,166.2 322.7,163 324,160.1 C322.5,159.3 321.1,158.5 319.6,157.7 C319.6,161.7 319.2,165.6 320.5,169.4 C320.6,169.8 324.9,171.8 324.9,171.8 C326.2,170.1 326.8,168.1 326.5,166 C326.4,164.8 326,163.6 325.5,162.5 C325.3,162.1 323.7,159.6 323.8,159.4 C324.2,158.7 327.9,158.9 328.6,158.9 C329.4,159 330.3,159.1 331.1,159.3 C331.5,159.4 331.8,159.5 332.1,159.6 C334,160.1 329.9,157.7 330.6,158.7 C331.4,159.8 332.3,160.4 332.5,161.8 C332.7,163.3 332,164.8 331.1,166 C329.6,168.1 326.1,171.7 323.2,170.1 C324.6,170.9 325.9,171.6 327.3,172.4 C323.6,169.9 323.5,163.7 324.6,159.9 C324.8,159.8 320.3,158 320.4,157.7 Z" id="Shape" fill="#000000" fill-rule="nonzero"></path>
                    <path d="M256.6,166.9 C255.8,169.5 255.8,172.4 256.5,175.1 C257.2,177.6 258.8,179.2 260.5,181 C261.9,182.4 263.1,183.9 265.3,183.5 C268.2,183 271.3,179.6 272.1,176.8 C272.8,174.3 271.3,172.6 269.7,170.9 C268,169.1 266.5,167.5 264.1,166.6 C262.7,166.1 261.2,165.9 259.7,165.8 C258.9,165.8 258.2,165.8 257.4,165.9 C257,166 256.7,166 256.3,166.1 C255.5,166.1 255.5,166.4 256.3,167 C256.6,168 257.5,169.1 257.8,170.1 C258.2,171.1 258.4,172.1 258.5,173.2 C258.6,175.3 258.1,177 256.8,178.7 C258,179.9 259.1,181.1 260.3,182.3 C259,178.5 259.3,174.5 259.4,170.6 C259.4,169.8 255.7,167.6 255.9,167 C253.9,171.1 256,173.7 258.8,176.6 C259.9,177.8 261,178.9 262.6,179.3 C263.7,179.6 263.7,179.7 264,178.8 C264.2,178.2 264.3,177.5 264.4,176.9 C264.7,175.4 264.8,173.9 264.6,172.3 C263.4,171.1 262.3,169.9 261.1,168.7 C262,170.4 262.5,172.1 262.8,174 C263.1,175.4 266,176.2 266.3,177.6 C265.9,175.7 265.4,174 264.6,172.3 C264.3,171.6 263.4,171 262.9,170.5 C262.6,170.1 261.2,169.2 261.1,168.7 C261.4,170.5 261.4,173.5 260.5,175.1 C260.6,175.8 260.4,176.1 259.7,175.7 C259.3,175.6 258.9,175.5 258.5,175.4 C257.8,175.1 257.2,174.7 256.6,174.2 C257.7,175.4 258.9,176.6 260,177.7 C258.1,175.6 258.2,172.9 259.3,170.5 C258.1,169.3 257,168.1 255.8,166.9 C255.8,170.9 255.4,174.8 256.7,178.6 C256.9,179.1 260.3,182 260.2,182.2 C262.2,179.6 262.3,176.6 261.2,173.7 C260.9,172.9 260.5,172.1 260.1,171.4 C259.9,171 259.6,170.6 259.4,170.2 C259,169.8 259.1,169.7 259.7,169.7 C260.5,169.2 262.2,169.3 263.1,169.3 C265.3,169.3 267.4,169.9 269.4,170.9 C271.4,172 268.5,171.7 268,169.1 C268.1,169.4 268.5,169.9 268.6,170.2 C268.9,171.1 268.9,172 268.6,172.9 C267.9,175.3 265.7,177.6 263.6,178.8 C262.8,179.3 261.9,179.7 261,179.6 C260.4,179.6 259.3,178.8 258.9,178.9 C259.7,179.7 260.5,180.5 261.3,181.3 C261.1,181.1 261,180.8 260.8,180.6 C260.6,180.2 260.4,179.8 260.2,179.3 C259.9,178.4 259.7,177.5 259.5,176.6 C259.2,174.5 259.3,172.3 259.9,170.2 C260.3,169.7 256.3,167.7 256.6,166.9 Z" id="Shape" fill="#000000" fill-rule="nonzero"></path>
                    <path d="M346.5,141 C333.1,135.7 317.9,132.3 304.2,138.3 C304.3,138.3 305.4,140.5 305.6,140.4 C319.3,134.4 334.5,137.8 347.9,143.1 C347.2,142.9 347.1,141.3 346.5,141 Z" id="Shape" fill="#000000" fill-rule="nonzero"></path>
                    <g id="Group" transform="translate(244.000000, 165.000000)" fill="#000000" fill-rule="nonzero">
                        <path d="M0.3,3.2 C1.9,4.3 3.6,5.4 5.6,5.7 C6.6,5.9 7.6,4.5 6.3,4.3 C4.6,4 3.2,3 1.8,2.1 C1.1,1.6 -0.6,2.6 0.3,3.2 Z" id="Shape"></path>
                        <path d="M4.3,1.3 C6.4,2.7 8.6,4.1 10.7,5.6 C11.4,6.1 13.1,5.1 12.2,4.5 C10.1,3.1 7.9,1.7 5.8,0.2 C5.1,-0.3 3.4,0.7 4.3,1.3 Z" id="Shape"></path>
                        <path d="M10.8,0.9 C12.5,2.1 14.1,3.5 16,4.4 C16.5,4.6 18.3,3.9 17.6,3.5 C15.8,2.7 14.3,1.3 12.6,0.2 C12.1,-0.2 10.4,0.6 10.8,0.9 Z" id="Shape"></path>
                    </g>
                    <g id="Group" transform="translate(331.000000, 149.000000)" fill="#000000" fill-rule="nonzero">
                        <path d="M16.3,2.6 C15,3.4 13.6,4.4 12.1,4.7 C11.7,4.8 11.1,5 11,5.5 C11,6 11.5,6.2 11.9,6.1 C14,5.8 15.8,4.7 17.5,3.5 C17.8,3.3 18,2.8 17.6,2.5 C17.3,2.2 16.7,2.4 16.3,2.6 Z" id="Shape"></path>
                        <path d="M12.2,1 C10.1,2.4 7.9,3.8 5.8,5.2 C5.4,5.4 5.6,5.6 5.9,5.7 C6.3,5.8 7,5.5 7.3,5.3 C9.4,3.9 11.6,2.5 13.7,1.1 C14.1,0.9 13.9,0.7 13.6,0.6 C13.2,0.5 12.5,0.8 12.2,1 Z" id="Shape"></path>
                        <path d="M5.6,0.3 C4,1.4 2.5,2.8 0.7,3.5 C0.3,3.7 1.94289029e-16,4.1 0.3,4.5 C0.6,4.9 1.2,4.8 1.6,4.7 C3.6,3.9 5.2,2.4 6.9,1.2 C7.3,1 7.3,0.4 7,0.2 C6.6,-0.1 6,0.1 5.6,0.3 Z" id="Shape"></path>
                    </g>
                    <path d="M236.4,66.1 C224.3,76.9 212,87.9 206.5,103.6 C203.4,112.3 202.2,121.9 201,131 C199.6,141.7 198.8,152.4 199.5,163.2 C199.6,164.2 203.8,164.8 203.8,165.7 C203.1,155.2 203.9,144.8 205.2,134.4 C206.4,125 207.6,115.1 210.8,106.1 C216.3,90.4 228.6,79.4 240.7,68.6 C240.3,68.9 236.8,65.7 236.4,66.1 Z" id="Shape" fill="#000000" fill-rule="nonzero"></path>
                    <path d="M299.4,50.9 C309.7,50.1 320,51.8 328.9,57.3 C337.1,62.4 343.4,69.9 348.6,78 C359.4,94.9 365.7,114.3 377,131 C376.9,130.9 381,128 380.8,127.8 C369.5,111.2 363.2,91.8 352.4,74.8 C347.3,66.9 341.2,59.4 333.1,54.4 C324.1,48.7 313.7,47 303.1,47.7 C301.9,47.8 300.8,50.8 299.4,50.9 Z" id="Shape" fill="#000000" fill-rule="nonzero"></path>
                    <path d="M213.1,178.5 C210.5,176.4 204.4,172.7 200.8,174.1 C195.2,176.2 196.1,186.3 197.6,190.6 C200.1,197.7 207.5,202.7 213.5,206.7 C218.4,209.9 223.4,212.3 228.9,214.3 C230.6,214.9 226.2,213.2 225.6,213 C231.2,215 225.7,212.8 224.5,212.2 C223.5,211.6 222.4,211.1 221.4,210.5 C218.8,209 216.3,207.3 213.9,205.5 C209.8,202.5 205.2,198.9 203,194.2 C201.1,190.2 200.6,185.2 201.8,181 C202.3,179.3 203.1,177.5 204.6,176.5 C205.3,176.1 206.3,176.1 206.8,175.7 C208,175.8 207.8,175.7 206.3,175.4 C207,175.9 207.7,176.4 208.3,176.9 C209.7,177.8 211.9,177.5 213.1,178.5 Z" id="Shape" fill="#000000" fill-rule="nonzero"></path>
                    <path d="M378,143.3 C380.6,139.4 384.5,136.3 389.2,138.7 C392.9,140.5 394.9,144.2 394.3,147.8 C392.6,157.3 383.3,164.4 378,172 C377.3,173 379.6,176 379,176.9 C385.4,167.7 397.1,159.3 395.1,146.8 C394.5,143.2 393.8,139.4 391.4,136.5 C386.7,130.9 380.6,133.1 377,138.5 C376.4,139.4 378.6,142.3 378,143.3 Z" id="Shape" fill="#000000" fill-rule="nonzero"></path>
                    <path d="M287.3,167.3 C288.9,165.1 291.3,163.8 294.1,163.6 C294.2,163.6 294,158.6 294.1,158.6 C291.4,158.8 288.9,160 287.3,162.3 C287,162.7 287.3,164.3 287.3,164.8 C287.3,165.4 287.3,166 287.3,166.6 C287.3,166.7 287.4,167.2 287.3,167.3 Z" id="Shape" fill="#000000" fill-rule="nonzero"></path>
                    <path d="M221.6,233.5 C210.3,223 195.6,211.6 193.5,195.3 C191.6,180 200.3,165 210.7,154.5 C216.5,148.6 223.4,144.2 230.1,139.5 C237.5,134.3 244.9,129.1 252.4,124.2 C262,118 274.8,112.1 278.5,100.4 C279,98.7 274.2,99.3 273.7,100.9 C271.3,108.4 264.5,113.2 258.2,117.3 C252,121.3 245.8,125.2 239.7,129.4 C226.5,138.5 212,146.9 201.8,159.4 C193.2,170 186.7,183.9 189,197.9 C191.7,213.9 206,225 217.2,235.4 C218.3,236.5 222.9,234.7 221.6,233.5 Z" id="Shape" fill="#000000" fill-rule="nonzero"></path>
                    <path d="M287.6,97.9 C303.5,97.6 319.1,101.9 332.2,110.8 C344.5,119.2 354.7,129.1 369.6,132.8 C382,135.9 393,132.7 402,123.9 C409.2,116.9 416,106.2 412.1,95.9 C411.1,93.3 406.4,94.8 407.3,97.4 C411.4,108.1 401.8,119.4 393.6,125.3 C381.8,133.7 365.7,128.7 354.6,121.4 C344,114.4 335,105.7 323.2,100.4 C312,95.4 299.8,93.3 287.6,93.5 C284.6,93.6 284.4,97.9 287.6,97.9 Z" id="Shape" fill="#000000" fill-rule="nonzero"></path>
                    <g id="Group" transform="translate(372.000000, 195.000000)" fill-rule="nonzero">
                        <path d="M1.6,18.7 C2.9,7.6 19.7,-6.6 27.3,6.3 C29.9,10.8 28.3,21.3 24.1,24.6 C18,29 12.8,26 6.6,22.7" id="Shape" fill="#DA1C5C"></path>
                        <path d="M2.5,18.4 C3.9,9.3 18.3,-6.2 25.9,6 C28.2,9.6 27.8,14.6 26.7,18.6 C25.5,22.6 24.7,23.3 20.3,24.8 C16.3,26.2 15.5,26.3 11.9,24.7 C10.4,24 8.9,23.2 7.4,22.4 C6.9,22.1 5.4,22.9 5.6,23 C11.6,26.2 18.8,29.5 24.9,24.5 C30.2,20.1 31.2,9 26.7,3.9 C17.2,-6.7 2.1,9.4 0.6,18.9 C0.6,19.1 2.4,19 2.5,18.4 Z" id="Shape" fill="#000000"></path>
                    </g>
                    <g id="Group" transform="translate(234.000000, 583.000000)" fill="#FFFFFF" fill-rule="nonzero">
                        <path d="M77.4,50.8 C77.1,66.6 67.6,81 52.5,86.5 C36.9,92.2 19.1,86.3 9.3,73.1 C0.5,61.2 -0.5,44.9 6.6,32 C15,16.6 33.5,9 50.3,14.1 C66.4,19.1 77.1,34.1 77.4,50.8 C77.4,51.1 78.9,50.9 78.8,50.4 C78.5,32.9 66.7,17.3 49.6,13 C35.3,9.4 19.7,14.2 10,25.3 C-1.3,38.3 -2.7,57.7 6.9,72.1 C15.8,85.4 32.2,91.9 47.8,88.5 C65.8,84.6 78.5,68.7 78.8,50.4 C78.8,50 77.4,50.3 77.4,50.8 Z" id="Shape"></path>
                        <path d="M70.2,21.5 C83.2,2.6 104.6,11.8 122.9,15.1 C138.6,17.9 152.4,14.8 161.4,0.6 C161.5,0.5 160.2,0.5 160,0.9 C153.7,10.9 144.7,16.2 132.7,15.6 C123.8,15.2 115.2,12.5 106.6,10.7 C92,7.7 78,8.5 68.8,21.7 C68.7,21.8 70,21.8 70.2,21.5 Z" id="Shape"></path>
                        <path d="M85.2,39.9 C99.5,31.6 113.9,37.8 129.1,38.8 C142.6,39.7 151.9,33 158.6,21.6 C159,20.9 157.5,21 157.2,21.5 C152.9,28.9 147.1,35.6 138.3,37.4 C131.7,38.7 124.9,37.4 118.4,36.2 C106.5,34.1 95.1,33 84.2,39.3 C83.4,39.8 84.6,40.3 85.2,39.9 Z" id="Shape"></path>
                        <path d="M84.5,64.2 C92,55.2 104.1,58.3 113.9,60.7 C120.6,62.3 127.2,63.5 134.2,63.2 C146,62.6 154.5,56.4 161.4,47.1 C161.5,47 160.2,47 160,47.4 C154.5,54.8 147.9,60.9 138.4,62.3 C130.1,63.5 121.9,61.8 113.9,59.9 C103.3,57.3 91,55.1 83.1,64.5 C83,64.6 84.2,64.5 84.5,64.2 Z" id="Shape"></path>
                        <path d="M69.2,51 C68.8,68.3 54.2,83 36.4,80.6 C21.4,78.6 10,65.2 10,50.2 C10,32.9 25.2,18.3 42.8,20.6 C58.1,22.5 68.9,35.9 69.2,51 C69.2,51.8 72.1,51.2 72.1,50.2 C71.8,36.1 62.5,23.6 48.7,19.9 C36.7,16.7 23.3,20.7 15,30 C5.8,40.5 4.6,56.3 12.3,68 C19.7,79.2 33.5,84.4 46.5,81.4 C61.3,78.1 71.7,65.2 72.1,50.1 C72.1,49.5 69.2,49.9 69.2,51 Z" id="Shape"></path>
                    </g>
                    <g id="Group" transform="translate(146.000000, 13.000000)" fill-rule="nonzero">
                        <path d="M35.8,54.8 C-6.5,78.3 -7.6,-9.7 22.5,32.9 C26.8,23.4 23.9,-16.5 41.5,10.1 C53.8,29.3 36.7,46.6 32.1,62.5" id="Shape" fill="#EE2A7B"></path>
                        <path d="M34.8,55.1 C22.7,61.6 10.7,57.6 5.4,44.8 C3.5,40.1 2.5,34.8 3,29.7 C3.2,27.8 3.6,25.7 4.6,24 C5,23.3 5.4,22.7 6,22.1 C6.8,21.3 8.3,21.2 6.7,21.3 C13.1,21 18.2,28.6 21.5,33.1 C21.5,33.1 23.6,32.6 23.7,32.5 C26,27 26,20.5 26.9,14.7 C27.5,10.9 27.9,2.4 32.3,0.8 C31.6,1 30.9,1.2 30.2,1.4 C33.6,0.7 36.5,4.8 38.3,7.1 C42.6,12.7 45.3,19 44.9,26.1 C44.2,39.4 35,50.3 31.2,62.7 C31.3,62.3 33.3,62.5 33.4,62.1 C37.3,49.3 47.2,38 47.2,24.1 C47.2,16.8 43.9,10.2 39.2,4.8 C37.4,2.7 35.3,0.5 32.4,0.9 C27.5,1.4 26.4,6.8 25.6,10.9 C24.2,18.1 24.6,26.4 21.7,33.2 C22.4,33 23.1,32.8 23.9,32.6 C20.6,28.1 15.2,20 8.6,20.9 C4.7,21.4 2.6,23.8 1.6,27.5 C-1.3,38.7 4.7,54.9 16.4,58.4 C23.3,60.5 31.1,57.8 37.2,54.5 C36.3,54.9 35.4,54.8 34.8,55.1 Z" id="Shape" fill="#000000"></path>
                    </g>
                    <g id="Group" transform="translate(403.000000, 0.000000)" fill-rule="nonzero">
                        <path d="M5.5,36 C-0.9,25.6 -0.9,7.9 10.9,1.9 C22.8,-4.5 35.1,12.3 26.7,22.1 C34.6,12.7 45.5,12.2 55.3,22.1 C61.2,28 60.7,35.9 54.8,40.9 C42.9,50.8 21.7,47.3 7.4,51.3 C4.4,45.4 4.4,34.5 2.5,27.6" id="Shape" fill="#EE2A7B"></path>
                        <path d="M6.6,35.7 C-2.77555756e-17,24.5 -2.77555756e-17,5.9 14.3,0.7 C13.6,0.9 13,1.1 12.3,1.2 C24,-1.8 32.8,13.2 25.7,22.4 C26.1,21.9 27.5,22.3 27.9,21.8 C30.6,18.7 33.7,16.2 37.8,15.1 C37.3,15.2 36.7,15.4 36.2,15.5 C45.1,13.8 57.2,20.5 58.5,30.1 C60.1,41.5 46.3,46.2 37.6,47.4 C29,48.6 20.3,48.5 11.8,50.2 C9.9,50.6 9.2,51 8,49.2 C6.9,47.5 6.7,44.4 6.3,42.4 C5.4,37.3 5,32.2 3.7,27.2 C3.7,27.2 1.5,27.8 1.5,27.8 C3.5,35.6 3.1,44.1 6.4,51.5 C6.4,51.5 6.8,51.4 6.7,51.4 C17.8,48.5 29.6,49.6 40.8,47 C47,45.6 53.9,43.6 58,38.4 C66.4,27.8 52.8,14.8 42,14.5 C35.6,14.3 29.7,17.7 25.6,22.3 C26.3,22.1 27,21.9 27.8,21.7 C35.9,11.2 24.5,-2.9 12.5,1 C-2.1,5.8 -2.2,24.9 4.4,36.1 C4.5,36.5 6.5,35.5 6.6,35.7 Z" id="Shape" fill="#000000"></path>
                    </g>
                    <g id="Group" transform="translate(97.000000, 180.000000)" fill-rule="nonzero">
                        <path d="M45.9,47.1 C35.5,47.1 16.3,50.1 8.9,42.7 C-10.4,24.9 14.8,2.7 32.6,19 C28.2,-19.5 75.6,10.1 48.9,44.2" id="Shape" fill="#EE2A7B"></path>
                        <path d="M46.9,46.8 C32.2,46.9 9.7,51.7 3.7,33.3 C1.6,26.8 4.2,20 9.7,16.2 C16.7,11.3 25.4,14.1 31.3,19.3 C31.4,19.4 33.5,18.7 33.5,18.7 C32.9,13.3 32.6,5.6 37.5,1.9 C40.6,-0.4 45.9,2.8 48.6,5.4 C60,16.3 56.2,33.3 47.6,44.5 C48,44 49.4,44.4 49.8,43.9 C55.5,36.4 59.4,27.1 57.5,17.5 C56.3,11.3 52.6,4.8 46.8,1.9 C43.7,0.3 40.4,0.3 37.2,1.5 C30.5,4.2 30.8,13.3 31.4,19.3 C32.1,19.1 32.8,18.9 33.6,18.7 C27.9,13.8 21.3,12 14,14 C7.9,15.7 2.5,19.8 1.1,26.3 C-0.8,35 6.1,44.2 14.3,46.6 C24.1,49.5 34.8,47.5 44.7,47.5 C45.5,47.4 46.2,46.8 46.9,46.8 Z" id="Shape" fill="#000000"></path>
                    </g>
                    <path d="M277.4,226 C294.2,236.3 319.3,226.6 332.3,214 C332.9,213.4 330.2,213.7 329.7,214.2 C317.8,225.8 295.6,234.5 280.2,225 C279.4,224.5 277,225.7 277.4,226 Z" id="Shape" fill="#000000" fill-rule="nonzero"></path>
                    <g id="Group" transform="translate(439.000000, 471.000000)" fill="#000000" fill-rule="nonzero">
                        <path d="M16.7,5.9 C19.7,11.4 25.3,12.2 31.1,11.6 C37.4,10.9 44.5,9.5 50.4,7.2 C54.1,5.7 57.5,3.6 61.5,2.7 C63.2,2.3 72.3,-0.1 71.4,3.6 C70.5,7.9 58.5,9 54.9,9.8 C53.8,10.1 52.3,11.3 54.4,10.9 C59.9,9.7 65.8,8.8 70.9,6.2 C74.8,4.1 75.8,0.4 70.4,0.4 C67.1,0.4 63.7,1.2 60.5,2 C55.7,3.2 51.6,6.2 46.9,7.5 C38.7,9.7 25,14.4 19.9,5.2 C19.2,4.4 16.5,5.4 16.7,5.9 Z" id="Shape"></path>
                        <path d="M66.2,8.5 C71.8,7.4 77.6,6.8 83.3,6.9 C85.2,7 90.4,7.1 88.4,10.2 C86.8,12.7 80.3,12 77.4,12.6 C75.7,13 76,14.2 77.7,13.8 C81.7,12.9 86.2,13.7 89.8,11.2 C91.4,10.1 92.8,8.3 91.1,6.6 C88.9,4.5 83.6,5.2 80.9,5.3 C76.2,5.4 71.4,6 66.8,6.9 C65.4,7.4 64.2,8.9 66.2,8.5 Z" id="Shape"></path>
                        <path d="M61.8,16.5 C67.1,16.5 72.2,15.4 77.4,14.9 C82,14.4 86.6,15.1 91.2,14.6 C94.2,14.3 97.7,13.4 98.2,17.8 C98.5,20.6 90,20 88.2,20 C83.6,20 79.4,20.7 75.1,22.5 C73.3,23.3 74.9,24.7 76.4,24.1 C81,22.1 85.4,22 90.3,22 C93.1,22 95.7,22 98.1,20.6 C100.7,19.1 103.6,15.6 100.4,13.2 C96.7,10.5 89.3,12.8 85.1,12.6 C77.4,12.3 69.8,14.5 62.1,14.5 C60.5,14.5 59.9,16.5 61.8,16.5 Z" id="Shape"></path>
                        <path d="M62.9,24 C70.6,24.5 78.4,24.6 85.9,26.3 C88.3,26.9 90.6,27.8 93,28.1 C95.5,28.5 95.9,27.3 95.8,30.2 C95.7,33.5 92.4,32.8 89.8,33 C82.3,33.6 74.5,32.9 66.9,33 C60,33.1 52.8,34.8 45.9,34.1 C44.7,34 42.9,35.7 44.8,35.9 C49.3,36.4 53.6,35.6 58,35.1 C63.7,34.5 69.6,34.6 75.3,34.6 C82.4,34.6 93.3,36.8 99.4,32.2 C100.8,31.2 101.9,29.8 100.8,28.1 C99.4,25.9 95.8,26.6 93.7,26.2 C89.2,25.4 84.8,23.9 80.2,23.3 C74.8,22.7 69.4,22.5 63.9,22.1 C62.8,22.2 61,23.9 62.9,24 Z" id="Shape"></path>
                        <path d="M49.1,35.4 C47.7,36 46.5,36.9 45.5,38 C45.1,38.5 45.9,38.7 46.2,38.7 C46.8,38.7 47.7,38.5 48.1,37.9 C48.6,37.2 49.3,36.6 50.1,36.3 C50.4,36.2 51.3,35.7 50.9,35.3 C50.6,34.9 49.5,35.3 49.1,35.4 Z" id="Shape"></path>
                        <path d="M45.3,38.7 C49.8,43.9 58.9,42.5 64.9,45.3 C66.9,46.2 70.4,48.8 68.6,51.5 C67.3,53.4 62.3,53.5 60.4,52.9 C59.4,52.6 58.4,52.2 57.4,51.9 C52.1,49.9 46.6,48.4 41.3,46.4 C36.9,44.8 32.8,43 28.3,41.8 C24.7,40.9 22.1,39.8 19.6,37 C12.7,29.1 6.4,19.8 3.5,9.6 C3.3,8.9 0.4,9.7 0.6,10.4 C2.4,16.7 5.3,22.3 9,27.6 C11.9,31.8 15.2,37.3 19.3,40.4 C22.8,43 27.7,43.2 31.7,44.7 C38.4,47.3 45.2,49.5 52,51.9 C56.5,53.5 61.3,55.9 66.1,54.7 C68.8,54.1 71.8,52.2 71.7,49.1 C71.5,40.4 52.3,42.8 47.9,37.7 C47.6,37.2 44.8,38.2 45.3,38.7 Z" id="Shape"></path>
                    </g>
                    <g id="Group" transform="translate(119.000000, 484.000000)" fill="#000000" fill-rule="nonzero">
                        <path d="M82.6,5.9 C79.3,11.8 73,11.1 67.2,10 C63.1,9.2 58.7,8.4 54.8,7.1 C47.4,4.6 40.5,1.11022302e-16 32.2,0.6 C28.5,0.9 26.2,3.6 29.7,6.4 C34.3,9.9 41.3,10.5 46.7,11.7 C47.7,11.9 50.1,10.4 48.5,10.1 C43.4,9 36.3,8.5 32.2,5.1 C27.8,1.5 35.9,2.7 38,3.2 C42.2,4.1 45.8,5.7 49.7,7.5 C55.9,10.3 63.7,11.9 70.5,12.5 C76.5,13 82.3,11.7 85.4,6.1 C86,4.8 83.1,5.1 82.6,5.9 Z" id="Shape"></path>
                        <path d="M36.2,7.3 C31.3,6.3 26.2,5.8 21.2,5.7 C18.3,5.7 13.8,5.2 11.4,7.4 C9.8,8.9 10.2,10.7 11.7,12.1 C15,15.1 20.1,14.1 24.1,15 C25.5,15.3 27,13.3 25.1,12.9 C22.1,12.2 18.8,12.8 16,11.6 C15.3,11.3 13.3,10.5 13.3,9.4 C13.3,7.6 17.6,7.8 18.7,7.8 C24.2,7.7 29.8,8.3 35.2,9.4 C36.6,9.6 38.1,7.6 36.2,7.3 Z" id="Shape"></path>
                        <path d="M40.6,15 C32.9,15 25.3,12.8 17.6,13.1 C13.2,13.3 5.7,10.9 1.8,13.8 C-1.8,16.5 1.5,20.3 4.7,21.7 C7.2,22.8 10.2,22.5 12.9,22.5 C17.3,22.5 21.4,23 25.5,24.8 C26.6,25.3 28.9,23.7 27.2,22.9 C23.3,21.2 19.5,20.6 15.3,20.5 C12.2,20.4 8.5,21.1 5.8,19.5 C5.2,19 4.7,18.5 4.1,18.1 C4.5,17 4.9,15.8 5.3,14.7 C6.2,14.2 8.7,14.9 9.6,15 C14.2,15.5 18.6,14.9 23.2,15.3 C28.7,15.8 34.1,17 39.7,17 C40.9,17 42.6,15 40.6,15 Z" id="Shape"></path>
                        <path d="M39.2,22.9 C29.5,23.5 20.3,24.2 10.8,26.6 C9.2,27 -2.9,27.6 1.7,32.5 C3.9,34.8 8.7,35 11.5,35.2 C16.2,35.6 20.9,35.1 25.6,35.1 C31.6,35.1 37.8,35 43.8,35.7 C48.1,36.2 52.1,36.8 56.4,36.4 C57.7,36.3 58.9,34.7 56.8,35 C49.5,35.8 41.6,34 34.2,33.8 C26.7,33.7 18.8,34.6 11.4,33.7 C8.1,33.3 0.6,31.4 7.2,28.7 C9,28 11.7,27.7 13.6,27.2 C21.5,25.1 29.8,25 37.9,24.5 C39,24.3 41.1,22.7 39.2,22.9 Z" id="Shape"></path>
                        <path d="M51.6,37.4 C52.5,37.8 53.3,38.4 53.9,39.2 C54.3,39.8 55.3,39.7 55.9,39.4 C56.4,39.1 57,38.5 56.6,37.9 C55.8,36.8 54.6,36 53.3,35.4 C52.6,35.1 51.7,35.4 51.3,35.9 C50.8,36.5 51,37.1 51.6,37.4 Z" id="Shape"></path>
                        <path d="M54.1,38.7 C50.6,42.7 42.9,42 38.2,43.6 C35.3,44.6 31,46 30.4,49.5 C29.8,53.3 33.7,55.5 36.9,55.6 C42.8,55.9 49.1,52.4 54.5,50.7 C60.8,48.7 66.9,45.8 73.2,44 C76.7,43 80.2,42.5 83.1,40.1 C87.3,36.7 90.6,31.3 93.6,26.9 C97.2,21.7 99.9,16.2 101.7,10.1 C102,9.1 99.1,9.5 98.8,10.5 C96,20.2 90.3,28.2 84.1,36 C80.8,40.2 77.9,41.2 72.9,42.5 C68.7,43.6 64.8,45.6 60.7,47 C55.9,48.7 51,50.1 46.2,51.9 C42.6,53.2 35,55.8 33.8,50.5 C32.9,46.8 37.8,44.9 40.9,44.2 C46.3,42.8 53,43.2 56.9,38.6 C57.6,37.8 54.7,38 54.1,38.7 Z" id="Shape"></path>
                    </g>
                    <path d="M216.8,464.7 C216.7,470.2 216.4,475.8 213.6,480.7 C210.8,485.6 206.2,489.3 202.1,493.1 C201.7,493.5 203.5,493.3 203.9,493 C208.1,489.2 212.7,485.4 215.6,480.4 C218.4,475.5 218.8,469.8 218.9,464.2 C218.7,463.9 216.8,464.2 216.8,464.7 Z" id="Shape" fill="#000000" fill-rule="nonzero"></path>
                </g>
            </g>
        </g>
    </g>
</svg>