<?xml version="1.0" encoding="UTF-8"?>
<svg width="262px" height="44px" viewBox="0 0 262 44" version="1.1" xmlns="http://www.w3.org/2000/svg" xmlns:xlink="http://www.w3.org/1999/xlink">
    <!-- Generator: sketchtool 50.2 (55047) - http://www.bohemiancoding.com/sketch -->
    <title>879A5D16-9C4E-45A5-AFBF-B41FFDBBBEA8</title>
    <desc>Created with sketchtool.</desc>
    <defs></defs>
    <g id="Design" stroke="none" stroke-width="1" fill="none" fill-rule="evenodd">
        <g id="Доставка-(RU,-UA,-OTHER)" transform="translate(-389.000000, -569.000000)">
            <g id="logo1" transform="translate(389.000000, 569.000000)">
                <path d="M262,38 C262,40.8125 259.823961,43 256.998642,43 C254.176039,43 252,40.8125 252,38 C252,35.1929348 254.176039,33 256.998642,33 C259.823961,33 262,35.1929348 262,38 Z M252.775604,38 C252.775604,40.392663 254.576745,42.2880435 256.998642,42.2880435 C259.413746,42.2880435 261.216246,40.392663 261.216246,38 C261.216246,35.6046196 259.413746,33.7105978 256.998642,33.7105978 C254.576745,33.7105978 252.775604,35.6046196 252.775604,38 Z M255.895681,40.8940217 L255.183917,40.8940217 L255.183917,35.111413 L257.402065,35.111413 C258.711491,35.111413 259.279272,35.673913 259.279272,36.7119565 C259.279272,37.7309783 258.613692,38.1929348 257.836729,38.3247283 L259.555012,40.8940217 L258.716925,40.8940217 L257.093725,38.3247283 L255.895681,38.3247283 L255.895681,40.8940217 Z M256.835642,37.71875 C257.710405,37.71875 258.570225,37.6929348 258.570225,36.7119565 C258.570225,35.9048913 257.899212,35.7173913 257.203749,35.7173913 L255.895681,35.7173913 L255.895681,37.71875 L256.835642,37.71875 Z" id="Fill-2" fill="#1E4288"></path>
                <polyline id="Fill-3" fill="#FFFFFE" points="61.5921558 44 71 0 9.40643923 0 0 44 61.5921558 44"></polyline>
                <path d="M10.7264613,1.19254765 C10.7264613,1.19254765 44.9655188,8.23529412 45.6439511,8.35054162 C53.5098324,9.74053887 53.2668328,11.2598382 53.2668328,11.2598382 C58.7743543,11.2289181 59.4527866,11.4537913 60.4177617,12.2577129 C63.3183054,14.6821267 58.6043951,21.8148224 58.6043951,21.8148224 C57.9315813,22.3165707 7,42 7,42 L60.2843226,42 L69,1 L10.7629814,1.00562183 L10.7264613,1.19254765" id="Fill-4" fill="#1E4288"></path>
                <path d="M49.7750645,15.1442976 C49.0230849,15.5516916 47.0570002,15.771864 46.1423196,15.8617303 C45.2522492,15.9441078 45.0157175,16.0399652 45.0006779,16.4114126 C44.9883728,16.7439179 45.1319325,16.9356327 46.3993599,16.9356327 C49.3115716,16.9356327 54.55492,15.7299264 56.1354443,16.2811064 C56.9667235,16.5701764 56.2940436,18.2042454 55.6158948,20.3400679 C55.3520183,21.1668379 55.8702006,21.1114204 56.1709924,20.7459641 C56.4745187,20.3879966 57.8321836,17.6605542 57.9812123,16.2676265 C58.1890321,14.295061 56.6495248,14 54.5152701,14 L51.1272604,14 C50.9536215,14 50.8032256,14.1318039 50.5954058,14.4358516 C50.4094618,14.7039527 50.2563314,14.8761965 49.7750645,15.1442976" id="Fill-5" fill="#1E4288"></path>
                <path d="M8.65992869,11.0054652 L2,43 C2,43 22.4064356,32.7896459 24.89639,31.4832226 C30.0133862,28.807622 37.0803805,25.2634496 43.6144126,22.9928974 C44.8593898,22.5607508 50.1988034,20.8863611 53.3000556,20.3215755 C54.5100616,20.0990842 55.0150467,19.8951338 54.9996593,19.6669376 C54.9576938,19.0094473 53.7504856,18.9723654 51.6969726,19.0693488 C45.4427106,19.3717088 33.4545592,24.2337142 30.0077908,26.0906609 L26.1119913,13.7880328 L50.9961483,13.7880328 C52.1096336,10.5918596 36.269047,11.0368422 35.7696573,11.0054652 L8.65992869,11.0054652" id="Fill-6" fill="#1E4288"></path>
                <path d="M82.8328547,17 C78.7800591,17 76.3556942,15.3343214 77.1502221,11.6508578 C78.4777166,5.27701428 79.3594317,1 79.3594317,1 L82.7484801,1 C82.7484801,1 80.6700512,10.843169 80.7333322,10.6002874 C80.2003657,13.0334142 80.7333322,14.4993263 83.3292589,14.5266325 C85.8126861,14.5266325 87.0839308,13.0592832 87.5958037,10.6002874 C87.8925212,9.19042486 89.6109516,1 89.6109516,1 L93,1 C90.7218845,11.6508578 93,1 90.7486031,11.6508578 C89.9723563,15.3343214 86.8884629,17 82.8328547,17" id="Fill-7" fill="#1E4288"></path>
                <polyline id="Fill-8" fill="#1E4288" points="106.693178 16 102.37479 16 98.522293 4.8734455 98.4567549 4.8734455 96.048944 16 93 16 96.306822 1 100.76056 1 104.457761 12.25 104.500503 12.25 106.95818 1 110 1 106.693178 16"></polyline>
                <polyline id="Fill-9" fill="#1E4288" points="113.560702 16 110 16 113.427453 1 117 1 113.560702 16"></polyline>
                <polyline id="Fill-10" fill="#1E4288" points="131.507206 3.38386979 126.888784 3.38386979 124.240184 16 120.965748 16 123.615706 3.38386979 119 3.38386979 119.518588 1 132 1 131.507206 3.38386979"></polyline>
                <polyline id="Fill-11" fill="#1E4288" points="145.468625 3.38386979 137.40285 3.38386979 136.511369 7.29709217 143.540744 7.29709217 143.028399 9.51088149 135.999024 9.51088149 135.082658 13.6120154 143.141114 13.6120154 142.60242 16 131 16 134.41661 1 146 1 145.468625 3.38386979"></polyline>
                <path d="M151.192098,16 L144,16 L147.378437,1 L155.100372,1 C159.914026,1 161.538471,4.01481346 160.848518,7.83888076 C159.895103,13.2403072 155.631664,16 151.192098,16 Z M153.944629,3.38386979 L150.36823,3.38386979 L148.062567,13.6120154 L150.570558,13.6120154 C154.541423,13.6120154 156.831075,11.1650512 157.451158,7.80047549 C157.896571,5.41523409 156.854364,3.38386979 153.944629,3.38386979 Z" id="Fill-12" fill="#1E4288"></path>
                <path d="M176.51212,3.38386979 C176.51212,3.38386979 174.280035,3.38386979 173.199289,3.38386979 C171.515277,3.38386979 170.754135,3.76380761 170.600109,4.4948793 C170.129048,6.88149232 176.178398,8.78118142 175.608504,12.4639722 C175.295319,14.5159108 173.612591,16 169.73885,16 L165,16 L165.467211,13.6120154 L169.287042,13.6120154 C170.460203,13.6120154 171.910609,13.6764813 172.184005,12.4200805 C172.634529,10.2625274 166.682728,8.13514996 167.130686,4.54014265 C167.404081,2.381218 169.207462,1 172.847598,1 C172.847598,1 177.019121,1 176.999934,1 L176.51212,3.38386979" id="Fill-13" fill="#1E4288"></path>
                <polyline id="Fill-14" fill="#1E4288" points="190.500678 3.38386979 185.880597 3.38386979 183.237449 16 179.966079 16 182.617368 3.38386979 178 3.38386979 178.522388 1 191 1 190.500678 3.38386979"></polyline>
                <polyline id="Fill-15" fill="#1E4288" points="192.225682 16 193.532793 13.6120154 198.292833 13.6120154 196.96776 3.97229334 190.325811 16 187 16 195.657885 1 199.641396 1 202 16 192.225682 16"></polyline>
                <polyline id="Fill-16" fill="#1E4288" points="215.503133 3.38386979 210.883354 3.38386979 208.238826 16 204.967105 16 207.615706 3.38386979 203 3.38386979 203.514515 1 216 1 215.503133 3.38386979"></polyline>
                <polyline id="Fill-17" fill="#1E4288" points="229.458642 3.38386979 221.407043 3.38386979 220.515997 7.29709217 227.543406 7.29709217 227.031311 9.51088149 219.998049 9.51088149 219.085057 13.6120154 227.143972 13.6120154 226.604077 16 215 16 218.419333 1 230 1 229.458642 3.38386979"></polyline>
                <path d="M239.509689,3.38386979 C239.509689,3.38386979 237.271659,3.38386979 236.200124,3.38386979 C234.516468,3.38386979 233.75292,3.76380761 233.598927,4.4948793 C233.129248,6.88149232 239.170905,8.78118142 238.607547,12.4639722 C238.293145,14.5159108 236.609489,16 232.735283,16 L228,16 L228.467112,13.6120154 L232.28742,13.6120154 C233.460333,13.6120154 234.906584,13.6764813 235.183771,12.4200805 C235.632917,10.2625274 229.68109,8.13514996 230.132802,4.54014265 C230.411273,2.381218 232.205291,1 235.852357,1 C235.852357,1 240.016583,1 239.99995,1 L239.509689,3.38386979" id="Fill-18" fill="#1E4288"></path>
                <path d="M79.0774108,36.2707571 C78.5083887,36.2707571 77.8868185,36.1884601 77.3658405,36.1431968 L77.1826724,33.9664411 C77.6375898,34.0048464 78.235138,34.0665691 78.7816394,34.0665691 C81.2574109,34.0665691 82.1507305,32.5207571 82.3564192,31.6250914 C82.7422732,29.991496 81.8309371,29.3852414 80.5007166,29.3852414 L77.5460058,29.3852414 L74.6168183,42 L71,42 L74.4786916,27 L82.3323971,27 C85.8846562,27 86.2930309,29.826902 85.8591328,31.7005304 C85.195524,34.5534931 82.3323971,36.2707571 79.0774108,36.2707571" id="Fill-19" fill="#1E4288"></path>
                <path d="M92.7681905,43 C87.9576753,43 85.2465799,39.3815406 86.1841015,34.9908233 C87.3660077,29.4946616 91.3976367,27 96.2338766,27 C101.0301,27 103.799791,30.4052766 102.795099,34.9908233 C101.576035,40.6084002 97.6544506,43 92.7681905,43 Z M95.6922292,29.4565428 C92.5723971,29.4565428 90.5044187,31.5022501 89.6998078,34.9908233 C89.0181038,37.9838525 90.0913946,40.544869 93.3141254,40.544869 C96.4310991,40.544869 98.521944,38.4779846 99.2651014,34.9908233 C99.942518,31.8664961 98.8735146,29.4565428 95.6922292,29.4565428 Z" id="Fill-20" fill="#1E4288"></path>
                <path d="M113.509483,29.3852414 C113.509483,29.3852414 111.281013,29.3852414 110.201437,29.3852414 C108.518532,29.3852414 107.752174,29.7569495 107.595565,30.4893928 C107.129589,32.8814923 113.180861,34.7798098 112.609623,38.4639722 C112.297688,40.5090527 110.612215,42 106.736783,42 L102,42 L102.46726,39.6147586 L106.28236,39.6147586 C107.460779,39.6147586 108.910054,39.677853 109.184762,38.4200805 C109.630199,36.2707571 103.682906,34.1365216 104.133478,30.538771 C104.403051,28.381218 106.205339,27 109.849709,27 C109.849709,27 114.020388,27 113.999925,27 L113.509483,29.3852414" id="Fill-21" fill="#1E4288"></path>
                <polyline id="Fill-22" fill="#1E4288" points="128.499374 29.3852414 123.883845 29.3852414 121.238259 42 117.972657 42 120.620956 29.3852414 116 29.3852414 116.518263 27 129 27 128.499374 29.3852414"></polyline>
                <polyline id="Fill-23" fill="#1E4288" points="129.224781 42 130.532013 39.6147586 135.296637 39.6147586 133.968678 29.9709217 127.327499 42 124 42 132.654537 27 136.639797 27 139 42 129.224781 42"></polyline>
                <polyline id="Fill-24" fill="#1E4288" points="150.512603 42 141 42 143.982253 27 147.102109 27 144.590535 39.6147586 151 39.6147586 150.512603 42"></polyline>
                <path d="M169.509431,29.3852414 C169.509431,29.3852414 167.279438,29.3852414 166.198463,29.3852414 C164.515378,29.3852414 163.750222,29.7569495 163.593596,30.4893928 C163.130138,32.8814923 169.179489,34.7798098 168.60819,38.4639722 C168.294939,40.5090527 166.611853,42 162.734722,42 L158,42 L158.463458,39.6147586 L162.282818,39.6147586 C163.457511,39.6147586 164.908226,39.677853 165.181679,38.4200805 C165.628448,36.2707571 159.680518,34.1365216 160.133706,30.538771 C160.404592,28.381218 162.205789,27 165.847981,27 C165.847981,27 170.02039,27 169.999925,27 L169.509431,29.3852414" id="Fill-25" fill="#1E4288"></path>
                <polyline id="Fill-26" fill="#1E4288" points="184.465749 29.3852414 176.402225 29.3852414 175.513759 33.2970922 182.543911 33.2970922 182.036007 35.5122531 175.002927 35.5122531 174.08226 39.6147586 182.147248 39.6147586 181.608607 42 170 42 173.416276 27 185 27 184.465749 29.3852414"></polyline>
                <path d="M194.413087,35.5300841 L197.041534,42 L193.194456,42 L190.298932,33.777158 C190.741142,33.8402524 191.298647,33.8210497 191.634318,33.8210497 C193.432345,33.8210497 195.081509,33.1078091 195.465341,31.3288222 C195.662365,30.3892648 195.481395,29.3591807 193.528668,29.3591807 L190.364607,29.3591807 L187.515785,42 L184,42 L187.387355,27 L194.815892,27 C197.93325,27 199.17815,28.3194952 198.979667,30.8226957 C198.757832,33.6509693 196.749646,35.222842 194.413087,35.5300841" id="Fill-27" fill="#1E4288"></path>
                <polyline id="Fill-28" fill="#1E4288" points="205.290458 42 201.307154 42 199 27 202.369089 27 203.948699 39.0277067 210.668688 27 214 27 205.290458 42"></polyline>
                <polyline id="Fill-29" fill="#1E4288" points="216.566624 42 213 42 216.425973 27 220 27 216.566624 42"></polyline>
                <path d="M233.676564,29.950675 C232.647585,29.6697256 231.502771,29.4565428 229.819398,29.4565428 C226.5384,29.4565428 223.744812,31.5022501 222.965557,34.9908233 C222.183292,38.4779846 224.038162,40.544869 227.322168,40.544869 C229.046159,40.544869 230.419635,40.3034501 231.728424,40.005559 L230.833333,42.6541075 C229.506492,42.8489367 228.173633,43 226.768566,43 C221.725968,43 217.984637,40.5180446 219.246791,34.9908233 C220.483371,29.4565428 225.349959,27 230.395566,27 C231.614093,27 232.831116,27.1510633 234,27.3458925 L233.676564,29.950675" id="Fill-30" fill="#1E4288"></path>
                <polyline id="Fill-31" fill="#1E4288" points="247.468677 29.3852414 239.405152 29.3852414 238.510831 33.2970922 245.55123 33.2970922 245.031616 35.5122531 238.004391 35.5122531 237.085187 39.6147586 245.142857 39.6147586 244.607143 42 233 42 236.413349 27 248 27 247.468677 29.3852414"></polyline>
                <polyline id="Fill-32" fill="#D9262E" points="248.763421 22 249 21 75.2393783 21 75 22 248.763421 22"></polyline>
            </g>
        </g>
    </g>
</svg>