<?xml version="1.0" encoding="UTF-8"?>
<svg width="49px" height="49px" viewBox="0 0 49 49" version="1.1" xmlns="http://www.w3.org/2000/svg" xmlns:xlink="http://www.w3.org/1999/xlink">
    <!-- Generator: sketchtool 50.2 (55047) - http://www.bohemiancoding.com/sketch -->
    <title>AD9DAE86-3195-4F63-9DF8-E4DEB8E93266</title>
    <desc>Created with sketchtool.</desc>
    <defs>
        <circle id="path-1" cx="24.5038811" cy="24.5038811" r="24.0961692"></circle>
    </defs>
    <g id="Symbols" stroke="none" stroke-width="1" fill="none" fill-rule="evenodd">
        <g id="menu-/-login" transform="translate(-1508.000000, -21.000000)">
            <g id="user" transform="translate(1508.000000, 21.000000)">
                <mask id="mask-2" fill="white">
                    <use xlink:href="#path-1"></use>
                </mask>
                <use id="Mask" fill="#55607F" xlink:href="#path-1"></use>
                <path d="M29.8957465,38.8946926 C28.2781869,38.0319942 29.1408853,36.4144346 29.8957465,35.6595734 C30.8662822,34.6890377 32.0524926,31.3460811 32.0524926,31.3460811 C33.9935641,30.4833827 34.2092388,29.0814977 34.4249134,28.1109619 C35.2876118,25.3071919 33.1308657,24.8758427 33.1308657,24.8758427 C33.1308657,24.8758427 34.8562626,20.2388385 33.4543776,16.6802074 C31.6211434,12.0432031 24.1803692,10.3178062 22.8863215,14.6312985 C14.0436623,12.690227 15.8768965,24.8758427 15.8768965,24.8758427 C15.8768965,24.8758427 13.7201504,25.3071919 14.5828488,28.1109619 C14.7985235,29.0814977 15.0141981,30.4833827 16.9552696,31.3460811 C16.9552696,31.3460811 18.14148,34.6890377 19.1120157,35.6595734 C19.8668769,36.4144346 20.7295754,38.0319942 19.1120157,38.8946926 C15.8768965,40.6200895 6.17153889,41.0514388 6.17153889,48.6000503 L42.8362233,48.6000503 C42.8362233,41.0514388 33.1308657,40.6200895 29.8957465,38.8946926 Z" id="Fill-1" fill="#E6E7EC" mask="url(#mask-2)"></path>
            </g>
        </g>
    </g>
</svg>